<svg width="25" height="33" viewBox="0 0 25 33" fill="none" xmlns="http://www.w3.org/2000/svg">
<path d="M12.5166 4.83902V0.460022L6.67764 6.29902L12.5166 12.138V7.76002C14.8388 7.76188 17.0654 8.68519 18.7074 10.3272C20.3495 11.9693 21.2728 14.1958 21.2746 16.518C21.2794 17.9442 20.9281 19.349 20.2526 20.605L22.3836 22.736C23.5026 20.9716 24.1268 18.9388 24.1909 16.8505C24.2549 14.7621 23.7565 12.6949 22.7478 10.8652C21.7391 9.03548 20.2572 7.5105 18.4571 6.44983C16.657 5.38915 14.605 4.83177 12.5156 4.83602L12.5166 4.83902ZM12.5166 25.275C10.1944 25.2732 7.96788 24.3499 6.32584 22.7078C4.6838 21.0658 3.76049 18.8392 3.75864 16.517C3.75358 15.091 4.10452 13.6862 4.77964 12.43L2.64864 10.298C1.52967 12.0625 0.905493 14.0952 0.841421 16.1836C0.777349 18.2719 1.27574 20.3391 2.28443 22.1688C3.29313 23.9986 4.77506 25.5235 6.57514 26.5842C8.37523 27.6449 10.4273 28.2023 12.5166 28.198V32.577L18.3556 26.738L12.5166 20.899V25.275Z" fill="#9C9494"/>
</svg>
