<svg width="28" height="28" viewBox="0 0 32 32" fill="none" xmlns="http://www.w3.org/2000/svg">
<path d="M24 0C26.1875 0 28 1.8125 28 4V28C28 30.25 26.1875 32 24 32H6C3.75 32 2 30.25 2 28V4C2 1.8125 3.75 0 6 0H24ZM15 8C12.75 8 11 9.8125 11 12C11 14.25 12.75 16 15 16C17.1875 16 19 14.25 19 12C19 9.8125 17.1875 8 15 8ZM21 24C21.5 24 22 23.5625 22 23C22 20.25 19.75 18 17 18H13C10.1875 18 8 20.25 8 23C8 23.5625 8.4375 24 9 24H21ZM31 4C31.5 4 32 4.5 32 5V9C32 9.5625 31.5 10 31 10H30V4H31ZM31 12C31.5 12 32 12.5 32 13V17C32 17.5625 31.5 18 31 18H30V12H31ZM31 20C31.5 20 32 20.5 32 21V25C32 25.5625 31.5 26 31 26H30V20H31Z" fill="#6E6E6E"/>
</svg>
