<svg width="25" height="24" viewBox="0 0 25 24" fill="none" xmlns="http://www.w3.org/2000/svg">
<path d="M15.5 12C14.6562 12 14 12.7031 14 13.5C14 14.3438 14.6562 15 15.5 15H20C22.4844 15 24.5 17.0156 24.5 19.5C24.5 21.9844 22.4844 24 20 24H7.01562C7.4375 23.5781 7.90625 22.9688 8.42188 22.3125C8.70312 21.8906 9.03125 21.4688 9.3125 21H20C20.7969 21 21.5 20.3438 21.5 19.5C21.5 18.7031 20.7969 18 20 18H15.5C12.9688 18 10.9531 15.9844 10.9531 13.5C10.9531 11.0156 12.9688 9 15.5 9H17.4688C16.4375 7.59375 15.5 5.90625 15.5 4.5C15.5 2.01562 17.4688 0 20 0C22.4844 0 24.5 2.01562 24.5 4.5C24.5 7.5 20 12 20 12H15.5ZM20 6C20.7969 6 21.5 5.34375 21.5 4.5C21.5 3.70312 20.7969 3 20 3C19.1562 3 18.5 3.70312 18.5 4.5C18.5 5.34375 19.1562 6 20 6ZM6.03125 22.875L5.98438 22.9219C5.79688 23.1562 5.60938 23.3438 5.46875 23.5312C5.42188 23.5312 5.42188 23.5312 5.42188 23.5781C5.14062 23.8594 5 24 5 24C5 24 0.5 19.5 0.5 16.5C0.5 14.0156 2.46875 12 5 12C7.48438 12 9.5 14.0156 9.5 16.5C9.5 17.9062 8.51562 19.5938 7.48438 21C6.96875 21.75 6.45312 22.3594 6.03125 22.875ZM4.95312 18C5.79688 18 6.45312 17.3438 6.45312 16.5C6.45312 15.7031 5.79688 15 4.95312 15C4.15625 15 3.45312 15.7031 3.45312 16.5C3.45312 17.3438 4.15625 18 4.95312 18Z" fill="#9C9494"/>
</svg>
