<svg width="28" height="30" viewBox="0 0 28 30" fill="none" xmlns="http://www.w3.org/2000/svg">
<path d="M22.9104 22.416H4.96938V19.426H22.9104V22.416ZM22.9104 16.436H4.96938V13.446H22.9104V16.436ZM22.9104 10.456H4.96938V7.46499H22.9104V10.456ZM0.484375 29.89L2.72738 27.647L4.96938 29.89L7.21237 27.647L9.45438 29.89L11.6974 27.647L13.9404 29.89L16.1844 27.649L18.4254 29.89L20.6684 27.647L22.9104 29.89L25.1534 27.647L27.3954 29.89V-0.0100098L25.1534 2.23299L22.9104 -0.0100098L20.6674 2.23299L18.4254 -0.0100098L16.1844 2.23299L13.9404 -0.0100098L11.6974 2.23299L9.45438 -0.0100098L7.21237 2.23299L4.96938 -0.0100098L2.72738 2.23299L0.484375 -0.0100098V29.89Z" fill="#6E6E6E"/>
</svg>
