<svg width="30" height="25" viewBox="0 0 34 25" fill="none" xmlns="http://www.w3.org/2000/svg">
<path d="M28.9021 6.95998H24.4171V0.97998H3.48609C2.69391 0.982617 1.93492 1.29848 1.37476 1.85864C0.814593 2.41881 0.49873 3.17779 0.496094 3.96998V20.416H3.48609C3.48609 21.6055 3.95862 22.7463 4.79972 23.5874C5.64082 24.4285 6.7816 24.901 7.97109 24.901C9.16059 24.901 10.3014 24.4285 11.1425 23.5874C11.9836 22.7463 12.4561 21.6055 12.4561 20.416H21.4261C21.4261 21.6055 21.8986 22.7463 22.7397 23.5874C23.5808 24.4285 24.7216 24.901 25.9111 24.901C27.1006 24.901 28.2414 24.4285 29.0825 23.5874C29.9236 22.7463 30.3961 21.6055 30.3961 20.416H33.3861V12.941L28.9021 6.95998ZM7.97109 22.658C7.52747 22.658 7.09381 22.5264 6.72495 22.28C6.35609 22.0335 6.0686 21.6832 5.89883 21.2733C5.72906 20.8635 5.68465 20.4125 5.77119 19.9774C5.85774 19.5423 6.07136 19.1426 6.38505 18.8289C6.69874 18.5153 7.09841 18.3016 7.53351 18.2151C7.96861 18.1285 8.4196 18.173 8.82945 18.3427C9.23931 18.5125 9.58962 18.8 9.83608 19.1688C10.0825 19.5377 10.2141 19.9714 10.2141 20.415C10.2145 20.7096 10.1567 21.0015 10.0442 21.2738C9.93158 21.5461 9.76638 21.7935 9.55801 22.0019C9.34965 22.2103 9.10223 22.3755 8.82992 22.488C8.55761 22.6006 8.26576 22.6584 7.97109 22.658ZM28.1551 9.20298L31.0851 12.941H24.4171V9.20298H28.1551ZM25.9121 22.658C25.4685 22.658 25.0348 22.5264 24.6659 22.28C24.2971 22.0335 24.0096 21.6832 23.8398 21.2733C23.6701 20.8635 23.6256 20.4125 23.7122 19.9774C23.7987 19.5423 24.0124 19.1426 24.3261 18.8289C24.6397 18.5153 25.0394 18.3016 25.4745 18.2151C25.9096 18.1285 26.3606 18.173 26.7705 18.3427C27.1803 18.5125 27.5306 18.8 27.7771 19.1688C28.0235 19.5377 28.1551 19.9714 28.1551 20.415C28.1555 20.7096 28.0977 21.0015 27.9852 21.2738C27.8726 21.5461 27.7074 21.7935 27.499 22.0019C27.2907 22.2103 27.0432 22.3755 26.7709 22.488C26.4986 22.6006 26.2068 22.6584 25.9121 22.658Z" fill="#9C9494"/>
</svg>
