<svg width="29" height="30" viewBox="0 0 29 30" fill="none" xmlns="http://www.w3.org/2000/svg">
<path d="M25.6187 16.346C25.6799 15.8802 25.71 15.4108 25.7087 14.941C25.7137 14.4708 25.6802 14.0009 25.6087 13.536L28.6437 11.174C28.7744 11.0661 28.8636 10.9163 28.8962 10.75C28.9289 10.5838 28.9029 10.4113 28.8227 10.262L25.9457 5.29703C25.8612 5.14693 25.7262 5.03158 25.5648 4.97137C25.4034 4.91116 25.2259 4.90998 25.0637 4.96803L21.4897 6.40403C20.7484 5.82993 19.9339 5.35711 19.0677 4.99803L18.5297 1.19803C18.5034 1.02677 18.4164 0.870672 18.2846 0.758162C18.1528 0.645651 17.985 0.584211 17.8117 0.58503H12.0707C11.8997 0.585416 11.7346 0.647708 11.6059 0.760392C11.4772 0.873077 11.3937 1.02853 11.3707 1.19803L10.8327 4.99803C9.96783 5.35928 9.15366 5.83158 8.41071 6.40303L4.83471 4.96903C4.6728 4.90758 4.49407 4.90707 4.33181 4.96759C4.16955 5.02812 4.03482 5.14555 3.95271 5.29803L1.09771 10.261C1.00625 10.4074 0.973851 10.583 1.00709 10.7524C1.04033 10.9217 1.13671 11.0721 1.27671 11.173L4.31171 13.535C4.1423 14.4635 4.13216 15.4141 4.28171 16.346L1.24671 18.708C1.11606 18.8159 1.02683 18.9658 0.994193 19.132C0.961558 19.2983 0.987538 19.4708 1.06771 19.62L3.93771 24.588C4.02227 24.7381 4.15719 24.8535 4.3186 24.9137C4.48001 24.9739 4.65751 24.9751 4.81971 24.917L8.39271 23.482C9.13558 24.0547 9.95142 24.5258 10.8187 24.883L11.3567 28.683C11.3854 28.8533 11.473 29.008 11.6043 29.12C11.7356 29.2321 11.9021 29.2944 12.0747 29.296H17.8157C17.9872 29.2974 18.1533 29.2357 18.2823 29.1227C18.4113 29.0097 18.4944 28.8532 18.5157 28.683L19.0537 24.883C19.9215 24.5276 20.7364 24.0549 21.4757 23.478L25.0487 24.913C25.2106 24.9745 25.3893 24.975 25.5516 24.9145C25.7139 24.8539 25.8486 24.7365 25.9307 24.584L28.8017 19.62C28.8904 19.4729 28.9212 19.2981 28.8881 19.1295C28.855 18.9609 28.7604 18.8107 28.6227 18.708L25.6187 16.346ZM14.9417 20.323C13.8773 20.323 12.8367 20.0074 11.9516 19.416C11.0666 18.8246 10.3767 17.9841 9.96939 17.0006C9.56204 16.0172 9.45546 14.9351 9.66313 13.8911C9.87079 12.847 10.3834 11.8881 11.1361 11.1354C11.8888 10.3827 12.8477 9.87011 13.8917 9.66244C14.9357 9.45478 16.0179 9.56136 17.0013 9.96871C17.9847 10.3761 18.8253 11.0659 19.4167 11.951C20.0081 12.836 20.3237 13.8766 20.3237 14.941C20.319 16.367 19.7504 17.7331 18.7421 18.7414C17.7338 19.7497 16.3676 20.3183 14.9417 20.323Z" fill="#9C9494"/>
</svg>
