<svg width="14" height="15" viewBox="0 0 14 15" fill="none" xmlns="http://www.w3.org/2000/svg">
<path d="M3.5 1.42505C3.5 0.960205 3.88281 0.550049 4.375 0.550049C4.83984 0.550049 5.25 0.960205 5.25 1.42505V2.30005H8.75V1.42505C8.75 0.960205 9.13281 0.550049 9.625 0.550049C10.0898 0.550049 10.5 0.960205 10.5 1.42505V2.30005H11.8125C12.5234 2.30005 13.125 2.90161 13.125 3.61255V4.92505H0.875V3.61255C0.875 2.90161 1.44922 2.30005 2.1875 2.30005H3.5V1.42505ZM13.125 13.2375C13.125 13.9758 12.5234 14.55 11.8125 14.55H2.1875C1.44922 14.55 0.875 13.9758 0.875 13.2375V5.80005H13.125V13.2375Z" fill="#676767"/>
</svg>
