<svg width="231" height="36" viewBox="0 0 231 36" fill="none" xmlns="http://www.w3.org/2000/svg">
<g clip-path="url(#clip0_148_1607)">
<path d="M34.7165 11.6709C34.7165 11.6709 34.7161 11.6082 34.7142 11.516C34.5898 5.57405 29.7671 0.808776 23.9012 0.514118C23.7487 0.50646 23.5253 0.5 23.316 0.5C19.1534 0.5 15.5161 2.7708 13.5341 6.14448C12.5312 7.78896 11.9434 9.67611 11.9434 11.6476V12.0108C11.9434 17.8864 16.3007 22.7303 21.9274 23.4315C22.3952 23.4997 22.8669 23.5347 23.3393 23.536H25.347V35.5H34.7513C41.0569 35.5 46.1685 30.1657 46.1685 23.5855C46.1685 17.0052 41.022 11.6709 34.7165 11.6709Z" fill="#00AEFC"/>
<path d="M7.94887 12.4114C3.5999 14.0941 0.5 18.4616 0.5 23.5855C0.5 30.1657 5.61169 35.5 11.9172 35.5H21.3316V27.5906C14.0179 26.593 8.30062 20.2221 7.94887 12.4114Z" fill="#152ABF"/>
<path d="M77.1696 21.5988L81.3183 22.4843C80.8157 25.2391 79.6214 27.4038 77.7042 28.9451C75.787 30.4864 73.5555 31.2737 70.9474 31.2737C67.8359 31.2737 65.2278 30.1586 63.0904 27.9612C60.9539 25.764 59.8853 23.042 59.8848 19.7951C59.8848 16.5811 60.9539 13.859 63.0904 11.6618C65.2278 9.4315 67.8359 8.31647 70.9474 8.31647C73.5244 8.31647 75.7559 9.07079 77.6723 10.6123C79.5894 12.1209 80.7838 14.187 81.3183 16.778L77.1696 17.9913C76.4157 14.351 73.9959 12.5143 70.9474 12.5143C69.0302 12.5143 67.4274 13.2031 66.1389 14.6133C64.8504 15.9908 64.1906 17.7288 64.1906 19.7951C64.1906 21.8613 64.8504 23.5993 66.1389 25.0097C67.4593 26.4197 69.0613 27.1087 70.9474 27.1087C74.0589 27.1087 76.4157 25.272 77.1696 21.5988Z" fill="#152ABF"/>
<path d="M88.1389 30.7816H83.9902V7.16876H88.1389V30.7816Z" fill="#152ABF"/>
<path d="M106.554 23.7634H94.6117C95.0202 26.0919 96.623 27.5678 98.5394 27.5678C100.331 27.5678 101.62 26.8462 102.437 25.4031L106.145 26.2232C104.794 29.5354 102.059 31.2737 98.5394 31.2737C96.2768 31.2737 94.3604 30.4538 92.8198 28.8467C91.28 27.2398 90.4941 25.1409 90.4941 22.6156C90.4941 20.0902 91.28 17.9913 92.8198 16.3842C94.3915 14.7444 96.3087 13.9247 98.6024 13.9247C100.74 13.9247 102.562 14.7117 104.103 16.2859C105.642 17.8275 106.459 19.828 106.554 22.2876V23.7634ZM94.737 20.7134H102.311C101.808 18.7129 100.362 17.6961 98.6024 17.6961C96.8743 17.6961 95.2085 18.7783 94.737 20.7134Z" fill="#152ABF"/>
<path d="M124.688 14.4166V30.7816H120.539V29.5028C119.125 30.6834 117.397 31.2737 115.354 31.2737C113.28 31.2737 111.489 30.4538 109.948 28.8138C108.408 27.174 107.654 25.108 107.654 22.6156C107.654 20.1229 108.408 18.0568 109.948 16.4171C111.489 14.7444 113.311 13.9247 115.354 13.9247C117.428 13.9247 119.157 14.515 120.539 15.7285V14.4166H124.688ZM119.188 26.1574C120.1 25.2391 120.539 24.0585 120.539 22.6156C120.539 21.1724 120.1 19.9918 119.188 19.0734C118.277 18.1553 117.24 17.6962 116.077 17.6961C113.531 17.6961 111.677 19.6313 111.677 22.6156C111.677 25.6 113.531 27.5021 116.077 27.5021C117.239 27.5021 118.277 27.0429 119.188 26.1574Z" fill="#152ABF"/>
<path d="M141.94 15.8597C143.103 17.1385 143.668 18.7783 143.668 20.8119V30.7816H139.52V21.7302C139.52 19.4015 138.262 17.8928 136.346 17.8928C133.737 17.8928 132.449 19.7624 132.449 23.5338V30.7816H128.301V14.4166H132.449V15.8923C133.706 14.5804 135.34 13.9247 137.382 13.9247C139.268 13.9247 140.777 14.5804 141.94 15.8597Z" fill="#152ABF"/>
<path d="M163.217 21.5988L167.364 22.4843C166.862 25.2391 165.667 27.4038 163.75 28.9451C161.834 30.4864 159.602 31.2737 156.993 31.2737C153.883 31.2737 151.274 30.1586 149.137 27.9612C147 25.764 145.931 23.042 145.932 19.7951C145.932 16.5811 147 13.859 149.137 11.6618C151.274 9.4315 153.883 8.31647 156.993 8.31647C159.57 8.31647 161.802 9.07079 163.719 10.6123C165.636 12.1209 166.831 14.187 167.364 16.778L163.217 17.9913C162.462 14.351 160.042 12.5143 156.993 12.5143C155.077 12.5143 153.474 13.2031 152.186 14.6133C150.897 15.9908 150.237 17.7288 150.237 19.7951C150.237 21.8613 150.897 23.5993 152.186 25.0097C153.505 26.4197 155.108 27.1087 156.993 27.1087C160.105 27.1087 162.462 25.272 163.217 21.5988Z" fill="#152ABF"/>
<path d="M174.185 30.7816H170.037V7.16876H174.185V30.7816Z" fill="#152ABF"/>
<path d="M191.06 16.4499C192.726 18.0568 193.543 20.0902 193.543 22.6156C193.543 25.1408 192.726 27.2069 191.06 28.8138C189.426 30.4211 187.446 31.2081 185.089 31.2081C182.701 31.2081 180.69 30.4211 179.024 28.8138C177.358 27.2069 176.541 25.1408 176.541 22.6156C176.541 20.0902 177.358 18.0568 179.024 16.4499C180.69 14.8428 182.701 14.0229 185.089 14.0229C187.446 14.0229 189.426 14.8428 191.06 16.4499ZM188.169 26.1574C189.08 25.2391 189.52 24.0585 189.52 22.6156C189.52 21.1723 189.08 19.9917 188.169 19.1063C187.257 18.1879 186.252 17.7288 185.089 17.7288C183.895 17.7288 182.826 18.1879 181.915 19.0734C181.003 19.959 180.564 21.1396 180.564 22.6156C180.564 24.0914 181.003 25.272 181.915 26.1574C182.826 27.0429 183.895 27.502 185.089 27.502C186.252 27.502 187.257 27.0429 188.169 26.1574Z" fill="#152ABF"/>
<path d="M210.86 14.4166V30.7816H206.711V29.3058C205.455 30.6176 203.821 31.2736 201.777 31.2736C199.892 31.2736 198.384 30.6504 197.221 29.3716C196.058 28.0923 195.492 26.4197 195.492 24.3865V14.4166H199.641V23.4682C199.641 25.7967 200.897 27.3053 202.815 27.3053C205.423 27.3053 206.711 25.436 206.711 21.6644V14.4166H210.86Z" fill="#152ABF"/>
<path d="M230.25 7.16876V30.7816H226.102V29.5028C224.688 30.6834 222.959 31.2737 220.917 31.2737C218.842 31.2737 217.051 30.4538 215.511 28.8138C213.972 27.174 213.217 25.108 213.217 22.6156C213.217 20.1229 213.972 18.0568 215.511 16.4171C217.051 14.7444 218.874 13.9247 220.917 13.9247C222.991 13.9247 224.719 14.515 226.102 15.7285V7.16876H230.25ZM224.751 26.1574C225.662 25.2391 226.102 24.0585 226.102 22.6156C226.102 21.1724 225.662 19.9918 224.751 19.0734C223.84 18.1553 222.803 17.6962 221.639 17.6961C219.094 17.6961 217.239 19.6313 217.239 22.6156C217.239 25.6 219.094 27.5021 221.639 27.5021C222.803 27.5021 223.84 27.0429 224.751 26.1574Z" fill="#152ABF"/>
</g>
<defs>
<clipPath id="clip0_148_1607">
<rect width="229.75" height="35" fill="white" transform="translate(0.5 0.5)"/>
</clipPath>
</defs>
</svg>
