<svg width="38" height="48" viewBox="0 0 38 48" fill="none" xmlns="http://www.w3.org/2000/svg">
<path d="M34.0953 24.987C34.0948 21.8741 33.2253 18.8232 31.5848 16.1776C29.9442 13.5321 27.5978 11.3971 24.8096 10.0129C22.0214 8.62872 18.9021 8.05033 15.803 8.34286C12.7039 8.6354 9.74793 9.78724 7.26797 11.6687C4.78802 13.5502 2.88251 16.0866 1.76596 18.9923C0.649413 21.8981 0.36617 25.0578 0.948119 28.1158C1.53007 31.1738 2.95411 34.0087 5.05991 36.3012C7.1657 38.5937 9.86966 40.253 12.8673 41.092C13.5956 41.2923 14.2164 41.7702 14.5963 42.423L17.2193 46.967L19.7893 42.516C19.9822 42.1846 20.2392 41.8949 20.5454 41.664C20.8515 41.433 21.2007 41.2654 21.5723 41.171C25.1571 40.2409 28.3317 38.1471 30.5982 35.218C32.8646 32.289 34.0947 28.6905 34.0953 24.987Z" fill="#E68A00" stroke="white" stroke-miterlimit="10"/>
<path d="M29.8555 15.667C33.9976 15.667 37.3555 12.3091 37.3555 8.16699C37.3555 4.02486 33.9976 0.666992 29.8555 0.666992C25.7133 0.666992 22.3555 4.02486 22.3555 8.16699C22.3555 12.3091 25.7133 15.667 29.8555 15.667Z" fill="#E68A00"/>
<path d="M29.8555 15.167C33.7215 15.167 36.8555 12.033 36.8555 8.16699C36.8555 4.301 33.7215 1.16699 29.8555 1.16699C25.9895 1.16699 22.8555 4.301 22.8555 8.16699C22.8555 12.033 25.9895 15.167 29.8555 15.167Z" stroke="white"/>
<path d="M33.3555 8.16699L32.7195 7.53099L30.3105 9.93999V4.66699H29.4015V9.93999L26.9915 7.53099L26.3555 8.16699L29.8555 11.667L33.3555 8.16699Z" fill="white"/>
</svg>
