<svg width="37" height="38" viewBox="0 0 37 38" fill="none" xmlns="http://www.w3.org/2000/svg">
<path opacity="0.14" d="M18.5039 0.598022C13.5974 0.598022 8.89179 2.54706 5.42236 6.01648C1.95294 9.4859 0.00390625 14.1915 0.00390625 19.098C0.00390625 24.0045 1.95294 28.71 5.42236 32.1794C8.89179 35.6489 13.5974 37.598 18.5039 37.598C23.4104 37.598 28.1158 35.6489 31.5852 32.1794C35.0546 28.71 37.0039 24.0045 37.0039 19.098C37.0039 14.1915 35.0546 9.4859 31.5852 6.01648C28.1158 2.54706 23.4104 0.598022 18.5039 0.598022Z" fill="#176FAD"/>
<path d="M18.8366 23.214C20.9243 23.214 22.6166 21.5217 22.6166 19.434C22.6166 17.3464 20.9243 15.654 18.8366 15.654C16.749 15.654 15.0566 17.3464 15.0566 19.434C15.0566 21.5217 16.749 23.214 18.8366 23.214Z" fill="#176FAD"/>
</svg>
