<svg width="38" height="48" viewBox="0 0 38 48" fill="none" xmlns="http://www.w3.org/2000/svg">
<path d="M34.7408 24.32C34.7403 21.2071 33.8708 18.1562 32.2303 15.5107C30.5897 12.8651 28.2433 10.7301 25.4551 9.34592C22.6669 7.96172 19.5476 7.38334 16.4485 7.67587C13.3494 7.9684 10.3934 9.12024 7.91348 11.0017C5.43352 12.8832 3.52801 15.4196 2.41147 18.3253C1.29492 21.2311 1.01168 24.3908 1.59363 27.4488C2.17558 30.5068 3.59962 33.3417 5.70541 35.6342C7.81121 37.9268 10.5152 39.586 13.5128 40.425C14.2412 40.6253 14.8619 41.1032 15.2418 41.756L17.8648 46.3L20.4348 41.849C20.6277 41.5176 20.8847 41.2279 21.1909 40.997C21.497 40.766 21.8462 40.5984 22.2178 40.504C25.8026 39.5739 28.9772 37.4801 31.2437 34.5511C33.5101 31.622 34.7402 28.0235 34.7408 24.32Z" fill="#B2D235" stroke="white" stroke-miterlimit="10"/>
<path d="M30.501 14.5C26.6412 14.5 23.501 11.3598 23.501 7.5C23.501 3.64019 26.6412 0.5 30.501 0.5C34.3608 0.5 37.501 3.64019 37.501 7.5C37.501 11.3598 34.3608 14.5 30.501 14.5Z" fill="#B2D235"/>
<path d="M30.501 1C26.9169 1 24.001 3.91589 24.001 7.5C24.001 11.0841 26.9169 14 30.501 14C34.0851 14 37.001 11.0841 37.001 7.5C37.001 3.91589 34.0851 1 30.501 1ZM30.501 0C34.6431 0 38.001 3.35786 38.001 7.5C38.001 11.6421 34.6431 15 30.501 15C26.3588 15 23.001 11.6421 23.001 7.5C23.001 3.35786 26.3588 0 30.501 0Z" fill="white"/>
<path d="M34.001 7.5L33.365 6.864L30.956 9.273V4H30.047V9.273L27.637 6.864L27.001 7.5L30.501 11L34.001 7.5Z" fill="white"/>
<path d="M27.7847 19.444C28.0252 19.6846 28.1602 20.0108 28.1602 20.351C28.1602 20.6912 28.0252 21.0174 27.7847 21.258L17.5077 31.535C17.2671 31.7754 16.9408 31.9106 16.6007 31.9106C16.2605 31.9106 15.9343 31.7754 15.6937 31.535L10.5537 26.398C10.3349 26.1535 10.218 25.8345 10.227 25.5065C10.2361 25.1786 10.3703 24.8665 10.6021 24.6344C10.834 24.4023 11.1459 24.2677 11.4739 24.2584C11.8018 24.249 12.1209 24.3655 12.3657 24.584L16.5597 28.812L25.9597 19.447C26.0785 19.3275 26.2199 19.2326 26.3755 19.1678C26.5312 19.1031 26.6981 19.0698 26.8667 19.0698C27.0353 19.0698 27.2022 19.1031 27.3578 19.1678C27.5135 19.2326 27.6548 19.3275 27.7737 19.447L27.7847 19.444Z" fill="white"/>
</svg>
