<svg width="38" height="48" viewBox="0 0 38 48" fill="none" xmlns="http://www.w3.org/2000/svg">
<path d="M34.7399 24.32C34.7393 21.2071 33.8699 18.1562 32.2293 15.5107C30.5888 12.8651 28.2423 10.7301 25.4541 9.34592C22.6659 7.96172 19.5466 7.38334 16.4475 7.67587C13.3484 7.9684 10.3925 9.12024 7.91251 11.0017C5.43255 12.8832 3.52704 15.4196 2.41049 18.3253C1.29394 21.2311 1.0107 24.3908 1.59265 27.4488C2.1746 30.5068 3.59864 33.3417 5.70444 35.6342C7.81023 37.9268 10.5142 39.586 13.5119 40.425C14.2402 40.6253 14.8609 41.1032 15.2408 41.756L17.8639 46.3L20.4339 41.849C20.6268 41.5176 20.8838 41.2279 21.1899 40.997C21.4961 40.766 21.8452 40.5984 22.2169 40.504C25.8017 39.5739 28.9763 37.4801 31.2427 34.5511C33.5091 31.622 34.7392 28.0235 34.7399 24.32Z" fill="#B2D235" stroke="white" stroke-miterlimit="10"/>
<path d="M30.5 14.5C26.6402 14.5 23.5 11.3598 23.5 7.5C23.5 3.64019 26.6402 0.5 30.5 0.5C34.3598 0.5 37.5 3.64019 37.5 7.5C37.5 11.3598 34.3598 14.5 30.5 14.5Z" fill="#B2D235"/>
<path d="M30.5 1C26.9159 1 24 3.91589 24 7.5C24 11.0841 26.9159 14 30.5 14C34.0841 14 37 11.0841 37 7.5C37 3.91589 34.0841 1 30.5 1ZM30.5 0C34.6421 0 38 3.35786 38 7.5C38 11.6421 34.6421 15 30.5 15C26.3579 15 23 11.6421 23 7.5C23 3.35786 26.3579 0 30.5 0Z" fill="white"/>
<path d="M34 7.5L33.364 6.864L30.955 9.273V4H30.046V9.273L27.636 6.864L27 7.5L30.5 11L34 7.5Z" fill="white"/>
<path d="M27.7837 19.444C28.0242 19.6846 28.1593 20.0108 28.1593 20.351C28.1593 20.6912 28.0242 21.0174 27.7837 21.258L17.5067 31.535C17.2661 31.7754 16.9399 31.9106 16.5997 31.9106C16.2595 31.9106 15.9333 31.7754 15.6927 31.535L10.5527 26.398C10.3339 26.1535 10.2171 25.8345 10.2261 25.5065C10.2351 25.1786 10.3693 24.8665 10.6012 24.6344C10.833 24.4023 11.1449 24.2677 11.4729 24.2584C11.8009 24.249 12.12 24.3655 12.3647 24.584L16.5587 28.812L25.9587 19.447C26.0776 19.3275 26.2189 19.2326 26.3745 19.1678C26.5302 19.1031 26.6971 19.0698 26.8657 19.0698C27.0343 19.0698 27.2012 19.1031 27.3569 19.1678C27.5125 19.2326 27.6538 19.3275 27.7727 19.447L27.7837 19.444Z" fill="white"/>
</svg>
