<svg width="38" height="48" viewBox="0 0 38 48" fill="none" xmlns="http://www.w3.org/2000/svg">
<path d="M34.0914 25.0182C34.0909 21.9053 33.2214 18.8543 31.5809 16.2088C29.9403 13.5633 27.5939 11.4283 24.8057 10.0441C22.0175 8.65987 18.8982 8.08149 15.7991 8.37402C12.7 8.66655 9.74403 9.81839 7.26407 11.6999C4.78411 13.5813 2.8786 16.1177 1.76205 19.0235C0.645507 21.9292 0.362264 25.089 0.944213 28.147C1.52616 31.205 2.9502 34.0398 5.056 36.3324C7.1618 38.6249 9.86575 40.2841 12.8634 41.1232C13.5917 41.3235 14.2125 41.8013 14.5924 42.4542L17.2154 46.9982L19.7854 42.5471C19.9783 42.2157 20.2353 41.9261 20.5415 41.6951C20.8476 41.4642 21.1967 41.2966 21.5684 41.2021C25.1532 40.272 28.3278 38.1782 30.5943 35.2492C32.8607 32.3202 34.0908 28.7217 34.0914 25.0182Z" fill="#B2D235" stroke="white" stroke-miterlimit="10"/>
<path d="M29.8516 15.1982C25.9918 15.1982 22.8516 12.058 22.8516 8.19815C22.8516 4.33834 25.9918 1.19815 29.8516 1.19815C33.7114 1.19815 36.8516 4.33834 36.8516 8.19815C36.8516 12.058 33.7114 15.1982 29.8516 15.1982Z" fill="#B2D235"/>
<path d="M29.8516 1.69815C26.2675 1.69815 23.3516 4.61404 23.3516 8.19815C23.3516 11.7823 26.2675 14.6982 29.8516 14.6982C33.4357 14.6982 36.3516 11.7823 36.3516 8.19815C36.3516 4.61404 33.4357 1.69815 29.8516 1.69815ZM29.8516 0.698151C33.9937 0.698151 37.3516 4.05601 37.3516 8.19815C37.3516 12.3403 33.9937 15.6982 29.8516 15.6982C25.7094 15.6982 22.3516 12.3403 22.3516 8.19815C22.3516 4.05601 25.7094 0.698151 29.8516 0.698151Z" fill="white"/>
<path d="M33.3516 8.19815L32.7156 7.56215L30.3066 9.97115V4.69815H29.3976V9.97115L26.9876 7.56215L26.3516 8.19815L29.8516 11.6982L33.3516 8.19815Z" fill="white"/>
<path d="M27.1353 20.1421C27.3758 20.3827 27.5108 20.709 27.5108 21.0492C27.5108 21.3893 27.3758 21.7156 27.1353 21.9561L16.8583 32.2331C16.6177 32.4736 16.2914 32.6087 15.9513 32.6087C15.6111 32.6087 15.2849 32.4736 15.0443 32.2331L9.90426 27.0962C9.68549 26.8517 9.56862 26.5326 9.57763 26.2047C9.58664 25.8767 9.72086 25.5647 9.95272 25.3326C10.1846 25.1004 10.4965 24.9659 10.8245 24.9565C11.1524 24.9471 11.4715 25.0636 11.7163 25.2821L15.9103 29.5102L25.3103 20.1452C25.4291 20.0256 25.5704 19.9307 25.7261 19.866C25.8818 19.8013 26.0487 19.7679 26.2173 19.7679C26.3859 19.7679 26.5528 19.8013 26.7084 19.866C26.8641 19.9307 27.0054 20.0256 27.1243 20.1452L27.1353 20.1421Z" fill="white"/>
</svg>
