<?xml version="1.0" encoding="utf-8"?>
<!-- Generator: Adobe Illustrator 26.3.1, SVG Export Plug-In . SVG Version: 6.00 Build 0)  -->
<svg version="1.1" id="Layer_1" xmlns="http://www.w3.org/2000/svg" xmlns:xlink="http://www.w3.org/1999/xlink" x="0px" y="0px"
	 viewBox="0 0 260.59 71.41" style="enable-background:new 0 0 260.59 71.41;" xml:space="preserve">
<style type="text/css">
	.st0{fill:#EFFBFD;}
	.st1{clip-path:url(#SVGID_00000056420637615344727380000004043762379622775453_);}
	.st2{clip-path:url(#SVGID_00000145778785896131198650000005467015679824801187_);}
	.st3{clip-path:url(#SVGID_00000103985005201191688270000009417232125273126292_);fill:#D4F4FC;}
	.st4{clip-path:url(#SVGID_00000103985005201191688270000009417232125273126292_);fill:#FFFFFF;}
	.st5{clip-path:url(#SVGID_00000103985005201191688270000009417232125273126292_);fill:#EF832B;}
	.st6{clip-path:url(#SVGID_00000103985005201191688270000009417232125273126292_);fill:#F16EA7;}
	.st7{clip-path:url(#SVGID_00000103985005201191688270000009417232125273126292_);fill:#FDB716;}
	.st8{clip-path:url(#SVGID_00000103985005201191688270000009417232125273126292_);fill:#916330;}
	.st9{clip-path:url(#SVGID_00000103985005201191688270000009417232125273126292_);fill:#72483B;}
	.st10{clip-path:url(#SVGID_00000103985005201191688270000009417232125273126292_);fill:#2768BE;}
	.st11{clip-path:url(#SVGID_00000103985005201191688270000009417232125273126292_);fill:#81D1E0;}
	.st12{clip-path:url(#SVGID_00000103985005201191688270000009417232125273126292_);fill:#E6A3C6;}
	.st13{clip-path:url(#SVGID_00000103985005201191688270000009417232125273126292_);fill:#0995CC;}
	.st14{clip-path:url(#SVGID_00000103985005201191688270000009417232125273126292_);fill:#11A3EB;}
	.st15{clip-path:url(#SVGID_00000103985005201191688270000009417232125273126292_);fill:#74C6D1;}
	.st16{clip-path:url(#SVGID_00000103985005201191688270000009417232125273126292_);fill:#A55316;}
	.st17{clip-path:url(#SVGID_00000103985005201191688270000009417232125273126292_);fill:#EDCB9D;}
	.st18{clip-path:url(#SVGID_00000103985005201191688270000009417232125273126292_);fill:#BF5F1F;}
	.st19{clip-path:url(#SVGID_00000103985005201191688270000009417232125273126292_);fill:#C6D92F;}
	.st20{clip-path:url(#SVGID_00000103985005201191688270000009417232125273126292_);fill:#B7C92F;}
</style>
<g>
	<g id="background">
		<path class="st0" d="M129.99,84.46h5.42v-44.8h-22.34v44.8H129.99z M129.99,84.46"/>
		<path class="st0" d="M99.87,84.46h5.43v-23.6c0-3-2.43-5.42-5.43-5.42H68.46v29.02H99.87z M55.27,84.46h5.42v-22.4H23.86v22.4
			H55.27z M10.66,84.46h5.42V29.1H-3.59v55.36H10.66z M10.66,84.46"/>
		<rect x="-3.46" y="83.17" class="st0" width="176.44" height="10.63"/>
	</g>
	<g id="Characters">
		<defs>
			<rect id="SVGID_1_" x="-0.59" y="-18" width="259" height="113"/>
		</defs>
		<defs>
			<path id="SVGID_00000177476736866269896820000003595744053536949149_" d="M257.98,94.5H-0.17L-0.02-18h258.15L257.98,94.5z
				 M257.98,94.5"/>
		</defs>
		<defs>
			<rect id="SVGID_00000160881404821461410200000002165503304115217033_" x="-0.59" y="-18" width="259" height="113"/>
		</defs>
		<clipPath id="SVGID_00000157280482001196156740000015269617650099733910_">
			<use xlink:href="#SVGID_1_"  style="overflow:visible;"/>
		</clipPath>
		
			<clipPath id="SVGID_00000042718447773292705060000000676449761841177014_" style="clip-path:url(#SVGID_00000157280482001196156740000015269617650099733910_);">
			<use xlink:href="#SVGID_00000177476736866269896820000003595744053536949149_"  style="overflow:visible;"/>
		</clipPath>
		
			<clipPath id="SVGID_00000157288787678886781170000015006457771921563537_" style="clip-path:url(#SVGID_00000042718447773292705060000000676449761841177014_);">
			<use xlink:href="#SVGID_00000160881404821461410200000002165503304115217033_"  style="overflow:visible;"/>
		</clipPath>
		
			<rect x="142.82" y="-21.04" style="clip-path:url(#SVGID_00000157288787678886781170000015006457771921563537_);fill:#D4F4FC;" width="111.89" height="255.18"/>
		<path style="clip-path:url(#SVGID_00000157288787678886781170000015006457771921563537_);fill:#FFFFFF;" d="M176.87,186.16
			l80.89,34.37V-34.52l-80.89-4.28V186.16z M176.87,186.16"/>
		<path style="clip-path:url(#SVGID_00000157288787678886781170000015006457771921563537_);fill:#D4F4FC;" d="M250.95,212.99
			l-68.2-32.75v-211.3l68.2,4.89V212.99z M250.95,212.99"/>
		<path style="clip-path:url(#SVGID_00000157288787678886781170000015006457771921563537_);fill:#FFFFFF;" d="M183.77,178.73
			l66.21,32.75V-24.95l-66.21-4.89V178.73z M183.77,178.73"/>
		<path style="clip-path:url(#SVGID_00000157288787678886781170000015006457771921563537_);fill:#D4F4FC;" d="M243.92,52.27
			l-53.81-11.55v-58.27l53.81,4.29V52.27z M243.92,52.27"/>
		<path style="clip-path:url(#SVGID_00000157288787678886781170000015006457771921563537_);fill:#FFFFFF;" d="M191.21,39.32
			l51.61,11.55v-62.72l-51.61-4.28V39.32z M191.21,39.32"/>
		<path style="clip-path:url(#SVGID_00000157288787678886781170000015006457771921563537_);fill:#D4F4FC;" d="M243.92,127.84
			l-53.81-23.06V48.34l53.81,13.97V127.84z M243.92,127.84"/>
		<path style="clip-path:url(#SVGID_00000157288787678886781170000015006457771921563537_);fill:#FFFFFF;" d="M191.21,103.37
			l51.61,23.07V63.72l-51.61-13.98V103.37z M191.21,103.37"/>
		<path style="clip-path:url(#SVGID_00000157288787678886781170000015006457771921563537_);fill:#EF832B;" d="M103.77,41.13
			c-0.51-0.93-1.88-0.57-2.3-1.25c-0.3-0.51,0.05-1.84-0.13-2.46c-0.75-2.4-2.8-0.88-4.59-0.9c-1.03,0-1-0.19-1.5-0.08
			c-1.86,0.44-3.26,3.45-2.45,4.73c0.46,0.75,1.41,0.46,2.65,1.61c0.41,0.38,0.76,0.83,1.04,1.33c0.58,0,7.03,0.16,7.5-1.7
			C104.07,41.96,103.99,41.52,103.77,41.13L103.77,41.13z M103.77,41.13"/>
		<path style="clip-path:url(#SVGID_00000157288787678886781170000015006457771921563537_);fill:#F16EA7;" d="M94.6,32.03
			c-0.22-0.95-0.93-1.64-0.75-2.67c0.17-1.21,0.96-1.46,0.54-2.93c-1.04-3.63-3.86-0.46-6.32-0.81c-1.69-0.24-2.35-0.95-3.64,0.48
			c-0.37,0.41-0.65,0.89-0.83,1.41c-0.24,0.66-0.33,1.35-0.28,2.04c-0.09,1.21,0.22,2.41,0.9,3.41c1.4,1.96,4.31,2.76,7.22,1.85
			C91.49,34.86,95.4,35.56,94.6,32.03L94.6,32.03z M94.6,32.03"/>
		<path style="clip-path:url(#SVGID_00000157288787678886781170000015006457771921563537_);fill:#FDB716;" d="M99.53,36.9
			c-0.2-1.09-0.85-1.05-1.41-1.8c-0.56-0.74-0.46-1.57-0.84-2.3c-1.54-3-6.98-2.74-8.08,0.64c0.21,1.37,0.67,2.69,1.37,3.89
			c1.18,2.05,3.11,3.57,5.39,4.21c2.09-0.98,3.34-2.35,3.54-3.22C99.61,37.85,99.62,37.37,99.53,36.9L99.53,36.9z M99.53,36.9"/>
		<path style="clip-path:url(#SVGID_00000157288787678886781170000015006457771921563537_);fill:#916330;" d="M79.98,19.39
			c-0.27-1.96-1.15-3.8-2.5-5.25c-3-2.94-7.22-2.51-8.11-2.42c-0.45,0.05-5.79,0.67-8.65,5.38c-2.55,4.19-2.48,10.56,1.87,14.4
			c4.35,3.73,10.81,3.59,15-0.32C81.6,27.16,80.32,21,79.98,19.39L79.98,19.39z M79.98,19.39"/>
		<path style="clip-path:url(#SVGID_00000157288787678886781170000015006457771921563537_);fill:#72483B;" d="M83.18,8.42
			c-3.47,1.86-3.25,5.05-6.58,7.5c-1.59,1.12-3.46,1.8-5.4,1.96l-15,2.63c-0.67,2.93-0.13,6.01,1.5,8.54
			c3.14,4.71,8.73,4.79,9.19,4.79c-2.28-0.75-4.2-2.33-5.36-4.43c-0.42-0.79-1.92-3.59-0.93-5.76c1.38-3,6.39-2.25,18.13-4.9
			c6.67-1.5,9-2.61,10.02-4.77c0.93-1.96,0.89-5-0.68-6.1C86.36,6.75,83.56,8.25,83.18,8.42L83.18,8.42z M83.18,8.42"/>
		<path style="clip-path:url(#SVGID_00000157288787678886781170000015006457771921563537_);fill:#2768BE;" d="M79.96,11.81
			c-0.05-3.15-6.12-5.16-6.41-5.25c-6.26-2.01-13.43,1.42-16.59,6.94c-1.66,3.04-2.24,6.55-1.63,9.95
			C75.95,18.33,80.01,14.42,79.96,11.81L79.96,11.81z M79.96,11.81"/>
		<path style="clip-path:url(#SVGID_00000157288787678886781170000015006457771921563537_);fill:#916330;" d="M69.65,33.52
			c0.02-0.31-0.03-0.62-0.14-0.91c-0.26-0.43-0.72-0.7-1.23-0.7c-0.49,0.01-0.98,0.1-1.45,0.29l-0.14,0.39l-0.18,5.04l3.2,0.06
			L69.65,33.52z M69.65,33.52"/>
		<path style="clip-path:url(#SVGID_00000157288787678886781170000015006457771921563537_);fill:#81D1E0;" d="M73.29,42.3
			c-0.36-1.61-0.82-3.29-2.01-4.42c-1.66-1.51-4.16-1.6-5.92-0.23c-0.6,0.69-1.13,1.45-1.56,2.25c-0.66,1.26-1.13,2.61-1.4,4.01
			c-1.08,4.79-1.58,9.7-1.5,14.61c-0.04,0.36,0.07,0.71,0.28,1c0.29,0.21,0.64,0.32,0.99,0.29l9,0.34c0.92,0.14,1.87-0.05,2.66-0.54
			c0.87-0.7,0.97-1.96,0.98-3.07C74.82,51.76,74.31,46.98,73.29,42.3L73.29,42.3z M73.29,42.3"/>
		<path style="clip-path:url(#SVGID_00000157288787678886781170000015006457771921563537_);fill:#916330;" d="M97.93,49.33
			l1.95-3.55c0.08-0.16,0.18-0.29,0.3-0.41c0.29-0.22,0.69-0.26,1.02-0.08c0.31,0.18,0.57,0.44,0.75,0.75
			c0.75,1.11,0.86,2.54,0.3,3.75c-0.6,1.19-1.95,1.82-3.25,1.5"/>
		<path style="clip-path:url(#SVGID_00000157288787678886781170000015006457771921563537_);fill:#E6A3C6;" d="M83.27,29.25
			c0,6.91-0.14,13.79-0.14,20.71v16.7c0,3.59,0,7.66,1.5,11.03c0.55,1.31,1.5,2.83,2.94,2.96c1.88,0.17,3.53-1.64,4.42-3.09
			c2.25-3.65,2.82-8.43,3.35-12.55c0.57-4.8,1.51-9.55,2.8-14.21c0.5-1.75,1.25-3.45,1.65-5.21c0.4-1.77,0.14-1.95-1.09-3.06
			c-1.24-1.12-2.25-2.58-3.46-3.75c-1.21-1.17-2.66-2.36-3.98-3.57c-2.41-2.26-5.08-4.21-7.96-5.81"/>
		<path style="clip-path:url(#SVGID_00000157288787678886781170000015006457771921563537_);fill:#2768BE;" d="M68.38,30.5
			c-0.84-0.84-1.54-1.8-2.06-2.87c-0.57-1.28-1.01-2.62-1.32-3.99c-0.23-0.95-0.19-2-0.47-2.93l-3.94,0.54
			c-0.17,2.05,1.02,4.66,1.82,6.55c0.53,1.24,1.32,2.36,2.3,3.29c0.79,0.79,1.72,1.44,2.73,1.91c2.14,0.91,4.53,1.04,6.75,0.37
			C72.01,33.02,69.98,32.02,68.38,30.5L68.38,30.5z M68.38,30.5"/>
		<path style="clip-path:url(#SVGID_00000157288787678886781170000015006457771921563537_);fill:#916330;" d="M60.77,24.68
			c-1.32-0.33-2.5-0.65-3.6,0.29c-1.06,0.93-1.41,2.44-0.86,3.75c1.04,2.25,5.59,2.69,6.07-0.23L60.77,24.68z M60.77,24.68"/>
		<path style="clip-path:url(#SVGID_00000157288787678886781170000015006457771921563537_);fill:#0995CC;" d="M60.84,59.43
			l0.22,0.23c-1.66,3.05-3.05,6.24-4.16,9.54c0,0-1.81,4.78-3.17,9.96c-7.94,30-10.82,83.31-10.82,83.31
			c-0.34,6.26-1.92,22.91-2.29,33.87l4.55,0.39c4.73-14.71,10.33-38.54,14.06-56.16c5.63-26.64,9.03-53.71,10.16-80.91L60.84,59.43z
			 M60.84,59.43"/>
		<path style="clip-path:url(#SVGID_00000157288787678886781170000015006457771921563537_);fill:#11A3EB;" d="M73.59,66.47
			c-0.35-2.25-0.71-4.55-1.05-6.83h-7.5c-0.82,3.38-1.3,6.82-1.44,10.3c-0.81,20.54,11.33,27.17,14.87,46.93
			c1.62,9.09-0.98,7.71-2.85,37.81c-0.82,13.28-3.2,34.6-3.22,41.78l4.6,0.27c3.07-7.68,9.35-29.2,13.14-42.91
			c5.9-21.34,7.87-26.84,6.94-34.17c-0.46-3.7-1.38-7.19-8.63-22.89C84.11,87.37,79.17,77.25,73.59,66.47L73.59,66.47z M73.59,66.47
			"/>
		<path style="clip-path:url(#SVGID_00000157288787678886781170000015006457771921563537_);fill:#74C6D1;" d="M67.33,38.84
			l6.52,20.79H71.8c0,0-9.71-13.84-4.5-20.59"/>
		<path style="clip-path:url(#SVGID_00000157288787678886781170000015006457771921563537_);fill:#81D1E0;" d="M98.31,48.82
			L84.06,60.93c-1.7-4.25-9.67-23.43-14.09-23.43c-0.82-0.02-1.63,0.23-2.31,0.7c-0.5,0.41-1.62,1.59-1.23,5.36
			c0.58,5.59,3.75,10.77,6.62,14.91c7.3,10.63,8.11,12.68,10.28,12.6c1.71-0.07,2.9-1.4,7.34-7.59c3.46-4.84,6.32-9,8.51-12.32
			C98.9,50.37,98.6,49.6,98.31,48.82L98.31,48.82z M98.31,48.82"/>
		<path style="clip-path:url(#SVGID_00000157288787678886781170000015006457771921563537_);fill:#A55316;" d="M154.67,19.56
			c-0.06,7.5-0.11,15.05,1.59,22.34c1.7,7.28,5.34,14.36,11.38,18.8c1.74,1.37,3.8,2.27,6,2.61c2.21,0.31,4.44-0.51,5.92-2.19
			c1.16-1.45,1.5-3.39,1.7-5.25c0.75-6.08,1.11-12.3-0.12-18.31c-1.23-6-4.19-11.82-9.08-15.53c-4.88-3.7-11.83-4.94-17.32-2.2"/>
		<path style="clip-path:url(#SVGID_00000157288787678886781170000015006457771921563537_);fill:#EDCB9D;" d="M166.35,38.54
			c-0.05-0.67-0.33-0.7-0.92-2.5c-0.59-1.81-0.7-2.59-1.1-2.63c-0.2,0-0.53,0.15-1.03,1.21c-6.99,12.16-11.75,20.67-12.68,22.93
			c-0.35,0.92-0.97,1.7-1.79,2.25c-0.88,0.45-1.86,0.65-2.85,0.6l-17.84,0.66c-3,0.11-6.44,0.39-8.37,2.73
			c-0.63,0.75-1,1.97-0.31,2.67c0.57,0.45,1.35,0.52,1.99,0.17c0.61-0.34,1.2-0.74,1.75-1.18c2.34-1.56,5.42-1.24,8.25-0.91
			c4.77,0.54,9.56,0.88,14.36,1.04c1.58,0.05,3.23,0.06,4.61-0.68c1.25-0.82,2.27-1.93,3-3.23l6.64-9.89
			c1.81-2.59,3.46-5.28,4.92-8.08C165.89,42.11,166.36,40.34,166.35,38.54L166.35,38.54z M166.35,38.54"/>
		<path style="clip-path:url(#SVGID_00000157288787678886781170000015006457771921563537_);fill:#BF5F1F;" d="M180.65,8.3
			c-3.14,0.08-6.19,1.12-8.72,3c-5.04,3.89-7.09,11.14-5.25,18.43l0.53-2.73c-0.8,8.84,0.12,17.76,2.74,26.25
			c1.07,3.46,1.57,7.7,4.3,8.59c2.84,0.93,6.19-2.17,7.19-3.1c9.54-8.84,10.33-28.38,3.56-43.04
			C183.8,13.09,182.34,10.62,180.65,8.3L180.65,8.3z M180.65,8.3"/>
		<path style="clip-path:url(#SVGID_00000157288787678886781170000015006457771921563537_);fill:#EDCB9D;" d="M167.79,28.43h-3.22
			v0.31l0.48,5.06l3.11-0.18L167.79,28.43z M167.79,28.43"/>
		<path style="clip-path:url(#SVGID_00000157288787678886781170000015006457771921563537_);fill:#EDCB9D;" d="M172.75,13.94
			c-0.22-0.41-3-5.17-8.62-5.89c-2.08-0.35-4.21-0.01-6.08,0.96c-4.5,2.56-6.07,9.36-4.01,14.45c0.14,0.34,2.39,5.64,7.86,6.97
			c4.77,1.34,9.75-1.26,11.38-5.93C174.61,21.05,174.42,17.22,172.75,13.94L172.75,13.94z M172.75,13.94"/>
		<path style="clip-path:url(#SVGID_00000157288787678886781170000015006457771921563537_);fill:#EDCB9D;" d="M171.65,24.8
			c1.56,0.75,3.33,1.45,5,0.95c1.54-0.5,2.65-1.87,2.79-3.48c0.09-1.62-0.73-3.15-2.12-3.97c-1.4-0.78-3.1-0.78-4.5,0
			c-1.39,0.82-2.3,2.26-2.45,3.86c-0.08,0.63,0.03,1.28,0.31,1.85c0.3,0.57,0.86,0.96,1.5,1.03"/>
		<path style="clip-path:url(#SVGID_00000157288787678886781170000015006457771921563537_);fill:#BF5F1F;" d="M187.96,28.5
			c-0.89-13.01-7.09-23.36-15.71-25.9c-3.78-1.13-7.85-0.86-11.45,0.75c-6.75,3.25-10.06,11.48-8.86,12.64
			c0.55,0.54,2.25-0.38,3.54-1.05c2.19-1.22,3.91-3.13,4.91-5.42c3.35,8.16,6.79,10.32,9.38,10.7c5.19,0.75,8.93-4.27,12.99-2.71
			C184.99,18.34,187.1,21.09,187.96,28.5L187.96,28.5z M187.96,28.5"/>
		<path style="clip-path:url(#SVGID_00000157288787678886781170000015006457771921563537_);fill:#EF832B;" d="M170.34,33.86
			c-0.09-0.14-0.2-0.28-0.32-0.4c-0.3-0.29-0.93-0.69-3.38-0.49c-0.75,0.07-1.5,0.18-2.25,0.32c-1.36,4.16-2.36,7.33-2.84,8.84
			c-0.15,0.56-0.15,1.15,0,1.71c0.12,0.58,0.57,1.04,1.15,1.16c0.43,0.05,0.88-0.16,1.29,0c0.65,0.2,0.8,1.03,0.83,1.71
			c0.11,2.34,0.23,4.69,0.34,7.03l8.33-1.13c0.06-1.39,0.11-3.38,0-5.76c-0.03-2.11-0.23-4.22-0.59-6.3
			C172.42,38.18,171.55,35.93,170.34,33.86L170.34,33.86z M170.34,33.86"/>
		<path style="clip-path:url(#SVGID_00000157288787678886781170000015006457771921563537_);fill:#C6D92F;" d="M178.68,82.22
			c-1.89-9.99-4.73-19.77-8.5-29.21l-5.02,0.66c-3.62,20.53-4.55,41.43-2.77,62.2c0.58,6.69,1.41,13.07,2.44,19.1
			c4.85-2.47,8.99-6.12,12.06-10.61C184.33,113.25,181.99,99.79,178.68,82.22L178.68,82.22z M178.68,82.22"/>
		<path style="clip-path:url(#SVGID_00000157288787678886781170000015006457771921563537_);fill:#B7C92F;" d="M164.84,135
			l-1.69-11.66c-0.15-7.97-0.12-16.26,0.16-24.85c0.48-15.07,1.66-30.12,3.55-45.08c5.82,21.73,11.65,43.46,17.47,65.19
			c-3.98,4.63-8.49,8.79-13.43,12.38C168.85,132.48,166.8,133.81,164.84,135L164.84,135z M164.84,135"/>
		<path style="clip-path:url(#SVGID_00000157288787678886781170000015006457771921563537_);fill:#C6D92F;" d="M166.86,53.39
			c-1.12,12.79-2.33,32.85-0.88,52.8c0.32,6.27,2.05,12.39,5.06,17.89c3.8,6.57,9.8,11.57,16.95,14.11
			c7.13,2.5,14.84,2.88,22.18,1.1c-14.44-27.93-26.7-56.93-36.68-86.75"/>
		<path style="clip-path:url(#SVGID_00000157288787678886781170000015006457771921563537_);fill:#EDCB9D;" d="M169.33,33.93
			c-1.07,0.52-1.41,2.08-1.43,2.92c-0.07,2.25,1.92,3.95,2.86,4.78c3.81,3.46,7.43,7.12,10.86,10.96
			c-3.92,9.8-7.26,16.11-9.99,20.42c-1.07,1.69-2.8,5.4-2.33,8.93c0.18,1.29,1.16,2.8,2.41,2.45c1.25-0.35,1.3-1.93,1.34-3.16
			c0.13-3.61,2.18-6.47,5.3-12.32c2.25-4.18,2.75-3.5,6.18-9.52c2.53-4.45,3.11-6.32,2.78-8.25c-0.36-2.07-1.59-3.32-3.83-5.54
			C172.5,34.72,170.71,33.25,169.33,33.93L169.33,33.93z M169.33,33.93"/>
	</g>
</g>
</svg>
