<svg width="38" height="48" viewBox="0 0 38 48" fill="none" xmlns="http://www.w3.org/2000/svg">
<path d="M34.0045 24.3705C34.004 21.2576 33.1345 18.2066 31.494 15.5611C29.8534 12.9156 27.507 10.7806 24.7188 9.39639C21.9305 8.0122 18.8113 7.43382 15.7122 7.72635C12.613 8.01888 9.65711 9.17072 7.17715 11.0522C4.6972 12.9337 2.79169 15.47 1.67514 18.3758C0.558593 21.2816 0.27535 24.4413 0.857299 27.4993C1.43925 30.5573 2.86329 33.3922 4.96909 35.6847C7.07488 37.9772 9.77884 39.6364 12.7765 40.4755C13.5048 40.6758 14.1255 41.1537 14.5055 41.8065L17.1285 46.3505L19.6985 41.8995C19.8914 41.568 20.1484 41.2784 20.4546 41.0475C20.7607 40.8165 21.1098 40.6489 21.4815 40.5545C25.0663 39.6243 28.2409 37.5306 30.5074 34.6015C32.7738 31.6725 34.0039 28.074 34.0045 24.3705Z" fill="#E68A00" stroke="white" stroke-miterlimit="10"/>
<path d="M36.7646 7.55048C36.7646 11.4165 33.6306 14.5505 29.7646 14.5505C25.8987 14.5505 22.7646 11.4165 22.7646 7.55048C22.7646 3.68448 25.8987 0.550476 29.7646 0.550476C33.6306 0.550476 36.7646 3.68448 36.7646 7.55048Z" fill="#E68A00" stroke="white"/>
<path d="M29.7646 14.5505C33.6306 14.5505 36.7646 11.4165 36.7646 7.55048C36.7646 3.68448 33.6306 0.550476 29.7646 0.550476C25.8987 0.550476 22.7646 3.68448 22.7646 7.55048C22.7646 11.4165 25.8987 14.5505 29.7646 14.5505Z" stroke="white"/>
<mask id="path-4-inside-1_137_5338" fill="white">
<path d="M33.2646 7.55048L32.6286 6.91448L30.2196 9.32348V4.05048H29.3106V9.32348L26.9006 6.91448L26.2646 7.55048L29.7646 11.0505L33.2646 7.55048Z"/>
</mask>
<path d="M33.2646 7.55048L32.6286 6.91448L30.2196 9.32348V4.05048H29.3106V9.32348L26.9006 6.91448L26.2646 7.55048L29.7646 11.0505L33.2646 7.55048Z" fill="white"/>
<path d="M33.2646 7.55048L33.9718 8.25758L34.6789 7.55048L33.9718 6.84337L33.2646 7.55048ZM32.6286 6.91448L33.3358 6.20737L32.6286 5.50026L31.9215 6.20737L32.6286 6.91448ZM30.2196 9.32348H29.2196V11.7377L30.9268 10.0306L30.2196 9.32348ZM30.2196 4.05048H31.2196V3.05048H30.2196V4.05048ZM29.3106 4.05048V3.05048L28.3106 3.05048V4.05048H29.3106ZM29.3106 9.32348L28.6037 10.0307L30.3106 11.737V9.32348H29.3106ZM26.9006 6.91448L27.6076 6.20722L26.9005 5.50041L26.1935 6.20737L26.9006 6.91448ZM26.2646 7.55048L25.5575 6.84337L24.8504 7.55048L25.5575 8.25758L26.2646 7.55048ZM29.7646 11.0505L29.0575 11.7576L29.7646 12.4647L30.4718 11.7576L29.7646 11.0505ZM33.9718 6.84337L33.3358 6.20737L31.9215 7.62158L32.5575 8.25758L33.9718 6.84337ZM31.9215 6.20737L29.5125 8.61637L30.9268 10.0306L33.3358 7.62158L31.9215 6.20737ZM31.2196 9.32348V4.05048H29.2196V9.32348H31.2196ZM30.2196 3.05048H29.3106V5.05048H30.2196V3.05048ZM28.3106 4.05048V9.32348H30.3106V4.05048H28.3106ZM30.0176 8.61622L27.6076 6.20722L26.1937 7.62173L28.6037 10.0307L30.0176 8.61622ZM26.1935 6.20737L25.5575 6.84337L26.9718 8.25758L27.6078 7.62158L26.1935 6.20737ZM25.5575 8.25758L29.0575 11.7576L30.4718 10.3434L26.9718 6.84337L25.5575 8.25758ZM30.4718 11.7576L33.9718 8.25758L32.5575 6.84337L29.0575 10.3434L30.4718 11.7576Z" fill="white" mask="url(#path-4-inside-1_137_5338)"/>
</svg>
