<svg width="33" height="33" viewBox="0 0 33 33" fill="none" xmlns="http://www.w3.org/2000/svg">
<rect width="33" height="33" rx="16.5" fill="#74C2F8"/>
<path d="M17.4382 9.93729C17.4383 9.81418 17.4141 9.6922 17.367 9.57844C17.3199 9.46468 17.2511 9.36135 17.164 9.27429C17.077 9.18724 16.9736 9.11816 16.8599 9.0711C16.7461 9.02404 16.6241 8.99988 16.501 9C16.3779 8.99988 16.2559 9.02404 16.1421 9.0711C16.0283 9.11816 15.925 9.18724 15.8379 9.27429C15.7509 9.36135 15.6818 9.46468 15.6347 9.57844C15.5877 9.6922 15.5636 9.81418 15.5637 9.93729V17.0509L13.4124 14.9007C13.3253 14.8136 13.2219 14.7446 13.1081 14.6974C12.9942 14.6503 12.8724 14.626 12.7492 14.626C12.626 14.626 12.5039 14.6503 12.3901 14.6974C12.2763 14.7446 12.1728 14.8136 12.0857 14.9007C11.9986 14.9879 11.9294 15.0913 11.8823 15.2051C11.8351 15.3189 11.8109 15.441 11.8109 15.5642C11.8109 15.6874 11.8351 15.8093 11.8823 15.9231C11.9294 16.037 11.9986 16.1404 12.0857 16.2275L15.8358 19.9782C16.012 20.1539 16.2508 20.2526 16.4997 20.2526C16.7486 20.2526 16.9872 20.1539 17.1634 19.9782L20.9134 16.2275C21.0005 16.1404 21.0697 16.037 21.1168 15.9231C21.164 15.8093 21.1883 15.6874 21.1883 15.5642C21.1883 15.441 21.164 15.3189 21.1168 15.2051C21.0697 15.0913 21.0005 14.9879 20.9134 14.9007C20.7373 14.7248 20.4987 14.6259 20.2497 14.6259C20.0008 14.6259 19.7619 14.7248 19.5858 14.9007L17.4382 17.0509V9.93729ZM10.8745 19.3121C10.3773 19.3126 9.90075 19.5104 9.54928 19.862C9.1978 20.2136 9.00024 20.6903 9 21.1875V22.1247C9.00024 22.6218 9.1978 23.0986 9.54928 23.4502C9.90075 23.8018 10.3773 23.9995 10.8745 24H22.1255C22.6227 23.9995 23.0993 23.8018 23.4507 23.4502C23.8022 23.0986 23.9998 22.6218 24 22.1247V21.1875C23.9998 20.6903 23.8022 20.2136 23.4507 19.862C23.0993 19.5104 22.6227 19.3126 22.1255 19.3121H19.1518L17.8242 20.6388C17.6502 20.8131 17.4434 20.9514 17.2159 21.0457C16.9884 21.1401 16.7447 21.1886 16.4984 21.1886C16.2521 21.1886 16.0081 21.1401 15.7806 21.0457C15.5531 20.9514 15.3463 20.8131 15.1723 20.6388L13.8482 19.3121H10.8745ZM21.6568 22.3594C21.5644 22.3596 21.4731 22.3415 21.3878 22.3061C21.3024 22.2708 21.2249 22.219 21.1596 22.1536C21.0943 22.0883 21.0426 22.0106 21.0074 21.9253C20.9722 21.8399 20.9542 21.7484 20.9545 21.6561C20.9542 21.5637 20.9722 21.4723 21.0074 21.3869C21.0426 21.3015 21.0943 21.2238 21.1596 21.1585C21.2249 21.0932 21.3024 21.0413 21.3878 21.006C21.4731 20.9707 21.5644 20.9526 21.6568 20.9527C21.7492 20.9526 21.8408 20.9707 21.9262 21.006C22.0116 21.0413 22.0893 21.0932 22.1546 21.1585C22.2199 21.2238 22.2717 21.3014 22.307 21.3868C22.3423 21.4722 22.3603 21.5637 22.3602 21.6561C22.3603 21.7487 22.3423 21.8405 22.3068 21.926C22.2713 22.0116 22.2191 22.0892 22.1535 22.1546C22.0879 22.22 22.01 22.2718 21.9243 22.3069C21.8386 22.3421 21.7468 22.3599 21.6542 22.3594H21.6568Z" fill="white"/>
</svg>
