<svg width="16" height="13" viewBox="0 0 16 13" fill="none" xmlns="http://www.w3.org/2000/svg">
<path d="M7.75391 3.65234C7.83594 3.65234 7.91797 3.625 8 3.625C9.44922 3.625 10.625 4.80078 10.625 6.25C10.625 7.69922 9.44922 8.875 8 8.875C6.52344 8.875 5.375 7.69922 5.375 6.25C5.375 6.19531 5.375 6.11328 5.375 6.03125C5.62109 6.16797 5.92188 6.25 6.25 6.25C7.20703 6.25 8 5.48438 8 4.5C8 4.19922 7.89062 3.89844 7.75391 3.65234ZM13.25 2.33984C14.5352 3.51562 15.3828 4.9375 15.793 5.92188C15.875 6.14062 15.875 6.38672 15.793 6.60547C15.3828 7.5625 14.5352 8.98438 13.25 10.1875C11.9648 11.3906 10.1875 12.375 8 12.375C5.78516 12.375 4.00781 11.3906 2.72266 10.1875C1.4375 8.98438 0.589844 7.5625 0.179688 6.60547C0.0976562 6.38672 0.0976562 6.14062 0.179688 5.92188C0.589844 4.9375 1.4375 3.51562 2.72266 2.33984C4.00781 1.13672 5.78516 0.125 8 0.125C10.1875 0.125 11.9648 1.13672 13.25 2.33984ZM8 2.3125C5.8125 2.3125 4.0625 4.08984 4.0625 6.25C4.0625 8.4375 5.8125 10.1875 8 10.1875C10.1602 10.1875 11.9375 8.4375 11.9375 6.25C11.9375 4.08984 10.1602 2.3125 8 2.3125Z" fill="#676767"/>
</svg>
