<svg width="25" height="22" viewBox="0 0 25 22" fill="none" xmlns="http://www.w3.org/2000/svg">
<path d="M4.5 21.5C1.96875 21.5 0 19.4844 0 17V5C0 2.51562 1.96875 0.5 4.5 0.5H7.5C8.29688 0.5 9 1.20312 9 2C9 2.84375 8.29688 3.5 7.5 3.5H4.5C3.65625 3.5 3 4.20312 3 5V17C3 17.8438 3.65625 18.5 4.5 18.5H7.5C8.29688 18.5 9 19.2031 9 20C9 20.8438 8.29688 21.5 7.5 21.5H4.5ZM23.625 10.2031C24.0938 10.625 24.0938 11.4219 23.625 11.7969L16.875 18.1719C16.5469 18.5 16.0781 18.5469 15.6562 18.4062C15.2344 18.2188 15 17.7969 15 17.375V14H9C8.15625 14 7.5 13.3438 7.5 12.5V9.5C7.5 8.70312 8.15625 8 9 8H15V4.625C15 4.20312 15.2344 3.78125 15.6562 3.59375C16.0781 3.45312 16.5469 3.5 16.875 3.82812L23.625 10.2031Z" fill="#9C9494"/>
</svg>
