<svg width="47" height="37" viewBox="0 0 47 37" fill="none" xmlns="http://www.w3.org/2000/svg">
<path d="M12.924 18.887H1.685C1.46361 18.8874 1.24432 18.8441 1.03971 18.7596C0.835094 18.675 0.649193 18.5509 0.492648 18.3944C0.336102 18.2378 0.211983 18.0519 0.127444 17.8473C0.0429049 17.6427 -0.000392538 17.4234 2.68143e-06 17.202V5.96302C-0.000392538 5.74163 0.0429049 5.52235 0.127444 5.31774C0.211983 5.11312 0.336102 4.92721 0.492648 4.77066C0.649193 4.61412 0.835094 4.49001 1.03971 4.40547C1.24432 4.32094 1.46361 4.27762 1.685 4.27802H12.924C13.1454 4.27762 13.3647 4.32094 13.5693 4.40547C13.7739 4.49001 13.9598 4.61412 14.1164 4.77066C14.2729 4.92721 14.397 5.11312 14.4815 5.31774C14.5661 5.52235 14.6094 5.74163 14.609 5.96302V17.202C14.6094 17.4234 14.5661 17.6427 14.4815 17.8473C14.397 18.0519 14.2729 18.2378 14.1164 18.3944C13.9598 18.5509 13.7739 18.675 13.5693 18.7596C13.3647 18.8441 13.1454 18.8874 12.924 18.887Z" fill="#F79420"/>
<path d="M30.2539 6.313C30.2539 1.75 32.5479 0 35.3869 0C36.8163 0.0709735 38.1593 0.705753 39.1215 1.76521C40.0836 2.82467 40.5865 4.22238 40.5199 5.65199H40.9609V6.313H30.2539Z" fill="#808185"/>
<path d="M16.5269 19.159L28.7119 20.935L25.7439 22.529H22.2179L19.1459 27.766C19.0206 27.9463 18.9448 28.1563 18.9259 28.375C18.9354 28.4692 18.9707 28.559 19.0278 28.6345C19.085 28.71 19.1618 28.7683 19.2499 28.803H19.7429" fill="#808185"/>
<path d="M31.0708 6.31299C31.0708 6.31299 31.0318 9.85199 35.2838 9.85199C39.5358 9.85199 39.2758 6.31299 39.2758 6.31299" fill="#FDF4F8"/>
<path d="M27.1948 28.803C28.1055 28.6718 28.9793 28.3541 29.7617 27.87C30.8541 27.1187 31.9056 26.3095 32.9117 25.446C33.9461 24.4856 34.8839 23.4262 35.7118 22.283C36.1144 21.2072 36.3419 20.0738 36.3857 18.926V12.432C36.5569 12.126 36.7659 11.8428 37.0078 11.589C37.2823 11.2731 37.6425 11.0435 38.0448 10.928C38.2155 10.8792 38.3969 10.8828 38.5655 10.9382C38.7342 10.9937 38.8823 11.0985 38.9908 11.239C39.0726 11.3446 39.132 11.4657 39.1653 11.595C39.1987 11.7243 39.2053 11.8591 39.1848 11.991C39.1745 12.2397 39.0887 12.4793 38.9388 12.678C38.8576 12.7602 38.7526 12.8147 38.6388 12.834L40.4668 21.324C40.6094 22.141 40.9573 22.9083 41.4778 23.554C42.4888 24.513 45.5608 26.717 45.8718 27.015C46.0762 27.2251 46.2349 27.4751 46.3382 27.7494C46.4414 28.0236 46.4869 28.3163 46.4717 28.609C46.5413 29.2601 46.4707 29.9185 46.2647 30.54C46.1074 30.7216 45.9131 30.8675 45.6948 30.968H3.26575C3.13157 30.9673 3.00066 30.9265 2.88974 30.851C2.65674 30.695 2.28076 30.384 2.28076 30.06C2.30263 29.426 2.51138 28.8127 2.88077 28.297C3.32177 27.61 6.89874 23.786 6.89874 23.786C6.89874 23.786 7.29877 23.306 7.29877 23.06C7.32221 22.7104 7.22631 22.3631 7.02676 22.075C6.64109 21.7031 6.34052 21.2521 6.14575 20.753C6.08075 20.546 5.89977 19.159 6.97577 19.146C8.05177 19.133 16.5157 19.146 16.5157 19.146" fill="#808185"/>
<path d="M34.4929 30.967C34.4929 30.967 33.0539 36.554 38.7059 36.554C44.1759 36.554 45.6799 30.967 45.6799 30.967" fill="#231F20"/>
<path d="M37.6301 30.967C37.6301 30.967 37.0211 33.326 39.4061 33.326C40.083 33.2941 40.7323 33.0487 41.2611 32.6249C41.7898 32.2011 42.1707 31.6207 42.3491 30.967" fill="white"/>
<path d="M14.8832 30.967C14.8832 30.967 13.5092 35.685 9.51721 36.204C8.99873 36.2919 8.47481 36.344 7.94918 36.36C7.3816 36.3663 6.81549 36.3011 6.26419 36.166C3.10119 35.453 3.7362 30.966 3.7362 30.966" fill="#231F20"/>
<path d="M11.7048 30.903C11.7048 30.903 11.1348 32.873 9.47481 33.081C9.26046 33.1168 9.04402 33.1385 8.82683 33.146C8.59119 33.1486 8.3561 33.1224 8.12682 33.068C6.80482 32.768 7.07683 30.903 7.07683 30.903" fill="white"/>
<path d="M34.4541 9.81303C34.3541 10.319 32.9111 11.213 32.9111 11.213C32.9111 11.213 31.705 11.861 31.7701 12.289C31.8351 12.717 32.4051 12.73 32.4051 12.73L37.0051 11.576L36.5901 12.133C36.4489 12.3197 36.3717 12.547 36.3701 12.781V13.581L30.9261 15.499C30.4957 15.6315 30.0526 15.7183 29.6041 15.758C29.3764 15.7447 29.1527 15.6919 28.9431 15.602C28.8546 15.5711 28.778 15.5131 28.7242 15.4363C28.6704 15.3595 28.642 15.2678 28.6431 15.174L28.7731 12.594C27.8137 12.686 26.8891 13.0011 26.0731 13.514C25.5682 13.9839 25.2467 14.618 25.1661 15.303C25.1599 15.5821 25.2267 15.8578 25.3601 16.103C25.4594 16.2846 25.6138 16.43 25.8011 16.518C26.4621 16.842 28.3421 17.788 28.7561 18.048C29.4302 18.4569 30.0754 18.9116 30.6871 19.409C30.9026 19.6103 31.0721 19.8558 31.1839 20.1287C31.2958 20.4016 31.3473 20.6954 31.3351 20.99C31.3221 21.59 30.7261 21.871 30.4921 22.157C30.2721 22.403 26.2401 25.087 25.3331 25.683C25.2027 25.7753 25.0991 25.9006 25.0331 26.046C24.9031 26.37 24.7871 26.94 25.3701 27.146C26.0131 27.3832 26.6191 27.7104 27.1701 28.118C27.231 28.1943 27.2753 28.2826 27.3001 28.377C27.3001 28.39 27.3131 28.416 27.3131 28.429C27.3073 28.5564 27.2618 28.6788 27.1831 28.779C27.1831 28.779 19.8831 28.792 19.7301 28.779C19.5771 28.766 19.4841 28.559 19.4841 28.351C19.4865 28.2128 19.5175 28.0766 19.5751 27.951C19.8562 27.3189 20.306 26.7764 20.8751 26.383C21.2641 26.083 25.8011 22.416 26.1751 22.17C26.5491 21.924 26.8621 21.561 26.8491 21.314C26.8361 21.067 26.4341 20.744 25.9291 20.575C24.2865 20.3056 22.6279 20.1453 20.9641 20.095C19.5896 20.0665 18.2269 19.835 16.9201 19.408C16.564 19.2203 16.2546 18.9552 16.0146 18.632C15.7745 18.3089 15.61 17.9361 15.5331 17.541C15.4551 16.932 15.4941 16.241 17.2701 14.119C19.0461 11.997 23.1421 10.036 25.5271 9.01204C27.3738 8.29016 29.2814 7.73494 31.2271 7.35303" fill="#2E3191"/>
</svg>
