<?xml version="1.0" encoding="UTF-8"?><svg id="Layer_1" xmlns="http://www.w3.org/2000/svg" xmlns:xlink="http://www.w3.org/1999/xlink" viewBox="0 0 250 250"><defs><style>.cls-1{fill:#e68a00;}.cls-2{fill:#fff;}.cls-3{letter-spacing:.03em;}.cls-4{letter-spacing:.04em;}.cls-5,.cls-6{fill:gray;}.cls-7{letter-spacing:.04em;}.cls-8{fill:#b2d235;}.cls-9{fill:url(#linear-gradient);}.cls-6{font-family:Stenciletta, Stenciletta;font-size:64.3px;stroke:gray;stroke-miterlimit:10;stroke-width:2px;}</style><linearGradient id="linear-gradient" x1="39.32" y1="131.69" x2="174.26" y2="131.69" gradientUnits="userSpaceOnUse"><stop offset="0" stop-color="#d4ecfb"/><stop offset=".12" stop-color="#c1d6e4"/><stop offset=".12" stop-color="#c1d6e4"/><stop offset=".27" stop-color="#bdd0dd"/><stop offset=".47" stop-color="#b1c1cc"/><stop offset=".7" stop-color="#9fa9b0"/><stop offset=".95" stop-color="#858788"/><stop offset="1" stop-color="gray"/></linearGradient></defs><text class="cls-6" transform="translate(65.58 148.79) scale(1.07 1)"><tspan class="cls-7" x="0" y="0">D</tspan><tspan class="cls-3" x="34.08" y="0">B</tspan><tspan class="cls-4" x="67.07" y="0">X</tspan></text><circle class="cls-1" cx="148.73" cy="89.75" r="5"/><path class="cls-1" d="M156.81,61.09c-.93-1.5-2.27-2.72-3.85-3.5-1.58-.79-3.36-1.12-5.12-.95s-3.44.82-4.85,1.89c-1.41,1.07-2.49,2.51-3.13,4.16-.63,1.65-.8,3.45-.46,5.18.33,1.74,1.14,3.35,2.34,4.65,1.2,1.3,2.73,2.25,4.44,2.72.41.11.77.39.98.76l1.49,2.58,1.46-2.53c.11-.19.26-.35.43-.48.17-.13.37-.23.58-.28,2.04-.53,3.84-1.72,5.13-3.38,1.29-1.66,1.99-3.71,1.99-5.81,0-1.77-.49-3.5-1.43-5ZM148.73,69.9c-2.3,0-4.16-1.86-4.16-4.16s1.86-4.16,4.16-4.16,4.16,1.86,4.16,4.16-1.86,4.16-4.16,4.16Z"/><circle class="cls-8" cx="59.58" cy="96.26" r="5"/><path class="cls-5" d="M141.51,85.73h-58.79c-6.83.12-13.07,1.33-18.65,3.6,2.27,1.48,3.77,4.03,3.77,6.93,0,.07,0,.13-.01.2,4.47-1.71,9.48-2.64,14.95-2.73h58.7c-.65-1.18-1.03-2.54-1.03-3.98s.38-2.83,1.05-4.02Z"/><circle class="cls-8" cx="148.73" cy="183.53" r="9.5"/><path class="cls-5" d="M206.48,162.57c-4.12-4.02-10.61-4.8-17.89-4.84.62,1.16.98,2.48.98,3.89,0,1.5-.41,2.9-1.1,4.11,5.47.02,10.3.49,12.43,2.57.6.58,1.39,1.65,1.39,4.23,0,3.21-1.08,4.26-1.44,4.61-2.68,2.62-10.12,2.46-17.32,2.3-1.94-.04-3.92-.08-5.91-.08h-16.22c.43,1.31.68,2.71.68,4.17,0,1.33-.2,2.61-.57,3.83h16.1c1.93,0,3.86.04,5.74.08,1.81.04,3.6.08,5.34.08,7.19,0,13.66-.66,17.75-4.66,2.55-2.49,3.84-5.97,3.84-10.33s-1.28-7.49-3.8-9.95Z"/><path class="cls-2" d="M154.69,179.33c.17.17.26.39.26.63s-.09.46-.26.63l-7.13,7.13c-.17.17-.39.26-.63.26s-.46-.09-.63-.26l-3.57-3.56c-.15-.17-.23-.39-.23-.62,0-.23.1-.44.26-.61.16-.16.38-.25.6-.26.23,0,.45.07.62.23l2.91,2.93,6.52-6.5c.08-.08.18-.15.29-.19.11-.04.22-.07.34-.07s.23.02.34.07c.11.04.21.11.29.19h0Z"/><path class="cls-9" d="M173.03,161.62c0-1.33.32-2.57.88-3.69h-91.05c-24.42-.42-35.54-16.94-35.54-32.1,0-8.45,3.26-16.25,8.97-21.99-2.58-1.12-4.47-3.52-4.89-6.4-7.67,7.28-12.08,17.39-12.08,28.38,0,18.95,13.58,39.59,43.47,40.1h91.47c-.77-1.26-1.23-2.73-1.23-4.31Z"/><circle class="cls-1" cx="181.3" cy="161.62" r="5"/></svg>