<svg width="14" height="13" viewBox="0 0 14 13" fill="none" xmlns="http://www.w3.org/2000/svg">
<path d="M7.18104 0.388367C8.42034 0.388367 9.6318 0.755861 10.6622 1.44438C11.6927 2.13289 12.4958 3.11151 12.9701 4.25647C13.4443 5.40143 13.5684 6.66132 13.3266 7.8768C13.0849 9.09229 12.4881 10.2088 11.6118 11.0851C10.7355 11.9614 9.61896 12.5582 8.40347 12.8C7.18799 13.0417 5.92811 12.9177 4.78314 12.4434C3.63818 11.9691 2.65957 11.166 1.97105 10.1356C1.28253 9.10513 0.915039 7.89366 0.915039 6.65437C0.915039 4.99252 1.5752 3.39874 2.75031 2.22364C3.92541 1.04853 5.51919 0.388367 7.18104 0.388367Z" fill="#EEB678"/>
</svg>
