<svg width="38" height="48" viewBox="0 0 38 48" fill="none" xmlns="http://www.w3.org/2000/svg">
<path d="M34.0953 24.47C34.0948 21.3571 33.2253 18.3062 31.5848 15.6607C29.9442 13.0152 27.5978 10.8801 24.8096 9.49594C22.0214 8.11175 18.9021 7.53337 15.803 7.8259C12.7039 8.11843 9.74793 9.27027 7.26797 11.1517C4.78802 13.0332 2.88251 15.5696 1.76596 18.4753C0.649413 21.3811 0.36617 24.5408 0.948119 27.5988C1.53007 30.6569 2.95411 33.4917 5.05991 35.7842C7.1657 38.0768 9.86966 39.736 12.8673 40.575C13.5956 40.7753 14.2164 41.2532 14.5963 41.906L17.2193 46.45L19.7893 41.999C19.9822 41.6676 20.2392 41.3779 20.5454 41.147C20.8515 40.9161 21.2007 40.7485 21.5723 40.654C25.1571 39.7239 28.3317 37.6301 30.5982 34.7011C32.8646 31.7721 34.0947 28.1735 34.0953 24.47Z" fill="#E68A00" stroke="white" stroke-miterlimit="10"/>
<path d="M29.8555 15.15C33.9976 15.15 37.3555 11.7922 37.3555 7.65002C37.3555 3.50789 33.9976 0.150024 29.8555 0.150024C25.7133 0.150024 22.3555 3.50789 22.3555 7.65002C22.3555 11.7922 25.7133 15.15 29.8555 15.15Z" fill="#E68A00"/>
<path d="M29.8555 14.65C33.7215 14.65 36.8555 11.516 36.8555 7.65002C36.8555 3.78403 33.7215 0.650024 29.8555 0.650024C25.9895 0.650024 22.8555 3.78403 22.8555 7.65002C22.8555 11.516 25.9895 14.65 29.8555 14.65Z" stroke="white"/>
<path d="M33.3555 7.65002L32.7195 7.01402L30.3105 9.42302V4.15002H29.4015V9.42302L26.9915 7.01402L26.3555 7.65002L29.8555 11.15L33.3555 7.65002Z" fill="white"/>
<path d="M18.5055 31.15V28.735H12.9555V27.7L18.2205 20.41H19.8555V27.55H21.3555V28.735H19.8555V31.15H18.5055ZM14.5305 27.55H18.5655V21.835L14.5305 27.55Z" fill="white"/>
</svg>
