<svg width="40" height="41" viewBox="0 0 40 41" fill="none" xmlns="http://www.w3.org/2000/svg">
<path d="M39.9352 17.7181C39.9346 14.6052 39.0652 11.5543 37.4246 8.90878C35.7841 6.26327 33.4376 4.12824 30.6494 2.74405C27.8612 1.35986 24.7419 0.781474 21.6428 1.07401C18.5437 1.36654 15.5878 2.51838 13.1078 4.39984C10.6279 6.28131 8.72235 8.81769 7.6058 11.7234C6.48926 14.6292 6.20601 17.7889 6.78796 20.847C7.36991 23.905 8.79395 26.7398 10.8997 29.0323C13.0055 31.3249 15.7095 32.9841 18.7072 33.8232C19.4355 34.0235 20.0562 34.5013 20.4362 35.1541L23.0592 39.6982L25.6292 35.2471C25.8221 34.9157 26.0791 34.6261 26.3852 34.3951C26.6914 34.1642 27.0405 33.9966 27.4122 33.9021C30.997 32.972 34.1716 30.8782 36.438 27.9492C38.7045 25.0202 39.9345 21.4216 39.9352 17.7181Z" fill="#ACACAC" stroke="white" stroke-miterlimit="10"/>
<path d="M7.56543 23.3981C3.42329 23.3981 0.0654297 26.756 0.0654297 30.8981C0.0654297 35.0403 3.42329 38.3981 7.56543 38.3981C11.7076 38.3981 15.0654 35.0403 15.0654 30.8981C15.0654 26.756 11.7076 23.3981 7.56543 23.3981Z" fill="#ACACAC"/>
<path d="M7.56543 23C3.42329 23 0.0654297 26.3579 0.0654297 30.5C0.0654297 34.6421 3.42329 38 7.56543 38C11.7076 38 15.0654 34.6421 15.0654 30.5C15.0654 26.3579 11.7076 23 7.56543 23Z" stroke="white"/>
<path d="M4.19531 30.8981L4.83131 31.5341L7.24031 29.1251L7.24031 34.3981H8.14931V29.1251L10.5593 31.5341L11.1953 30.8981L7.69531 27.3981L4.19531 30.8981Z" fill="#676767"/>
<path d="M31.9839 11.8421C32.2244 12.0827 32.3595 12.409 32.3595 12.7491C32.3595 13.0893 32.2244 13.4155 31.9839 13.6561L21.7069 23.9331C21.4663 24.1736 21.1401 24.3087 20.7999 24.3087C20.4597 24.3087 20.1335 24.1736 19.8929 23.9331L14.7529 18.7961C14.5341 18.5516 14.4173 18.2326 14.4263 17.9047C14.4353 17.5767 14.5695 17.2647 14.8014 17.0325C15.0332 16.8004 15.3451 16.6659 15.6731 16.6565C16.001 16.6471 16.3202 16.7636 16.5649 16.9821L20.7589 21.2101L30.1589 11.8452C30.2778 11.7256 30.4191 11.6307 30.5747 11.566C30.7304 11.5012 30.8973 11.4679 31.0659 11.4679C31.2345 11.4679 31.4014 11.5012 31.5571 11.566C31.7127 11.6307 31.854 11.7256 31.9729 11.8452L31.9839 11.8421Z" fill="#676767"/>
</svg>
