<svg width="41" height="41" viewBox="0 0 41 41" fill="none" xmlns="http://www.w3.org/2000/svg">
<path d="M39.9996 17.3705C39.9991 14.2577 39.1296 11.2067 37.4891 8.56119C35.8485 5.91568 33.5021 3.78065 30.7139 2.39645C27.9257 1.01226 24.8064 0.433879 21.7073 0.72641C18.6082 1.01894 15.6522 2.17078 13.1723 4.05225C10.6923 5.93371 8.7868 8.4701 7.67026 11.3759C6.55371 14.2816 6.27047 17.4413 6.85242 20.4994C7.43437 23.5574 8.8584 26.3922 10.9642 28.6848C13.07 30.9773 15.774 32.6365 18.7716 33.4756C19.4999 33.6759 20.1207 34.1537 20.5006 34.8065L23.1236 39.3506L25.6936 34.8995C25.8865 34.5681 26.1435 34.2785 26.4497 34.0475C26.7558 33.8166 27.105 33.649 27.4766 33.5545C31.0614 32.6244 34.236 30.5306 36.5025 27.6016C38.7689 24.6726 39.999 21.074 39.9996 17.3705Z" fill="#E68A00" stroke="white" stroke-miterlimit="10"/>
<path d="M7.75977 23.0505C3.61763 23.0505 0.259766 26.4084 0.259766 30.5505C0.259766 34.6927 3.61763 38.0505 7.75977 38.0505C11.9019 38.0505 15.2598 34.6927 15.2598 30.5505C15.2598 26.4084 11.9019 23.0505 7.75977 23.0505Z" fill="#E68A00"/>
<path d="M7.75977 23.5505C3.89377 23.5505 0.759766 26.6845 0.759766 30.5505C0.759766 34.4165 3.89377 37.5505 7.75977 37.5505C11.6258 37.5505 14.7598 34.4165 14.7598 30.5505C14.7598 26.6845 11.6258 23.5505 7.75977 23.5505Z" stroke="white"/>
<path d="M4.25977 30.5505L4.89577 31.1865L7.30477 28.7775L7.30477 34.0505H8.21377V28.7775L10.6238 31.1865L11.2598 30.5505L7.75977 27.0505L4.25977 30.5505Z" fill="white"/>
</svg>
