<?xml version="1.0" encoding="utf-8"?>
<!-- Generator: Adobe Illustrator 26.3.1, SVG Export Plug-In . SVG Version: 6.00 Build 0)  -->
<svg version="1.1" id="Layer_1" xmlns="http://www.w3.org/2000/svg" xmlns:xlink="http://www.w3.org/1999/xlink" x="0px" y="0px"
	 viewBox="0 0 260.59 71.41" style="enable-background:new 0 0 260.59 71.41;" xml:space="preserve">
<style type="text/css">
	.st0{fill:#D4F4FC;}
	.st1{fill:#85D7E0;}
	.st2{clip-path:url(#SVGID_00000011020938395025288750000006561939308332842397_);fill:#D4F4FC;}
	.st3{fill:#1190D7;}
	.st4{fill:#11A3EB;}
	.st5{fill:#1CAF4D;}
	.st6{fill:#FFFFFF;}
	.st7{fill:#117AC7;}
	.st8{fill:none;stroke:#FFFFFF;stroke-width:1.1925;stroke-linecap:round;stroke-miterlimit:10;}
	.st9{fill:#FDB716;}
	.st10{clip-path:url(#SVGID_00000156566277520539252440000002125062649225761688_);fill:#F2CDC0;}
	.st11{clip-path:url(#SVGID_00000156566277520539252440000002125062649225761688_);fill:#11A3EB;}
	.st12{clip-path:url(#SVGID_00000156566277520539252440000002125062649225761688_);fill:#0794D3;}
	.st13{fill:#EF832B;}
	.st14{fill:#E05220;}
	.st15{clip-path:url(#SVGID_00000114788448741201548590000012898761028214584756_);fill:#F2CDC0;}
	.st16{clip-path:url(#SVGID_00000114788448741201548590000012898761028214584756_);fill:#11A3EB;}
	.st17{fill:#C1D046;}
	.st18{fill:none;stroke:#C1D046;stroke-width:0.6;stroke-linecap:round;stroke-miterlimit:10;}
	.st19{clip-path:url(#SVGID_00000103969511870287335020000011088612090772235178_);fill:#BAC435;}
	.st20{clip-path:url(#SVGID_00000103969511870287335020000011088612090772235178_);fill:#C1D046;}
	.st21{fill:#CC451B;}
	.st22{fill:#F2CDC0;}
</style>
<g>
	<path class="st0" d="M-1.45,95.01h262.38v3.59H-1.45V95.01z M-1.5,60.57h262.47v3.59H-1.5V60.57z M-1.56,26.14h262.57v3.58H-1.56
		V26.14z M-1.61-8.31h262.66v3.59H-1.61V-8.31z M244.81,81.46c0,2.46-1.45,4.7-3.81,6.31c-5.64,3.49-12.77,3.49-18.41,0
		c-2.35-1.61-3.82-3.85-3.82-6.31c0-2.47,1.46-4.7,3.82-6.32c5.65-3.48,12.77-3.48,18.41,0C243.36,76.75,244.81,78.99,244.81,81.46
		L244.81,81.46z M244.81,81.46"/>
	<path class="st0" d="M220.55,76.08c0.98-0.68,4.07-1.21,5.38-1.57c1.92-0.35,3.86-0.52,5.81-0.52c2.87,0,9.3,0.8,11.19,2.09
		c1.89,1.3,3.04,4.34,3.04,6.31c0,1.97-1.16,5.02-3.04,6.31c-1.88,1.29-8.29,2.09-11.13,2.09c-1.95,0-3.89-0.17-5.81-0.52
		c-1.31-0.36-4.4-0.9-5.38-1.57c-1.88-1.29-3.05-4.33-3.05-6.31C217.57,80.41,218.7,77.37,220.55,76.08L220.55,76.08z M220.55,76.08
		"/>
	<path class="st0" d="M218.58,77.01c0.75-0.51,5.44-0.91,6.42-1.18c2.24-0.26,4.49-0.39,6.75-0.39c2.15,0,11.75,0.6,13.16,1.57
		c1.41,0.98,2.3,4.83,2.3,6.31c0,1.48-0.88,5.34-2.3,6.3c-1.41,0.97-11.01,1.57-13.16,1.57c-2.26,0-4.51-0.13-6.75-0.38
		c-0.98-0.28-5.69-0.68-6.42-1.19c-1.41-0.96-2.28-4.83-2.28-6.3C216.29,81.84,217.17,77.98,218.58,77.01L218.58,77.01z
		 M218.58,77.01"/>
	<path class="st0" d="M216.58,77.95c0.49-0.34,6.81-0.61,7.46-0.79c0.65-0.18,7-0.26,7.69-0.26c1.43,0,14.21,0.41,15.14,1.05
		c0.94,0.64,1.5,5.32,1.5,6.3c0,0.98-0.59,5.66-1.5,6.3c-0.92,0.65-13.71,1.04-15.14,1.04c-0.69,0-7.09-0.09-7.69-0.25
		c-0.6-0.16-6.98-0.45-7.46-0.75c-0.94-0.64-1.5-5.32-1.5-6.31C215.08,83.3,215.63,78.6,216.58,77.95L216.58,77.95z M216.58,77.95"
		/>
	<path class="st0" d="M214.55,78.89c0.25-0.16,8.19-0.3,8.51-0.39c0.32-0.09,8.25-0.13,8.62-0.13c0.75,0,16.66,0.2,17.13,0.52
		c0.46,0.32,0.75,5.8,0.75,6.3c0,0.49-0.29,6-0.75,6.3c-0.46,0.3-16.41,0.52-17.13,0.52c-0.35,0-8.32-0.05-8.62-0.14
		c-0.3-0.09-8.25-0.22-8.51-0.39c-0.46-0.32-0.75-5.81-0.75-6.3C213.8,84.69,214.1,79.21,214.55,78.89L214.55,78.89z M119.16,84.56
		c0,2.47-1.46,4.7-3.81,6.32c-5.64,3.49-12.77,3.49-18.41,0c-2.36-1.61-3.81-3.85-3.81-6.32c0-2.46,1.46-4.7,3.81-6.31
		c5.64-3.49,12.77-3.49,18.41,0C117.7,79.86,119.16,82.09,119.16,84.56L119.16,84.56z M119.16,84.56"/>
	<path class="st0" d="M94.94,79.18c0.98-0.68,4.07-1.22,5.37-1.57c1.92-0.35,3.86-0.52,5.81-0.52c2.88,0,9.3,0.8,11.19,2.09
		c1.89,1.3,3.05,4.34,3.05,6.31c0,1.97-1.17,5.02-3.05,6.31c-1.88,1.29-8.31,2.09-11.19,2.09c-1.95,0-3.89-0.17-5.81-0.52
		c-1.3-0.36-4.39-0.9-5.37-1.57c-1.89-1.29-3.05-4.34-3.05-6.31C91.88,83.51,93.05,80.44,94.94,79.18L94.94,79.18z M94.94,79.18"/>
	<path class="st0" d="M92.93,80.12c0.75-0.5,5.45-0.91,6.42-1.19c2.24-0.25,4.5-0.38,6.75-0.38c2.16,0,11.75,0.6,13.17,1.57
		c1.42,0.96,2.29,4.82,2.29,6.32s-0.88,5.34-2.29,6.31c-1.41,0.97-11.01,1.57-13.17,1.57c-2.25,0-4.51-0.12-6.75-0.38
		c-0.97-0.28-5.68-0.68-6.42-1.18c-1.41-0.97-2.25-4.83-2.25-6.31C90.68,84.96,91.55,81.09,92.93,80.12L92.93,80.12z M92.93,80.12"
		/>
	<path class="st0" d="M90.92,81.06c0.49-0.34,6.81-0.61,7.5-0.75c0.69-0.14,7-0.26,7.69-0.26c1.44,0,14.2,0.4,15.15,1.05
		c0.94,0.65,1.5,5.32,1.5,6.31c0,0.99-0.58,5.66-1.5,6.3c-0.91,0.64-13.71,1.05-15.15,1.05c-0.69,0-7.08-0.1-7.69-0.26
		c-0.61-0.17-6.98-0.45-7.5-0.79c-0.94-0.64-1.5-5.32-1.5-6.3C89.42,86.42,89.98,81.7,90.92,81.06L90.92,81.06z M90.92,81.06"/>
	<path class="st0" d="M88.92,82c0.24-0.16,8.18-0.3,8.51-0.39c0.32-0.09,8.25-0.14,8.62-0.14c0.75,0,16.66,0.2,17.13,0.53
		c0.47,0.32,0.75,5.8,0.75,6.3c0,0.49-0.29,6-0.75,6.3c-0.46,0.3-16.41,0.53-17.13,0.53c-0.35,0-8.32-0.05-8.62-0.14
		c-0.31-0.09-8.25-0.22-8.51-0.39c-0.47-0.32-0.75-5.8-0.75-6.3C88.17,87.8,88.45,82.32,88.92,82L88.92,82z M203.01,82.41
		c0,2.47-1.45,4.7-3.81,6.32c-5.64,3.48-12.77,3.48-18.41,0c-2.35-1.62-3.82-3.86-3.82-6.32c0-2.46,1.5-4.7,3.82-6.31
		c5.65-3.49,12.77-3.49,18.41,0C201.56,77.71,203.01,79.94,203.01,82.41L203.01,82.41z M203.01,82.41"/>
	<path class="st0" d="M178.78,77.03c0.98-0.68,4.07-1.21,5.38-1.57c1.92-0.35,3.87-0.52,5.81-0.52c2.88,0,9.3,0.8,11.19,2.09
		c1.89,1.29,3.05,4.34,3.05,6.31c0,1.97-1.16,5.02-3.05,6.31c-1.88,1.29-8.32,2.1-11.19,2.1c-1.95,0-3.89-0.18-5.81-0.52
		c-1.31-0.37-4.4-0.91-5.38-1.58c-1.88-1.29-3.05-4.34-3.05-6.31C175.73,81.37,176.9,78.32,178.78,77.03L178.78,77.03z
		 M178.78,77.03"/>
	<path class="st0" d="M176.78,77.97c0.75-0.5,5.44-0.91,6.42-1.18c2.24-0.26,4.49-0.39,6.75-0.39c2.15,0,11.75,0.6,13.17,1.57
		c1.42,0.96,2.29,4.83,2.29,6.31c0,1.48-0.88,5.34-2.29,6.31c-1.41,0.97-11.02,1.57-13.17,1.57c-2.26,0-4.51-0.13-6.75-0.39
		c-0.98-0.27-5.69-0.68-6.42-1.19c-1.41-0.96-2.25-4.82-2.25-6.31C174.53,82.79,175.37,78.94,176.78,77.97L176.78,77.97z
		 M176.78,77.97"/>
	<path class="st0" d="M174.8,78.94c0.49-0.34,6.81-0.61,7.47-0.75c0.65-0.14,7-0.25,7.69-0.25c1.43,0,14.2,0.4,15.14,1.04
		c0.94,0.64,1.5,5.32,1.5,6.31c0,0.99-0.59,5.65-1.5,6.3c-0.91,0.65-13.71,1.05-15.14,1.05c-0.69,0-7.09-0.09-7.69-0.26
		c-0.6-0.17-6.98-0.45-7.47-0.79c-0.95-0.64-1.5-5.32-1.5-6.3C173.3,84.3,173.83,79.56,174.8,78.94L174.8,78.94z M174.8,78.94"/>
	<path class="st0" d="M172.76,79.84c0.25-0.16,8.19-0.3,8.51-0.39c0.32-0.09,8.25-0.13,8.62-0.13c0.75,0,16.67,0.2,17.13,0.52
		c0.46,0.32,0.75,5.81,0.75,6.3c0,0.49-0.29,6-0.75,6.3c-0.46,0.3-16.41,0.53-17.13,0.53c-0.34,0-8.32-0.05-8.62-0.13
		c-0.3-0.08-8.25-0.22-8.51-0.4c-0.47-0.32-0.75-5.8-0.75-6.3C172.01,85.65,172.3,80.17,172.76,79.84L172.76,79.84z M160.97,83.84
		c0,2.47-1.46,4.7-3.81,6.32c-5.64,3.49-12.77,3.49-18.41,0c-2.35-1.62-3.82-3.86-3.82-6.32c0-2.47,1.46-4.7,3.82-6.32
		c5.64-3.49,12.77-3.49,18.41,0C159.51,79.14,160.97,81.37,160.97,83.84L160.97,83.84z M160.97,83.84"/>
	<path class="st0" d="M136.74,78.46c0.98-0.67,4.07-1.21,5.37-1.57c1.92-0.34,3.86-0.52,5.81-0.52c2.88,0,9.3,0.8,11.19,2.09
		c1.89,1.29,3.05,4.34,3.05,6.32s-1.17,5.02-3.05,6.32c-1.88,1.3-8.31,2.1-11.19,2.1c-1.95,0-3.89-0.17-5.81-0.52
		c-1.31-0.37-4.4-0.91-5.37-1.57c-1.89-1.3-3.05-4.34-3.05-6.32C133.69,82.81,134.85,79.76,136.74,78.46L136.74,78.46z
		 M136.74,78.46"/>
	<path class="st0" d="M134.73,79.4c0.75-0.5,5.44-0.91,6.42-1.18c2.24-0.26,4.5-0.39,6.75-0.39c2.16,0,11.75,0.6,13.17,1.57
		c1.42,0.97,2.28,4.83,2.28,6.31c0,1.48-0.87,5.34-2.28,6.32c-1.41,0.97-11.01,1.57-13.17,1.57c-2.25,0-4.51-0.13-6.75-0.39
		c-0.97-0.27-5.68-0.68-6.42-1.18c-1.41-0.98-2.25-4.83-2.25-6.32C132.48,84.22,133.32,80.37,134.73,79.4L134.73,79.4z M134.73,79.4
		"/>
	<path class="st0" d="M132.73,80.34c0.49-0.33,6.81-0.6,7.46-0.75c0.65-0.15,7-0.25,7.69-0.25c1.44,0,14.21,0.4,15.15,1.04
		c0.94,0.64,1.5,5.32,1.5,6.31c0,0.99-0.59,5.65-1.5,6.3c-0.91,0.64-13.71,1.05-15.15,1.05c-0.69,0-7.08-0.09-7.69-0.26
		c-0.61-0.17-6.97-0.45-7.46-0.79c-0.94-0.65-1.5-5.31-1.5-6.3C131.23,85.69,131.78,80.99,132.73,80.34L132.73,80.34z M132.73,80.34
		"/>
	<path class="st1" d="M130.72,81.28c0.24-0.17,8.18-0.31,8.51-0.4c0.32-0.09,8.25-0.13,8.62-0.13c0.75,0,16.66,0.2,17.13,0.52
		c0.47,0.33,0.75,5.8,0.75,6.29s-0.29,6-0.75,6.3c-0.46,0.3-16.42,0.52-17.13,0.52c-0.35,0-8.32-0.04-8.62-0.12
		c-0.31-0.08-8.25-0.23-8.51-0.4c-0.47-0.32-0.75-5.8-0.75-6.3C129.97,87.08,130.25,81.6,130.72,81.28L130.72,81.28z M130.72,81.28"
		/>
	<path class="st0" d="M77.36,81.26c-0.07,2.93-1.46,5.66-3.8,7.43c-5.45,4.11-12.96,4.11-18.41,0c-2.39-1.72-3.81-4.48-3.81-7.43
		c0-2.95,1.42-5.71,3.81-7.43c5.45-4.1,12.96-4.1,18.41,0C75.89,75.59,77.29,78.33,77.36,81.26L77.36,81.26z M77.36,81.26"/>
	<path class="st0" d="M53.13,74.94c0.98-0.79,4.07-1.43,5.37-1.86c1.91-0.4,3.86-0.61,5.81-0.61c2.88,0,9.31,0.95,11.19,2.47
		c1.88,1.52,3.05,5.1,3.05,7.43s-1.17,5.9-3.05,7.43c-1.88,1.52-8.31,2.46-11.19,2.46c-1.95,0-3.9-0.2-5.81-0.61
		c-1.3-0.43-4.39-1.06-5.37-1.85c-1.89-1.5-3.05-5.11-3.05-7.43S51.24,76.45,53.13,74.94L53.13,74.94z M53.13,74.94"/>
	<path class="st0" d="M51.12,76.04c0.75-0.59,5.44-1.07,6.42-1.39c0.98-0.32,5.71-0.45,6.75-0.45c2.16,0,11.75,0.7,13.17,1.84
		c1.41,1.14,2.29,5.68,2.29,7.42c0,1.74-0.88,6.29-2.29,7.43c-1.41,1.14-11.01,1.84-13.17,1.84c-1.04,0-5.84-0.16-6.75-0.46
		c-0.91-0.3-5.68-0.79-6.42-1.39c-1.41-1.14-2.25-5.68-2.25-7.43C48.87,81.71,49.71,77.18,51.12,76.04L51.12,76.04z M51.12,76.04"/>
	<path class="st0" d="M49.12,77.14c0.49-0.4,6.81-0.71,7.5-0.93c0.69-0.21,6.96-0.28,7.65-0.28c1.44,0,14.21,0.47,15.15,1.23
		c0.95,0.76,1.5,6.26,1.5,7.42c0,1.16-0.59,6.65-1.5,7.42c-0.92,0.77-13.71,1.18-15.15,1.18c-0.69,0-7.08-0.11-7.69-0.31
		c-0.61-0.19-6.97-0.53-7.5-0.92c-0.94-0.75-1.5-6.25-1.5-7.41C47.58,83.38,48.17,77.91,49.12,77.14L49.12,77.14z M49.12,77.14"/>
	<path class="st0" d="M47.12,78.25c0.24-0.2,8.18-0.35,8.51-0.46c0.32-0.11,8.25-0.16,8.62-0.16c0.75,0,16.66,0.24,17.13,0.62
		c0.47,0.38,0.75,6.83,0.75,7.41s-0.29,7.04-0.75,7.42s-16.41,0.61-17.13,0.61c-0.35,0-8.32-0.06-8.62-0.16
		c-0.31-0.1-8.25-0.26-8.51-0.46c-0.47-0.38-0.75-6.83-0.75-7.42S46.64,78.63,47.12,78.25L47.12,78.25z M35.55,82.22
		c-0.07,2.93-1.47,5.67-3.81,7.43c-2.62,2.03-5.86,3.12-9.19,3.07c-3.33,0.05-6.57-1.04-9.2-3.07c-2.39-1.72-3.81-4.48-3.81-7.43
		c0-2.95,1.41-5.71,3.81-7.43c2.63-2.04,5.88-3.13,9.2-3.08c3.33-0.05,6.58,1.04,9.21,3.08C34.1,76.55,35.49,79.29,35.55,82.22
		L35.55,82.22z M35.55,82.22"/>
	<path class="st0" d="M11.3,75.89c0.98-0.8,4.07-1.43,5.37-1.85c1.91-0.41,3.86-0.61,5.81-0.61c2.88,0,9.31,0.94,11.19,2.46
		c1.88,1.52,3.05,5.11,3.05,7.43c0,2.32-1.17,5.91-3.05,7.43c-1.88,1.52-8.29,2.45-11.17,2.45c-1.95,0-3.9-0.2-5.81-0.61
		c-1.3-0.43-4.4-1.07-5.37-1.85c-1.89-1.5-3.05-5.11-3.05-7.43C8.28,80.98,9.44,77.44,11.3,75.89L11.3,75.89z M11.3,75.89"/>
	<path class="st0" d="M9.31,76.99c0.75-0.59,5.45-1.06,6.42-1.39c0.98-0.32,5.71-0.46,6.75-0.46c2.16,0,11.75,0.7,13.17,1.84
		c1.42,1.14,2.29,5.69,2.29,7.43c0,1.74-0.88,6.28-2.29,7.42c-1.41,1.14-11.01,1.85-13.17,1.85c-1.04,0-5.84-0.16-6.75-0.46
		c-0.91-0.29-5.68-0.8-6.42-1.39c-1.41-1.14-2.25-5.68-2.25-7.42C7.06,82.68,7.9,78.13,9.31,76.99L9.31,76.99z M9.31,76.99"/>
	<path class="st0" d="M7.31,78.09c0.49-0.39,6.81-0.75,7.5-0.92c0.69-0.17,7-0.3,7.69-0.3c1.44,0,14.2,0.47,15.15,1.23
		c0.95,0.76,1.5,6.26,1.5,7.42c0,1.16-0.59,6.66-1.5,7.42c-0.91,0.76-13.71,1.23-15.15,1.23c-0.69,0-7.08-0.11-7.69-0.3
		c-0.61-0.2-6.98-0.53-7.46-0.93c-0.95-0.75-1.5-6.25-1.5-7.42C5.85,84.35,6.37,78.86,7.31,78.09L7.31,78.09z M7.31,78.09"/>
	<path class="st0" d="M5.3,79.21c0.24-0.2,8.18-0.36,8.51-0.46c0.32-0.11,8.25-0.15,8.63-0.15c0.75,0,16.66,0.23,17.13,0.62
		c0.47,0.38,0.75,6.82,0.75,7.41c0,0.58-0.29,7.03-0.75,7.41c-0.46,0.38-16.41,0.62-17.13,0.62c-0.35,0-8.32-0.05-8.63-0.15
		c-0.31-0.1-8.25-0.27-8.51-0.47c-0.47-0.38-0.75-6.83-0.75-7.41C4.55,86.04,4.84,79.58,5.3,79.21L5.3,79.21z M5.3,79.21"/>
	<path class="st0" d="M41.53,95.12H3.3V80.31h38.23V95.12z M45.16,80.31h38.22v14.81H45.16V80.31z M87.01,80.31h38.22v14.81H87.01
		V80.31z M128.86,80.31h38.22v14.81h-38.22V80.31z M170.72,80.31h38.22v14.81h-38.22V80.31z M212.56,80.31h38.22v14.81h-38.22V80.31
		z M26.06,60.98H6.8L6.13,42.94c-0.09-2.04,1.54-3.75,3.59-3.75h13.46c2.04,0,3.67,1.71,3.58,3.75L26.06,60.98z M57.8,60.94H38.56
		l-0.7-18c-0.09-2.04,1.54-3.75,3.59-3.75h13.45c2.05,0,3.68,1.71,3.59,3.75L57.8,60.94z M89.54,60.94H70.31l-0.71-18
		c-0.09-2.04,1.54-3.75,3.59-3.75h13.46c2.04,0,3.67,1.71,3.58,3.75L89.54,60.94z M121.27,60.88h-19.21l-0.7-18
		c-0.09-2.04,1.54-3.75,3.58-3.75h13.46c2.04,0,3.68,1.71,3.59,3.75L121.27,60.88z M153.01,60.84h-19.23l-0.7-18
		c-0.1-2.04,1.54-3.75,3.59-3.75h13.46c2.05,0,3.68,1.71,3.58,3.75L153.01,60.84z M184.75,60.82h-19.23l-0.7-18
		c-0.09-2.04,1.54-3.75,3.59-3.75h13.46c2.04,0,3.67,1.71,3.59,3.75L184.75,60.82z M216.48,60.78h-19.23l-0.7-18
		c-0.1-2.05,1.54-3.76,3.59-3.75h13.5c2.04,0,3.68,1.71,3.59,3.75L216.48,60.78z M248.22,60.75h-19.23l-0.7-18
		c-0.09-2.04,1.54-3.75,3.58-3.75h13.43c2.05,0,3.68,1.71,3.59,3.75L248.22,60.75z M248.22,60.75"/>
	<path class="st0" d="M32.55,27.03h-12.2c-0.89,0.08-1.69-0.57-1.79-1.46V6.24c0-1.24,1.77-1.93,2.92-1.12
		c1.73,1.19,3.83,1.73,5.92,1.54c1.44-0.13,2.81-0.63,4-1.45c1.16-0.8,2.92-0.12,2.92,1.12v19.25
		C34.23,26.46,33.44,27.11,32.55,27.03L32.55,27.03z M32.55,27.03"/>
	<path class="st0" d="M31.46,2.79c0,1.38-2.25,2.5-5.02,2.5c-2.77,0-5.02-1.12-5.02-2.5s2.25-2.51,5.02-2.51
		C29.22,0.28,31.46,1.41,31.46,2.79L31.46,2.79z M31.46,2.79"/>
	<path class="st0" d="M91.23,27.19h-12.2c-0.91,0.08-1.7-0.59-1.78-1.5V6.42c0-1.24,1.76-1.93,2.92-1.12
		c1.73,1.19,3.82,1.73,5.92,1.54c1.43-0.14,2.81-0.63,4-1.45c1.16-0.8,2.93-0.12,2.93,1.12v19.25
		C92.91,26.64,92.12,27.27,91.23,27.19L91.23,27.19z M91.23,27.19"/>
	<path class="st0" d="M90.15,2.97c0,1.38-2.25,2.5-5.02,2.5c-2.77,0-5.02-1.12-5.02-2.5c0-1.38,2.25-2.51,5.02-2.51
		C87.9,0.46,90.15,1.59,90.15,2.97L90.15,2.97z M90.15,2.97"/>
	<path class="st0" d="M149.92,27.39h-12.2c-0.91,0.08-1.71-0.59-1.79-1.5V6.6c0-1.24,1.77-1.93,2.92-1.13
		c1.74,1.18,3.84,1.71,5.93,1.5c1.43-0.13,2.81-0.62,4-1.44c1.16-0.8,2.93-0.12,2.93,1.12v19.29
		C151.6,26.82,150.81,27.47,149.92,27.39L149.92,27.39z M149.92,27.39"/>
	<path class="st0" d="M148.83,3.15c0,1.38-2.25,2.5-5.01,2.5c-2.77,0-5.02-1.12-5.02-2.5c0-1.38,2.25-2.5,5.02-2.5
		C146.58,0.64,148.83,1.76,148.83,3.15L148.83,3.15z M148.83,3.15"/>
	<path class="st0" d="M208.6,27.57h-12.2c-0.89,0.07-1.68-0.57-1.78-1.46V6.77c0-1.24,1.77-1.92,2.92-1.12
		c1.73,1.2,3.83,1.74,5.92,1.54c1.43-0.14,2.81-0.63,4-1.45c1.16-0.79,2.93-0.12,2.93,1.12v19.25
		C210.29,27,209.49,27.65,208.6,27.57L208.6,27.57z M208.6,27.57"/>
	<g>
		<defs>
			<rect id="SVGID_1_" x="-1.53" y="-8.31" width="262.57" height="38.89"/>
		</defs>
		<clipPath id="SVGID_00000171708978854794166400000014919873753033114796_">
			<use xlink:href="#SVGID_1_"  style="overflow:visible;"/>
		</clipPath>
		<path style="clip-path:url(#SVGID_00000171708978854794166400000014919873753033114796_);fill:#D4F4FC;" d="M207.52,3.33
			c0,1.38-2.25,2.5-5.02,2.5c-2.77,0-5.02-1.12-5.02-2.5s2.25-2.5,5.02-2.5C205.27,0.82,207.52,1.94,207.52,3.33L207.52,3.33z
			 M207.52,3.33"/>
		<path style="clip-path:url(#SVGID_00000171708978854794166400000014919873753033114796_);fill:#D4F4FC;" d="M267.29,27.75h-12.23
			c-0.91,0.07-1.7-0.59-1.79-1.5V6.94c0-1.23,1.77-1.93,2.92-1.12c1.74,1.18,3.84,1.71,5.93,1.5c1.43-0.13,2.81-0.63,4-1.45
			c1.16-0.8,2.93-0.12,2.93,1.12v19.3C268.94,27.17,268.17,27.81,267.29,27.75L267.29,27.75z M267.29,27.75"/>
		<path style="clip-path:url(#SVGID_00000171708978854794166400000014919873753033114796_);fill:#D4F4FC;" d="M266.2,3.51
			c0,1.38-2.25,2.5-5.02,2.5c-2.77,0-5.02-1.12-5.02-2.5c0-1.38,2.25-2.5,5.02-2.5C263.95,1,266.2,2.12,266.2,3.51L266.2,3.51z
			 M266.2,3.51"/>
		<path style="clip-path:url(#SVGID_00000171708978854794166400000014919873753033114796_);fill:#D4F4FC;" d="M4.82,27.03h-12.2
			c-0.89,0.08-1.69-0.57-1.79-1.46V6.24c0-1.24,1.77-1.93,2.92-1.12c1.73,1.19,3.83,1.73,5.92,1.54C1.12,6.51,2.49,6.02,3.69,5.2
			c1.15-0.8,2.92-0.12,2.92,1.12v19.25C6.51,26.46,5.72,27.12,4.82,27.03L4.82,27.03z M4.82,27.03"/>
		<path style="clip-path:url(#SVGID_00000171708978854794166400000014919873753033114796_);fill:#D4F4FC;" d="M3.74,2.79
			c0,1.38-2.25,2.5-5.02,2.5c-2.77,0-5.02-1.12-5.02-2.5s2.25-2.51,5.02-2.51C1.5,0.28,3.74,1.41,3.74,2.79L3.74,2.79z M3.74,2.79"
			/>
	</g>
	<path class="st0" d="M63.51,27.19h-12.2c-0.91,0.08-1.71-0.59-1.79-1.5V6.42c0-1.24,1.77-1.93,2.92-1.12
		c1.73,1.19,3.83,1.73,5.92,1.54c1.44-0.14,2.82-0.64,4.01-1.45c1.15-0.8,2.92-0.12,2.92,1.12v19.25
		C65.19,26.64,64.4,27.27,63.51,27.19L63.51,27.19z M63.51,27.19"/>
	<path class="st0" d="M62.43,2.97c0,1.38-2.25,2.5-5.02,2.5c-2.77,0-5.01-1.12-5.01-2.5c0-1.38,2.25-2.51,5.01-2.51
		C60.19,0.46,62.43,1.59,62.43,2.97L62.43,2.97z M62.43,2.97"/>
	<path class="st0" d="M122.2,27.39H110c-0.91,0.08-1.71-0.59-1.79-1.5V6.6c0-1.24,1.77-1.93,2.91-1.13c1.74,1.18,3.83,1.71,5.92,1.5
		c1.44-0.13,2.82-0.62,4.01-1.44c1.15-0.8,2.92-0.12,2.92,1.12v19.29C123.88,26.82,123.09,27.47,122.2,27.39L122.2,27.39z
		 M122.2,27.39"/>
	<path class="st0" d="M121.11,3.15c0,1.38-2.25,2.5-5.02,2.5c-2.77,0-5.02-1.12-5.02-2.5c0-1.38,2.25-2.5,5.02-2.5
		C118.87,0.64,121.11,1.76,121.11,3.15L121.11,3.15z M121.11,3.15"/>
	<path class="st0" d="M180.88,27.57h-12.2c-0.89,0.07-1.68-0.57-1.78-1.46V6.77c0-1.24,1.76-1.92,2.91-1.12
		c1.73,1.2,3.83,1.74,5.92,1.54c1.44-0.14,2.82-0.63,4.01-1.45c1.15-0.79,2.92-0.12,2.92,1.12v19.25
		C182.56,27,181.77,27.65,180.88,27.57L180.88,27.57z M180.88,27.57"/>
	<path class="st0" d="M179.8,3.33c0,1.38-2.25,2.5-5.02,2.5c-2.77,0-5.02-1.12-5.02-2.5s2.25-2.5,5.02-2.5
		C177.55,0.82,179.8,1.94,179.8,3.33L179.8,3.33z M179.8,3.33"/>
	<path class="st0" d="M239.56,27.75h-12.2c-0.91,0.08-1.71-0.59-1.79-1.5V6.94c0-1.23,1.77-1.93,2.92-1.12
		c1.74,1.18,3.83,1.71,5.92,1.5c1.43-0.13,2.81-0.63,4-1.45c1.16-0.8,2.92-0.12,2.92,1.12v19.3
		C241.24,27.18,240.45,27.83,239.56,27.75L239.56,27.75z M239.56,27.75"/>
	<path class="st0" d="M238.48,3.51c0,1.38-2.25,2.5-5.02,2.5c-2.77,0-5.02-1.12-5.02-2.5c0-1.38,2.25-2.5,5.02-2.5
		C236.23,1,238.48,2.12,238.48,3.51L238.48,3.51z M238.48,3.51"/>
	<path class="st3" d="M89.75,31.54c-0.75-2.08-1.57-4.09-2.36-6.05c-1.25-2.99-4.52-4.59-7.64-3.75c-13.4,3.62-26.2,9.14-38.02,16.4
		c-2.1,1.27-3.25,3.66-2.96,6.09c0.53,4.44,1.8,8.76,3.75,12.79c0.68,1.38,1.43,2.72,2.25,4.01c1.54,2.42,4.43,3.61,7.22,3
		c8.01-1.76,15.8-4.38,23.25-7.81c4.47-2.07,8.8-4.43,12.97-7.06c3.63-2.28,5.23-6.73,3.89-10.79
		C91.39,36.13,90.61,33.85,89.75,31.54L89.75,31.54z M89.75,31.54"/>
	<path class="st4" d="M44.81,59c1.54,2.41,4.43,3.61,7.22,3c8.01-1.76,15.8-4.38,23.25-7.82c4.47-2.07,8.8-4.43,12.96-7.06
		c2.4-1.51,3.99-4.03,4.31-6.85c-0.07-0.66-0.21-1.3-0.41-1.93c-0.75-2.22-1.55-4.48-2.4-6.79c-0.75-2.08-1.57-4.09-2.36-6.05
		c-1.25-2.99-4.52-4.6-7.64-3.75c-13.4,3.62-26.2,9.14-38.02,16.4c-1.56,0.95-2.62,2.53-2.93,4.33c0.56,4.36,1.83,8.59,3.75,12.54
		C43.22,56.39,43.98,57.72,44.81,59L44.81,59z M44.81,59"/>
	<path class="st5" d="M88.22,14.3c-3.37-2.04-8.32-0.23-9.91,3.38c-1.02,2.31-0.75,5.59,1.5,7.56c1.93,1.6,4.57,2.05,6.92,1.18
		c2.35-0.87,4.07-2.92,4.5-5.39C91.64,18.39,90.47,15.75,88.22,14.3L88.22,14.3z M88.22,14.3"/>
	<path class="st6" d="M88.7,12.28l-4.34,9.41l-2.5-1.79c-0.47-0.33-1.12-0.22-1.46,0.25c-0.32,0.47-0.21,1.1,0.25,1.43l3,2.14
		c0.84,0.59,2,0.28,2.43-0.65l4.5-9.95c0.23-0.51,0.01-1.11-0.5-1.35C89.56,11.52,88.94,11.75,88.7,12.28L88.7,12.28z M88.7,12.28"
		/>
	<path class="st7" d="M62.12,44.14c-1.59-3.93-6.1-6.37-10.21-5.21c-3.16,1.02-5.46,3.76-5.92,7.04c-0.56,3.5,1.03,7.01,4.04,8.89
		c0.29,0.17,3.68,2.15,7.29,0.7C61.71,53.65,63.82,48.62,62.12,44.14L62.12,44.14z M62.12,44.14"/>
	<path class="st3" d="M61.55,45.48c-1.59-3.93-6.11-6.37-10.21-5.2c-2.22,0.67-4.06,2.25-5.06,4.35c-1.24,3.87,0.31,8.09,3.75,10.25
		c0.29,0.17,3.68,2.15,7.29,0.7c1.95-0.83,3.52-2.34,4.43-4.25C62.38,49.41,62.3,47.34,61.55,45.48L61.55,45.48z M61.55,45.48"/>
	<path class="st6" d="M58.22,48.53c-0.22-0.23-0.53-0.37-0.85-0.38v-0.05l-1.35-5.9c-0.04-0.16-0.19-0.26-0.35-0.22
		c-0.16,0.03-0.26,0.2-0.23,0.36l0.38,1.66l-5.9,3.3c-0.07,0.05-0.12,0.12-0.14,0.21c-0.02,0.09,0.01,0.18,0.07,0.25l2.68,3
		c-0.17,0.21-0.26,0.48-0.27,0.75c-0.01,0.32,0.11,0.62,0.33,0.86c0.22,0.23,0.52,0.37,0.85,0.38c0.65,0,1.19-0.52,1.21-1.18
		c0.01-0.32-0.11-0.63-0.34-0.86c-0.15-0.16-0.34-0.27-0.55-0.32l2.4-1.34c-0.03,0.11-0.05,0.21-0.06,0.32
		c-0.02,0.67,0.51,1.22,1.18,1.24c0.31,0,0.61-0.12,0.83-0.33c0.23-0.22,0.37-0.53,0.38-0.85C58.52,49.1,58.42,48.78,58.22,48.53
		L58.22,48.53z M55.97,44.58l0.75,3.44l-0.88,0.49l-1.12-3.25L55.97,44.58z M54.35,49.35l-1.93-2.8l1.79-1l1.12,3.25L54.35,49.35z
		 M51.91,46.85l1.92,2.8l-0.98,0.55l-2.3-2.58L51.91,46.85z M54.05,51.51c0,0.16-0.07,0.32-0.19,0.43
		c-0.12,0.11-0.27,0.17-0.43,0.17c-0.16,0-0.32-0.07-0.43-0.19c-0.38-0.39-0.1-1.05,0.45-1.04c0.16,0,0.32,0.08,0.43,0.2
		C53.99,51.19,54.06,51.35,54.05,51.51L54.05,51.51z M57.92,49.37c0,0.16-0.07,0.32-0.19,0.43c-0.12,0.11-0.27,0.17-0.43,0.17
		c-0.16,0-0.32-0.07-0.43-0.2c-0.11-0.11-0.17-0.27-0.16-0.43c0-0.16,0.07-0.32,0.19-0.43c0.11-0.11,0.26-0.17,0.42-0.17
		c0.19-0.02,0.37,0.06,0.49,0.2c0.11,0.12,0.17,0.27,0.16,0.44L57.92,49.37z M57.92,49.37"/>
	<path class="st8" d="M63.8,36.87l9.02-3.68 M65.13,40.13l18.05-7.35 M68,47.18l18.05-7.35 M66.56,43.64l15.29-6.23"/>
	<path class="st9" d="M153.51,20.54c-0.99-1.8-1.59-3.8-1.74-5.85c-2.16-6.89-7.72-10.95-12.53-10.3c-3,0.4-5.04,2.48-6,3.66
		c-0.55-0.09-5.2-0.75-8.69,2.59c-2.71,2.66-3.68,6.63-2.49,10.25c1.28,3.52,4.07,3.16,4.81,6.18c1.03,4.23-3.94,6.82-2.75,10.98
		c0.59,2.06,1.93,1.88,3.88,4.5c3.62,4.85,1.08,8.25,3.66,12.04c3.38,4.92,12.79,6.5,18.46,2.83c1.82-1.13,3.25-2.78,4.11-4.73
		c1.68-4.05-1.06-5.92,0.22-10.06c1.28-4.14,4.5-4.07,5.57-8.7c0.37-1.68,0.34-3.43-0.08-5.11
		C158.96,25.02,155.76,24.57,153.51,20.54L153.51,20.54z M153.51,20.54"/>
	<g>
		<defs>
			<rect id="SVGID_00000031905387131070335560000006435889260449378747_" x="7.96" y="-8.31" width="189.7" height="111.54"/>
		</defs>
		<clipPath id="SVGID_00000090255932152352020470000016305707612470210750_">
			<use xlink:href="#SVGID_00000031905387131070335560000006435889260449378747_"  style="overflow:visible;"/>
		</clipPath>
		<path style="clip-path:url(#SVGID_00000090255932152352020470000016305707612470210750_);fill:#F2CDC0;" d="M163.15,94.89
			c-0.55-0.16-1.12-0.22-1.7-0.2l-21-35.68c-1,1.19-2,2.38-3,3.56c2.64,5.34,4.99,9.75,6.79,12.97c2.49,4.5,4.85,7.75,9.1,14.56
			c2.31,3.69,4.95,7.64,9.09,9c1.5,0.49,3.82,0,3.8-1.57C166.19,96.56,164.65,95.33,163.15,94.89L163.15,94.89z M163.15,94.89"/>
		<path style="clip-path:url(#SVGID_00000090255932152352020470000016305707612470210750_);fill:#11A3EB;" d="M167.6,199.05
			c-1.5-2.95-7.58-16.45-20.89-48.06c-1.5-3.57-2.35-7.38-2.48-11.25l-2.65-75.32l-9.92-1.05c-5.71,22.79-10.5,53.07-8.11,87.11
			c0,0-6.6,7.92,18,59.16c0.43,0.91,0.94,1.89,1.88,2.25c0.91,0.25,1.87,0.19,2.74-0.19c6.62-2.03,13.14-4.42,19.5-7.16
			c0.98-0.3,1.82-0.93,2.38-1.78C168.8,201.34,167.85,199.55,167.6,199.05L167.6,199.05z M167.6,199.05"/>
		<path style="clip-path:url(#SVGID_00000090255932152352020470000016305707612470210750_);fill:#0794D3;" d="M141.6,65.16
			l-21.58,83.05l7.99,28.56l13.91-97.65l0.15-1.03L141.6,65.16z M141.6,65.16"/>
	</g>
	<path class="st13" d="M144.29,44.03c-0.1-2.25-0.35-4.57-1.58-6.44c-0.68-1.18-1.71-2.13-2.95-2.72c-0.68-0.31-1.43-0.42-2.18-0.33
		c-1.2,0.28-2.24,1.02-2.89,2.06c-1.44,1.96-2.39,4.24-2.76,6.64c-1.36,9.66-2.33,20.29-2.45,21.65v0.26
		c3.28-1.02,6.77-1.23,10.15-0.61c0.64,0.22,1.35,0.17,1.95-0.14c0.38-0.36,0.63-0.83,0.71-1.35
		C143.9,56.85,144.57,50.44,144.29,44.03L144.29,44.03z M144.29,44.03"/>
	<path class="st14" d="M142.01,38.75l-12.5,18.67c-0.05,0.47-0.05,0.94,0,1.41c0.05,0.48,0.16,0.96,0.32,1.42
		c0.13,0.27,0.3,0.53,0.51,0.75c0.32,0.29,0.66,0.54,1.04,0.75c0.35,0.23,0.71,0.42,1.1,0.58c1.39,0.53,4.27-3.8,7.35-8
		C147.1,44.34,142.01,38.75,142.01,38.75L142.01,38.75z M142.01,38.75"/>
	<g>
		<defs>
			<rect id="SVGID_00000083810385593656849880000005955565275232927138_" x="7.96" y="-8.31" width="189.7" height="111.54"/>
		</defs>
		<clipPath id="SVGID_00000080898240856746035480000008275673813541599629_">
			<use xlink:href="#SVGID_00000083810385593656849880000005955565275232927138_"  style="overflow:visible;"/>
		</clipPath>
		<path style="clip-path:url(#SVGID_00000080898240856746035480000008275673813541599629_);fill:#F2CDC0;" d="M138.57,30.42
			l-2.84-0.75c0,1.88,0.07,3.75,0.1,5.62c-0.48,0.52-0.93,1.07-1.32,1.66c-0.33,0.48-0.63,0.98-0.9,1.5
			c1.12-0.42,2.18-0.98,3.16-1.68c0.6-0.43,1.17-0.89,1.7-1.41C138.5,33.7,138.53,32.05,138.57,30.42L138.57,30.42z M138.57,30.42"
			/>
		<path style="clip-path:url(#SVGID_00000080898240856746035480000008275673813541599629_);fill:#11A3EB;" d="M141.58,64.41H129.5
			c-28.06,81.28-45.79,134.66-47.37,139.61c-0.35,1.08-1.06,3.52,0.13,5.4c0.93,1.46,2.75,2.01,4.42,2.43
			c8.36,2.11,16.79,3.86,25.3,5.25c1.59,0.26,3.27,0.5,4.79-0.05c3.44-1.24,4.43-6,4.85-7.9
			C123.26,201.63,129.7,147.06,141.58,64.41L141.58,64.41z M141.58,64.41"/>
	</g>
	<path class="st17" d="M135.16,58.75c-3.95-2.04-5.04-6.41-5.25-7.32c-0.17,3-0.28,6.05-0.35,9.14c0,1.29-0.05,2.57-0.06,3.83h7.88
		c0.25-1.58,0.5-3.16,0.75-4.75C137.09,59.51,136.09,59.21,135.16,58.75L135.16,58.75z M135.16,58.75"/>
	<path class="st18" d="M142.87,59.95c-1.03,0.2-2.07,0.3-3.12,0.32c-1.24,0.01-2.49-0.11-3.7-0.37c-0.13,1.5-0.26,2.92-0.39,4.38
		c1.09,0.1,2.25,0.17,3.53,0.19c0.83,0,1.64,0,2.39-0.05"/>
	<g>
		<defs>
			<rect id="SVGID_00000048464856727383307370000004733017039625919668_" x="7.96" y="-8.31" width="189.7" height="111.54"/>
		</defs>
		<clipPath id="SVGID_00000165236999903663407480000003492709970366098572_">
			<use xlink:href="#SVGID_00000048464856727383307370000004733017039625919668_"  style="overflow:visible;"/>
		</clipPath>
		<path style="clip-path:url(#SVGID_00000165236999903663407480000003492709970366098572_);fill:#BAC435;" d="M129.59,59.51
			c0.05,0.25,0.13,0.5,0.21,0.75c0.13,0.27,0.3,0.53,0.51,0.75c0.31,0.29,0.66,0.54,1.03,0.75c0.34,0.23,0.71,0.42,1.09,0.58
			c0.82,0.31,2.17-1.08,3.75-3.13c-0.36-0.12-0.71-0.27-1.05-0.44c-1.66-0.89-3.02-2.24-3.91-3.89l-1.56,2.32
			C129.64,57.94,129.62,58.74,129.59,59.51L129.59,59.51z M129.59,59.51"/>
		<path style="clip-path:url(#SVGID_00000165236999903663407480000003492709970366098572_);fill:#C1D046;" d="M129.5,64.4
			c-2.59,6.66-4.8,11.86-6.07,14.79c0,0-22.38,51.59-36.2,91.16c-0.3,0.73-0.33,1.55-0.07,2.3c0.32,0.62,0.82,1.14,1.42,1.5
			c4.47,3.18,9.19,6,14.11,8.41c11.58-39.38,23.14-78.76,34.69-118.15L129.5,64.4z M129.5,64.4"/>
	</g>
	<path class="st14" d="M130.3,51.87c-0.67-1.56-1.46-3.07-2.37-4.5l-3.26-0.68c-0.41,2.86,0.08,5.77,1.39,8.34
		c1.71,3.24,4.96,5.93,6,5.36C133.13,59.76,131.45,54.57,130.3,51.87L130.3,51.87z M130.3,51.87"/>
	<path class="st21" d="M127.61,57.4l3.64-2.55l-0.82-2.47l-3.88,3.53C126.87,56.43,127.22,56.93,127.61,57.4L127.61,57.4z
		 M127.61,57.4"/>
	<path class="st22" d="M132.39,40.81l-21.34,23.32c-6.57-0.2-13.12-1-19.55-2.37c-6.27-1.34-12.42-3.22-18.37-5.62
		c-1.35-2.93-3.21-4.5-4.45-4.16c-0.58,0.23-1.02,0.73-1.18,1.34c-0.58,1.92,1.9,4.28,2.89,5.25l0.5,0.44
		c4.53,2.41,9.22,4.54,14.02,6.34c12.08,4.56,21.69,8.04,29.93,3.98c0.75-0.37,2.04-1.07,6.29-5.09
		c6.1-5.79,11.67-12.12,16.64-18.91L132.39,40.81z M132.39,40.81"/>
	<path class="st13" d="M141.19,37.88c-1.86-1.45-4.5-0.75-5.4-0.55c-1.1,0.29-2.39,0.84-6.16,4.33c-1.31,1.21-3.04,2.89-4.96,5
		c0.89,0.73,1.7,1.54,2.45,2.41c2.69,3.23,4.39,7.16,4.89,11.33c3.24-2.61,6.07-5.7,8.41-9.15c1-1.4,1.77-2.95,2.25-4.6
		c0.17-0.61,0.28-1.24,0.34-1.87C143.14,43.69,143.52,39.69,141.19,37.88L141.19,37.88z M141.19,37.88"/>
	<path class="st22" d="M146.2,12.41c-1.64-2.55-4.17-4.4-7.09-5.18c-4.5-1.01-9.19,0.56-12.18,4.07c-3.44,4.11-3.98,9.93-1.34,14.59
		c3.4,5.96,10.43,6.9,13.16,6.32c0.91-0.2,1.8-0.52,2.65-0.93c1.18-0.6,2.26-1.39,3.19-2.33C148.83,24.45,149.5,17.65,146.2,12.41
		L146.2,12.41z M146.2,12.41"/>
	<path class="st9" d="M151.77,14.69c-0.15-1.22-0.82-5.46-4.38-8.32c-4.21-3.38-10.73-3.47-16.08,0c-1.41-0.17-2.85,0.02-4.17,0.56
		c-3.23,1.34-5.87,4.99-5.3,8.45c0.18,1.04,0.62,2.02,1.28,2.85c1.19-0.97,2.32-2.01,3.38-3.12c1.58-1.65,3-3.45,4.25-5.37
		c0.75,1.26,4.41,7.38,10.94,8.25c1.16,0.14,2.33,0.12,3.48-0.07L151.77,14.69z M151.77,14.69"/>
	<path class="st4" d="M119.72,19.92c1.4,0.11,2.81,0.19,4.21,0.25c0.49,0,0.48-0.75,0-0.75c-1.4-0.07-2.81-0.15-4.21-0.25
		C119.24,19.14,119.24,19.89,119.72,19.92L119.72,19.92z M143,17.65c1.97-0.23,3.9-0.75,5.87-1c0.2,0,0.37-0.16,0.38-0.37
		c0-0.18-0.17-0.41-0.38-0.38c-1.96,0.26-3.89,0.75-5.87,1C142.53,16.96,142.53,17.71,143,17.65L143,17.65z M143,17.65"/>
	<path class="st4" d="M128.87,14.71c-0.71-0.92-1.74-1.54-2.89-1.73c-1.52-0.11-3.02,0.44-4.11,1.5c-2.02,1.78-2.93,4.5-2.39,7.13
		c0.52,2.76,2.92,4.76,5.72,4.79c2.59,0,4.43-1.81,5.06-4.21c0.7-2.57,0.18-5.32-1.4-7.46c-0.3-0.38-0.82,0.16-0.52,0.53
		c2.2,2.74,2.25,9.05-1.81,10.21c-2.51,0.66-5.12-0.66-6.06-3.08c-0.75-2.1-0.43-4.43,0.86-6.25c0.88-1.31,2.25-2.2,3.81-2.45
		c1.25-0.06,2.44,0.5,3.19,1.5C128.65,15.6,129.18,15.07,128.87,14.71L128.87,14.71z M143.3,17.1c-0.11-1.25-0.53-2.45-1.23-3.5
		c-1.02-1.38-2.68-2.16-4.4-2.05c-2.65,0.18-4.91,2-5.65,4.55c-0.87,2.42-0.53,5.11,0.91,7.23c1.05,1.31,2.61,2.11,4.29,2.19
		c1.68,0.09,3.31-0.55,4.48-1.75C143.29,22,143.61,19.36,143.3,17.1c-0.06-0.47-0.75-0.28-0.75,0.2c0.06,0.58,0.08,1.17,0.06,1.75
		c-0.03,1.08-0.28,2.14-0.75,3.11c-1.59,2.86-5.43,3.49-7.85,1.29c-3.21-3-1.85-9.97,2.62-11.02c1.75-0.49,3.62,0.12,4.77,1.54
		c0.66,1,1.06,2.14,1.15,3.33C142.62,17.76,143.34,17.56,143.3,17.1L143.3,17.1z M143.3,17.1"/>
	<path class="st4" d="M130.67,17.76C130.67,17.72,130.73,17.62,130.67,17.76c0.02-0.05,0.05-0.11,0.08-0.16c0-0.06-0.06,0.07,0,0
		l0.05-0.05c0,0-0.09,0.06,0,0h0.04c0.08-0.04-0.07,0,0,0h0.11h-0.1h0.18h-0.1c0.05-0.01,0.1-0.01,0.15,0c0,0,0.07,0,0,0l0.07,0.04
		c0,0,0.09,0.08,0,0c0.01,0.02,0.04,0.04,0.06,0.06l0.06,0.06v0.05c0.26,0.36,0.83,0.04,0.64-0.38c-0.25-0.43-0.75-0.65-1.24-0.56
		c-0.37,0.1-0.65,0.38-0.75,0.75c-0.06,0.2,0.06,0.41,0.26,0.46c0.2,0.05,0.4-0.07,0.46-0.26L130.67,17.76z M130.67,17.76"/>
	<path class="st22" d="M150.87,16.69c-1.24-0.75-3.2-0.49-4.89,0.86c-1.02,0.76-1.66,1.93-1.74,3.2c-0.04,0.94,0.27,1.86,0.87,2.59
		c0.91,0.99,2.25,1.46,3.58,1.28c2.32-0.37,3.84-2.91,3.64-5.11C152.29,18.39,151.75,17.37,150.87,16.69L150.87,16.69z
		 M150.87,16.69"/>
</g>
</svg>
