<svg width="36" height="41" viewBox="0 0 36 41" fill="none" xmlns="http://www.w3.org/2000/svg">
<path d="M34.7399 17.32C34.7393 14.2071 33.8699 11.1562 32.2293 8.51065C30.5888 5.86514 28.2423 3.73011 25.4541 2.34592C22.6659 0.961723 19.5466 0.383342 16.4475 0.675873C13.3484 0.968404 10.3925 2.12024 7.91251 4.00171C5.43255 5.88317 3.52704 8.41956 2.41049 11.3253C1.29394 14.2311 1.0107 17.3908 1.59265 20.4488C2.1746 23.5068 3.59864 26.3417 5.70444 28.6342C7.81023 30.9268 10.5142 32.586 13.5119 33.425C14.2402 33.6253 14.8609 34.1032 15.2408 34.756L17.8639 39.3L20.4339 34.849C20.6268 34.5176 20.8838 34.2279 21.1899 33.997C21.4961 33.766 21.8452 33.5984 22.2169 33.504C25.8017 32.5739 28.9763 30.4801 31.2427 27.5511C33.5091 24.622 34.7392 21.0235 34.7399 17.32Z" fill="#E68A00" stroke="white" stroke-miterlimit="10"/>
<path d="M24.193 15.231C24.0736 15.2465 23.9532 15.2544 23.8329 15.2549C23.4677 15.2547 23.1067 15.178 22.7731 15.0295C22.4394 14.881 22.1405 14.6642 21.8959 14.393C21.651 14.6644 21.3519 14.8814 21.0179 15.0298C20.6839 15.1783 20.3224 15.255 19.9569 15.2549C19.5913 15.2551 19.2299 15.1785 18.8959 15.03C18.5618 14.8815 18.2627 14.6645 18.0179 14.393C17.773 14.6648 17.4734 14.8821 17.139 15.0306C16.8046 15.1791 16.4427 15.2555 16.0768 15.2549C15.7117 15.2547 15.3509 15.1778 15.0174 15.0294C14.684 14.8809 14.3854 14.6641 14.141 14.393C13.8959 14.6646 13.5962 14.8817 13.2618 15.0302C12.9275 15.1787 12.5657 15.2552 12.1998 15.2549C12.0791 15.2542 11.9587 15.2463 11.839 15.231C11.4607 15.1653 11.1044 15.0066 10.8026 14.7692C10.5007 14.5319 10.2626 14.2234 10.1095 13.8713C9.95632 13.5192 9.89296 13.1345 9.92515 12.7519C9.95734 12.3693 10.084 12.0006 10.2938 11.679L12.0008 8.97894C12.0767 8.85902 12.1817 8.76033 12.306 8.69196C12.4303 8.62358 12.5699 8.58777 12.7118 8.58795H23.328C23.4698 8.58796 23.6092 8.62384 23.7335 8.6922C23.8578 8.76056 23.9629 8.85915 24.0389 8.97894L25.7389 11.679C25.9495 12.0008 26.0767 12.3699 26.109 12.7531C26.1413 13.1363 26.0777 13.5215 25.9239 13.874C25.7701 14.2264 25.531 14.535 25.2281 14.7719C24.9252 15.0088 24.568 15.1667 24.1888 15.231H24.193ZM24.319 16.174C24.419 16.16 24.5649 16.136 24.6839 16.106V21.919C24.6826 22.4225 24.4819 22.905 24.1258 23.261C23.7698 23.6171 23.2873 23.8177 22.7838 23.819H13.2638C12.7603 23.8177 12.2778 23.6171 11.9217 23.261C11.5657 22.905 11.3652 22.4225 11.3639 21.919V16.106C11.4808 16.1369 11.5997 16.1596 11.7198 16.174C11.8803 16.1956 12.0421 16.2066 12.204 16.207C12.5634 16.2071 12.9206 16.1528 13.2638 16.046V20.015H22.7838V16.049C23.1255 16.1532 23.4806 16.2064 23.8378 16.207C24.0003 16.2066 24.1627 16.1956 24.3238 16.174H24.319Z" fill="white"/>
</svg>
