<svg width="41" height="41" viewBox="0 0 41 41" fill="none" xmlns="http://www.w3.org/2000/svg">
<path d="M39.9996 17.3705C39.9991 14.2577 39.1296 11.2067 37.4891 8.56119C35.8485 5.91568 33.5021 3.78065 30.7139 2.39645C27.9257 1.01226 24.8064 0.433879 21.7073 0.72641C18.6082 1.01894 15.6522 2.17078 13.1723 4.05225C10.6923 5.93371 8.7868 8.4701 7.67026 11.3759C6.55371 14.2816 6.27047 17.4413 6.85242 20.4994C7.43437 23.5574 8.8584 26.3922 10.9642 28.6848C13.07 30.9773 15.774 32.6365 18.7716 33.4756C19.4999 33.6759 20.1207 34.1537 20.5006 34.8065L23.1236 39.3506L25.6936 34.8995C25.8865 34.5681 26.1435 34.2785 26.4497 34.0475C26.7558 33.8166 27.105 33.649 27.4766 33.5545C31.0614 32.6244 34.236 30.5306 36.5025 27.6016C38.7689 24.6726 39.999 21.074 39.9996 17.3705Z" fill="#B2D235" stroke="white" stroke-miterlimit="10"/>
<path d="M7.75977 23.0505C3.61763 23.0505 0.259766 26.4084 0.259766 30.5505C0.259766 34.6927 3.61763 38.0505 7.75977 38.0505C11.9019 38.0505 15.2598 34.6927 15.2598 30.5505C15.2598 26.4084 11.9019 23.0505 7.75977 23.0505Z" fill="#B2D235"/>
<path d="M7.75977 23.5505C3.89377 23.5505 0.759766 26.6845 0.759766 30.5505C0.759766 34.4165 3.89377 37.5505 7.75977 37.5505C11.6258 37.5505 14.7598 34.4165 14.7598 30.5505C14.7598 26.6845 11.6258 23.5505 7.75977 23.5505Z" stroke="white"/>
<path d="M4.25977 30.5505L4.89577 31.1865L7.30477 28.7775L7.30477 34.0505H8.21377V28.7775L10.6238 31.1865L11.2598 30.5505L7.75977 27.0505L4.25977 30.5505Z" fill="white"/>
<path d="M32.0484 11.4945C32.2888 11.7351 32.4239 12.0614 32.4239 12.4016C32.4239 12.7417 32.2888 13.0679 32.0484 13.3085L21.7714 23.5855C21.5308 23.826 21.2045 23.9611 20.8643 23.9611C20.5242 23.9611 20.198 23.826 19.9574 23.5855L14.8173 18.4485C14.5986 18.204 14.4817 17.885 14.4907 17.5571C14.4997 17.2291 14.6339 16.9171 14.8658 16.6849C15.0977 16.4528 15.4096 16.3183 15.7375 16.3089C16.0655 16.2995 16.3846 16.416 16.6294 16.6345L20.8234 20.8625L30.2234 11.4976C30.3422 11.378 30.4835 11.2831 30.6392 11.2184C30.7948 11.1536 30.9618 11.1203 31.1304 11.1203C31.299 11.1203 31.4659 11.1536 31.6215 11.2184C31.7772 11.2831 31.9185 11.378 32.0373 11.4976L32.0484 11.4945Z" fill="white"/>
</svg>
