<svg width="15" height="15" viewBox="0 0 15 15" fill="none" xmlns="http://www.w3.org/2000/svg">
<path d="M0.338227 8.31696C0.121581 8.10029 0 7.80636 0 7.49995C0 7.19353 0.121581 6.89971 0.338227 6.68304C0.554873 6.46637 0.848664 6.34466 1.15505 6.34466H5.84474H6.34474V5.84466V1.15539C6.34474 1.00367 6.37455 0.853369 6.4326 0.713196C6.49066 0.573023 6.57591 0.445656 6.68318 0.338372C6.79045 0.231088 6.9177 0.146045 7.05785 0.0879832C7.19801 0.0299216 7.34829 0 7.5 0C7.80638 0 8.10017 0.121702 8.31682 0.338372C8.53347 0.555041 8.65526 0.848973 8.65526 1.15539L0.338227 8.31696ZM0.338227 8.31696C0.554873 8.53363 0.848664 8.65534 1.15505 8.65534H5.84474L0.338227 8.31696ZM6.34474 6.84466H6.84474V6.34466V1.15539C6.84474 1.06914 6.86169 0.983865 6.89455 0.90452C6.92737 0.825275 6.9757 0.752965 7.03675 0.691906C7.09761 0.631038 7.16974 0.582837 7.24921 0.549916C7.32876 0.516964 7.41402 0.5 7.5 0.5C7.67376 0.5 7.84037 0.569013 7.96325 0.691906C8.08618 0.814851 8.15526 0.981631 8.15526 1.15539V6.34466V6.84466H8.65526H13.8447C13.931 6.84466 14.0162 6.86161 14.0955 6.89447C14.1748 6.92732 14.247 6.97556 14.308 7.03657C14.369 7.09763 14.4174 7.16994 14.4502 7.24918C14.4831 7.32857 14.5 7.41374 14.5 7.49995C14.5 7.5862 14.483 7.67147 14.4502 7.75081C14.4174 7.83006 14.369 7.90237 14.308 7.96343L14.6616 8.31696L14.308 7.96343C14.2471 8.0243 14.175 8.0725 14.0955 8.10542C14.016 8.13837 13.9307 8.15534 13.8447 8.15534H8.65526H8.15526V8.65534V13.8446C8.15526 14.0183 8.08622 14.185 7.96325 14.308C7.84028 14.431 7.67364 14.5 7.5 14.5C7.41402 14.5 7.32876 14.483 7.24921 14.4501C7.16993 14.4172 7.09776 14.369 7.03675 14.308C6.9757 14.2469 6.92737 14.1746 6.89455 14.0954C6.86167 14.016 6.84474 13.9308 6.84474 13.8446V8.65534V8.15534H6.34474H1.15505C0.981286 8.15534 0.814679 8.08632 0.6918 7.96343L0.339177 8.31601L0.691799 7.96343C0.569038 7.84065 0.5 7.67395 0.5 7.49995C0.5 7.326 0.569003 7.15938 0.691799 7.03657C0.814679 6.91368 0.981286 6.84466 1.15505 6.84466H6.34474Z" fill="white" stroke="white"/>
</svg>
