<svg width="15" height="15" viewBox="0 0 15 15" fill="none" xmlns="http://www.w3.org/2000/svg">
<path d="M8.65526 1.15356C8.65526 0.847142 8.53347 0.55321 8.31682 0.336541C8.10017 0.119871 7.80638 -0.00183105 7.5 -0.00183105C7.34829 -0.00183105 7.19801 0.0280906 7.05785 0.0861522C6.9177 0.144214 6.79045 0.229257 6.68318 0.336541C6.57591 0.443825 6.49066 0.571191 6.4326 0.711365C6.37455 0.851538 6.34474 1.00184 6.34474 1.15356V6.34283H1.15505C0.848664 6.34283 0.554873 6.46454 0.338227 6.6812C0.121581 6.89787 0 7.1917 0 7.49811C0 7.80453 0.121581 8.09846 0.338227 8.31513C0.554873 8.5318 0.848664 8.6535 1.15505 8.6535H6.34474V13.8428C6.34474 13.9945 6.37455 14.1447 6.4326 14.2849C6.49066 14.425 6.57591 14.5524 6.68318 14.6597C6.79045 14.767 6.9177 14.8521 7.05785 14.9102C7.19801 14.9682 7.34829 14.9982 7.5 14.9982C7.80638 14.9982 8.10017 14.8764 8.31682 14.6597C8.53347 14.443 8.65526 14.1492 8.65526 13.8428V8.6535H13.8447C13.9964 8.6535 14.1467 8.62358 14.2869 8.56552C14.427 8.50746 14.5543 8.42242 14.6616 8.31513C14.7688 8.20785 14.8541 8.08048 14.9121 7.94031C14.9702 7.80014 15 7.64984 15 7.49811C15 7.34639 14.9702 7.1962 14.9121 7.05603C14.8541 6.91586 14.7688 6.78849 14.6616 6.6812C14.5543 6.57392 14.427 6.48877 14.2869 6.43071C14.1467 6.37265 13.9964 6.34283 13.8447 6.34283H8.65526V1.15356Z" fill="white"/>
</svg>
