<svg width="33" height="34" viewBox="0 0 33 34" fill="none" xmlns="http://www.w3.org/2000/svg">
<rect y="0.300049" width="33" height="33" rx="16.5" fill="#ACACAC"/>
<path d="M17.8125 15.675H20.875C21.2305 15.675 21.5586 15.9211 21.668 16.2493C21.8047 16.6047 21.7227 16.9875 21.4492 17.2336L14.4492 23.3586C14.1211 23.6047 13.6836 23.6321 13.3555 23.386C13.0273 23.1672 12.8906 22.7297 13.0547 22.3469L15.1602 17.425H12.0977C11.7422 17.425 11.4141 17.2063 11.3047 16.8782C11.168 16.5227 11.25 16.1399 11.5234 15.8938L18.5234 9.7688C18.8516 9.52271 19.2891 9.49536 19.6172 9.74146C19.9453 9.96021 20.082 10.3977 19.918 10.7805L17.8125 15.675Z" fill="white"/>
</svg>
