<svg width="33" height="34" viewBox="0 0 33 34" fill="none" xmlns="http://www.w3.org/2000/svg">
<rect y="0.84906" width="33" height="33" rx="16.5" fill="#ACACAC"/>
<path d="M22.625 17.0991C22.625 20.4897 19.8633 23.2241 16.5 23.2241C15.1602 23.2241 13.875 22.8139 12.8086 22.0209C12.4258 21.7202 12.3438 21.1733 12.6445 20.7905C12.9453 20.4077 13.4922 20.3256 13.875 20.5991C14.6406 21.1733 15.543 21.4741 16.5 21.4741C18.9062 21.4741 20.875 19.5327 20.875 17.0991C20.875 14.6928 18.9062 12.7514 16.5 12.7514C15.4609 12.7514 14.5039 13.1069 13.7109 13.7358L14.9688 14.9662C15.4336 15.4311 15.0781 16.2514 14.4219 16.2514H10.457C10.1562 16.2514 9.9375 16.0053 9.9375 15.7045V11.7397C9.9375 11.0561 10.7305 10.728 11.1953 11.1928L12.4805 12.5053C13.5742 11.5483 14.9961 11.0014 16.5 11.0014C19.8633 11.0014 22.625 13.7358 22.625 17.0991Z" fill="white"/>
</svg>
