<svg width="24" height="25" viewBox="0 0 24 25" fill="none" xmlns="http://www.w3.org/2000/svg">
<path d="M12 0.854797C5.36327 0.854797 0 6.21806 0 12.8548C0 19.4915 5.36327 24.8548 12 24.8548C18.6367 24.8548 24 19.4915 24 12.8548C24 6.21806 18.6367 0.854797 12 0.854797ZM12 22.8613C6.4849 22.8613 1.99347 18.3699 1.99347 12.8548C1.99347 7.3397 6.4849 2.84827 12 2.84827C17.5151 2.84827 22.0065 7.3397 22.0065 12.8548C22.0065 18.3699 17.5151 22.8613 12 22.8613Z" fill="white"/>
<path d="M14.2482 11.8311H13.0237V7.13399C13.0237 6.57073 12.5633 6.11032 12 6.11032C11.4367 6.11032 10.9763 6.57073 10.9763 7.13399V12.8548C10.9763 13.4181 11.4367 13.8785 12 13.8785H14.2482C14.8114 13.8785 15.2718 13.4181 15.2718 12.8548C15.2718 12.2915 14.8065 11.8311 14.2482 11.8311Z" fill="white"/>
</svg>
