<svg width="24" height="25" viewBox="0 0 24 25" fill="none" xmlns="http://www.w3.org/2000/svg">
<rect y="0.854797" width="24" height="24" rx="12" fill="#B2D235"/>
<path d="M18.7073 8.14688C18.8947 8.33423 19 8.58824 19 8.85309C19 9.11794 18.8947 9.37195 18.7073 9.5593L10.6954 17.5624C10.5079 17.7496 10.2536 17.8548 9.98845 17.8548C9.72331 17.8548 9.46902 17.7496 9.28147 17.5624L5.27462 13.5618C5.09505 13.3726 4.99655 13.1209 5.00009 12.8603C5.00363 12.5996 5.10893 12.3507 5.29357 12.1665C5.47821 11.9823 5.72758 11.8774 5.98851 11.8742C6.24944 11.871 6.50129 11.9697 6.69041 12.1493L9.96179 15.442L17.2921 8.14869C17.3847 8.05556 17.4949 7.98165 17.6162 7.93122C17.7376 7.88078 17.8677 7.8548 17.9991 7.8548C18.1305 7.8548 18.2607 7.88078 18.382 7.93122C18.5033 7.98165 18.6135 8.05556 18.7061 8.14869L18.7073 8.14688Z" fill="white"/>
</svg>
