<svg width="17" height="17" viewBox="0 0 17 17" fill="none" xmlns="http://www.w3.org/2000/svg">
<path d="M14.9895 9.3322C15.0246 9.05639 15.0418 8.77847 15.0411 8.50029C15.044 8.22184 15.0248 7.94361 14.9838 7.66838L16.7225 6.26983C16.7973 6.20594 16.8484 6.11722 16.8671 6.01877C16.8858 5.92032 16.871 5.81821 16.825 5.72982L15.1769 2.79001C15.1284 2.70114 15.0511 2.63284 14.9587 2.59719C14.8662 2.56154 14.7645 2.56084 14.6716 2.59521L12.6242 3.44547C12.1995 3.10555 11.7329 2.82559 11.2367 2.61297L10.9285 0.362966C10.9134 0.261562 10.8635 0.169135 10.788 0.102517C10.7125 0.0358989 10.6164 -0.000479925 10.5171 4.78182e-06H7.22828C7.1303 0.000233325 7.0357 0.0371169 6.96199 0.103838C6.88827 0.170559 6.84042 0.262607 6.82727 0.362966L6.51907 2.61297C6.0236 2.82687 5.55718 3.10652 5.13157 3.44488L3.08299 2.5958C2.99023 2.55942 2.88784 2.55911 2.79489 2.59495C2.70194 2.63079 2.62475 2.70032 2.57771 2.7906L0.942165 5.72923C0.889768 5.81589 0.871209 5.91989 0.89025 6.02016C0.909292 6.12044 0.964509 6.20948 1.04471 6.26923L2.78337 7.66779C2.68632 8.21757 2.68051 8.78041 2.76619 9.3322L1.02752 10.7308C0.952677 10.7946 0.901558 10.8834 0.882862 10.9818C0.864167 11.0803 0.87905 11.1824 0.924979 11.2708L2.56912 14.2123C2.61756 14.3012 2.69485 14.3695 2.78732 14.4052C2.87979 14.4408 2.98147 14.4415 3.07439 14.4072L5.12126 13.5575C5.54683 13.8965 6.0142 14.1755 6.51105 14.387L6.81925 16.637C6.83566 16.7378 6.88587 16.8294 6.96108 16.8958C7.03628 16.9622 7.13169 16.999 7.23057 17H10.5194C10.6177 17.0008 10.7128 16.9642 10.7867 16.8973C10.8606 16.8304 10.9082 16.7378 10.9204 16.637L11.2286 14.387C11.7258 14.1766 12.1926 13.8967 12.6161 13.5551L14.663 14.4048C14.7558 14.4412 14.8581 14.4415 14.9511 14.4056C15.0441 14.3698 15.1212 14.3003 15.1683 14.21L16.813 11.2708C16.8638 11.1837 16.8814 11.0801 16.8625 10.9803C16.8435 10.8805 16.7893 10.7916 16.7104 10.7308L14.9895 9.3322ZM8.87299 11.687C8.2632 11.687 7.66709 11.5001 7.16007 11.15C6.65304 10.7998 6.25786 10.3021 6.0245 9.7198C5.79114 9.1375 5.73008 8.49676 5.84904 7.87859C5.96801 7.26043 6.26166 6.69261 6.69285 6.24694C7.12404 5.80127 7.67341 5.49777 8.27149 5.3748C8.86958 5.25184 9.4895 5.31495 10.0529 5.55615C10.6163 5.79734 11.0978 6.20579 11.4366 6.72985C11.7754 7.2539 11.9562 7.87002 11.9562 8.50029C11.9535 9.3446 11.6278 10.1535 11.0501 10.7505C10.4725 11.3476 9.68987 11.6842 8.87299 11.687Z" fill="white"/>
</svg>
