<svg width="383" height="344" viewBox="0 0 383 344" fill="none" xmlns="http://www.w3.org/2000/svg">
<g clip-path="url(#clip0_158_10112)">
<path d="M149.398 0.186279C149.656 1.3193 149.851 2.45233 150.054 3.63561C143.544 4.60441 138.21 7.60134 134.252 12.8002C131.713 16.1359 130.191 19.9753 129.494 24.3163C130.402 23.7002 131.152 23.211 131.881 22.6926C134.325 20.956 137.07 20.2156 140.029 19.8928C142.991 19.5696 145.709 20.1118 148.29 21.4877C150.722 22.784 152.496 24.7529 153.951 27.0776C156.073 30.4673 156.449 34.221 156.109 38.0289C155.782 41.6957 154.325 44.9797 151.874 47.8083C149.327 50.7488 146.151 52.5052 142.375 53.2818C138.549 54.0683 134.829 53.6676 131.307 52.0742C128.178 50.6592 125.802 48.3081 124.175 45.2705C122.73 42.5745 121.768 39.7131 121.553 36.6322C121.492 35.7456 121.405 34.8608 121.258 33.9386C121.186 32.9045 121.186 31.907 121.258 30.7856C121.467 29.2004 121.562 27.7335 121.752 26.2789C122.105 23.5639 122.859 20.9496 123.982 18.4562C125.887 14.2237 128.569 10.5797 132.123 7.55629C135.848 4.38854 140.093 2.31347 144.798 1.1253C146.217 0.766987 147.658 0.496824 149.088 0.186279C149.171 0.186279 149.254 0.186279 149.398 0.186279ZM148.158 38.8291C148.158 37.8334 148.263 36.824 148.135 35.8452C147.908 34.1088 147.76 32.3131 147.187 30.6806C145.715 26.4914 142.471 23.7972 137.649 24.1771C134.67 24.4119 132.245 25.6271 130.075 27.5335C129.721 27.8438 129.303 28.2475 129.222 28.6674C129.044 29.5937 129.031 30.5569 129.004 31.5065C128.919 34.5186 129.115 37.5149 129.755 40.4619C130.407 43.4679 131.51 46.257 133.775 48.4762C136.769 51.4102 141.369 51.2707 144.278 48.4804C146.954 45.9132 147.851 42.5691 148.158 38.8291Z" fill="#ACACAC"/>
<path d="M155.128 57.1863C157.622 52.2698 160.202 47.3525 162.785 42.4372C164.507 39.1601 166.234 35.8853 167.96 32.6103C170.394 27.9923 172.829 23.375 175.264 18.7574C176.368 16.6642 177.474 14.5721 178.574 12.4769C178.682 12.2711 178.756 12.0475 178.886 11.7353C178.456 11.7353 178.123 11.7353 177.79 11.7353C172.305 11.7353 166.82 11.7151 161.335 11.7529C160.278 11.7601 159.213 11.9424 158.169 12.1365C156.73 12.4039 155.774 13.3846 155.27 14.6677C154.643 16.2625 154.224 17.9388 153.681 19.69C153.135 19.69 152.376 19.69 151.561 19.69C151.561 15.0174 151.561 10.351 151.561 5.63635C162.812 5.63635 174.043 5.63635 185.334 5.63635C185.368 6.7939 185.409 7.85729 184.829 8.94492C182.615 13.0988 180.498 17.3047 178.337 21.4871C176.72 24.616 175.088 27.7373 173.467 30.8641C170.868 35.878 168.273 40.894 165.675 45.9083C163.999 49.1434 162.32 52.3774 160.641 55.6112C160.391 56.0926 160.134 56.5699 159.879 57.1177C158.323 57.1863 156.769 57.1863 155.128 57.1863Z" fill="#ACACAC"/>
<path d="M262.186 42.0235C256.829 42.098 251.471 42.098 246.114 42.098C246.051 42.0272 245.989 41.9563 245.927 41.8854C246.114 41.7063 246.293 41.5166 246.493 41.3527C246.583 41.2793 246.711 41.244 246.828 41.2145C248.311 40.8384 248.602 40.4759 248.605 38.9062C248.611 35.5239 248.615 32.1416 248.603 28.7593C248.598 27.4933 248.668 26.2096 248.484 24.9666C248.29 23.658 247.785 23.3583 246.452 23.2832C246.333 23.2765 246.214 23.2625 246.051 23.2479C246.051 22.9596 246.051 22.6979 246.051 22.4508C251.159 22.4508 256.241 22.4508 261.349 22.4508C261.349 24.2956 261.349 26.1614 261.349 28.0613C260.445 28.3966 260.413 27.7037 260.33 27.1082C260.177 26.0133 260.065 24.8542 259.058 24.2002C258.4 23.7726 257.591 23.4006 256.828 23.3507C255.491 23.2632 254.13 23.3839 252.792 23.5342C252.103 23.6117 251.801 24.2735 251.789 24.896C251.747 27.1837 251.772 29.4728 251.772 31.7535C255.25 32.0714 256.362 31.9758 256.846 28.5446C257.097 28.5319 257.361 28.5186 257.767 28.498C257.767 30.9799 257.767 33.4058 257.767 35.9C257.283 36.1345 256.95 35.9059 256.847 35.319C256.412 32.8474 255.479 32.5104 253.244 32.5955C252.785 32.613 252.326 32.598 251.775 32.598C251.775 35.0461 251.729 37.4262 251.797 39.803C251.825 40.759 252.414 41.1583 253.405 41.165C254.52 41.1724 255.636 41.1667 256.751 41.1667C259.188 41.1667 260.47 40.0893 260.88 37.6879C260.972 37.1494 261.043 36.6073 261.134 35.9997C261.374 35.9849 261.635 35.9687 262.042 35.9436C262.042 37.761 262.042 39.5198 262.114 41.3158C262.186 41.5516 262.186 41.7503 262.186 42.0235Z" fill="#ACACAC"/>
<path d="M262.186 46.4888C236.37 46.5686 210.554 46.5686 184.678 46.5686C184.678 46.197 184.678 45.8759 184.678 45.451C210.454 45.451 236.233 45.451 262.099 45.451C262.186 45.7703 262.186 46.0897 262.186 46.4888Z" fill="#ACACAC"/>
<path d="M189.447 25.1648C190.67 28.9309 191.886 32.6218 193.183 36.5575C193.76 34.7707 194.275 33.2144 194.765 31.6501C195.433 29.5152 196.101 27.3798 196.721 25.2308C196.838 24.8286 196.813 24.3408 196.709 23.9291C196.503 23.1109 196.27 22.2816 195.904 21.5274C195.653 21.0111 195.159 20.6127 194.771 20.164C194.565 19.9254 194.353 19.6919 193.987 19.2794C196.755 19.2794 199.192 19.2794 201.68 19.2794C201.68 19.5104 201.68 19.7698 201.68 20.1176C201.419 20.1176 201.179 20.1134 200.94 20.1184C199.701 20.1438 199.28 20.6735 199.649 21.873C200.642 25.1092 201.668 28.3356 202.69 31.5631C203.187 33.1345 203.704 34.6996 204.292 36.5105C204.666 35.3861 204.977 34.4826 205.268 33.5727C206.161 30.7806 207.07 27.9934 207.922 25.1886C208.228 24.1804 208.494 23.1371 208.586 22.0928C208.7 20.8011 208.003 20.1694 206.674 20.1186C206.491 20.1116 206.308 20.1176 206.063 20.1176C206.044 19.8155 206.027 19.5542 206.01 19.2794C208.064 19.2794 210.066 19.2794 212.108 19.2794C212.108 19.5291 212.108 19.7962 212.108 20.0645C210.808 20.5301 210.123 21.4967 209.729 22.7581C207.966 28.4124 206.182 34.0604 204.406 39.7109C204.198 40.3739 204.032 41.0539 203.77 41.6946C203.656 41.9728 203.348 42.1713 203.02 42.521C201.135 36.9467 199.341 31.6393 197.479 26.1343C196.946 27.758 196.446 29.2039 195.998 30.6654C195.279 33.0052 194.6 35.3573 193.892 37.7005C193.499 39.0017 193.1 40.3018 192.661 41.5877C192.57 41.8524 192.29 42.0521 192.098 42.2818C191.898 42.0628 191.601 41.877 191.514 41.6199C190.132 37.5548 188.781 33.4789 187.412 29.4091C186.574 26.9162 185.695 24.4369 184.882 21.9357C184.606 21.0847 184.098 20.5309 183.299 20.1931C182.767 19.9679 182.77 19.9595 182.806 19.2795C185.094 19.2795 187.383 19.2795 189.763 19.2795C189.783 19.4542 189.813 19.7128 189.84 19.943C189.754 20.0186 189.713 20.0874 189.666 20.0925C188.381 20.2275 188.042 20.6255 188.367 21.8172C188.668 22.9234 189.078 24 189.447 25.1648Z" fill="#ACACAC"/>
<path d="M240.422 33.1563C240.422 30.9528 240.439 28.8421 240.413 26.7319C240.404 26.0635 240.33 25.3873 240.202 24.7312C240.016 23.7782 239.498 23.4386 238.167 23.2886C237.958 23.265 237.743 23.2853 237.491 23.2853C237.491 22.9538 237.491 22.6917 237.491 22.4589C239.626 22.4589 241.728 22.4589 243.906 22.4589C243.921 22.6368 243.944 22.8995 243.971 23.2117C243.785 23.24 243.64 23.2737 243.495 23.2821C241.977 23.3695 241.353 24.0133 241.353 25.507C241.352 30.7212 241.352 35.9355 241.352 41.1497C241.352 41.4879 241.352 41.8261 241.352 42.1941C240.646 42.4262 240.25 42.2249 239.821 41.6218C236.441 36.8749 233.012 32.1636 229.601 27.4389C229.035 26.6543 228.484 25.858 227.824 24.9222C227.802 25.3242 227.775 25.5766 227.775 25.8291C227.772 30.1743 227.787 34.5195 227.765 38.8646C227.758 40.2585 228.191 41.0144 229.6 41.2127C229.914 41.2568 230.823 41.0804 230.49 42.0593C228.458 42.0593 226.42 42.0593 224.38 42.0593C224.246 41.4121 224.246 41.4121 224.841 41.2339C226.516 40.732 226.822 40.4155 226.833 38.7447C226.862 34.3376 226.862 29.9301 226.833 25.523C226.823 23.8724 226.245 23.3885 224.294 23.2302C224.294 22.9775 224.294 22.7195 224.294 22.4593C226.291 22.4593 228.27 22.4593 230.329 22.4593C233.59 27.0032 236.912 31.632 240.234 36.2608C240.297 36.2518 240.36 36.2428 240.422 36.2338C240.422 35.239 240.422 34.2442 240.422 33.1563Z" fill="#ACACAC"/>
<path d="M215.868 39.4276C215.868 34.8727 215.827 30.4036 215.888 25.9358C215.913 24.128 215.655 23.3102 213.309 23.2333C213.297 22.979 213.284 22.7187 213.272 22.4587C216.064 22.4587 218.806 22.4587 221.59 22.4587C221.59 22.6795 221.59 22.9422 221.59 23.1957C221.503 23.2306 221.449 23.2699 221.393 23.272C219.654 23.3367 219.061 23.8676 219.044 25.6678C219.003 30.0429 219.001 34.4189 219.045 38.794C219.063 40.6035 219.348 40.8472 221.116 41.3599C221.343 41.4258 221.515 41.6811 221.713 41.8487C221.658 41.9206 221.604 41.9925 221.549 42.0644C218.829 42.0644 216.11 42.0644 213.037 42.0644C213.375 41.7177 213.523 41.458 213.741 41.3669C214.069 41.2299 214.462 41.2538 214.8 41.1328C215.544 40.8668 215.934 40.3323 215.868 39.4276Z" fill="#ACACAC"/>
<path d="M186.569 54.2517C187.028 54.2055 187.416 54.0747 187.454 54.7474C187.471 55.0466 187.858 55.4102 188.167 55.588C188.687 55.8879 189.859 55.5443 189.763 55.2105C189.64 54.7849 189.235 54.3743 188.848 54.1089C188.389 53.7937 187.773 53.71 187.306 53.402C186.106 52.6104 186.276 50.8157 187.514 50.0573C188.612 49.3844 189.723 49.4989 190.852 49.8076C191.05 49.8618 191.247 50.2145 191.295 50.4589C191.387 50.923 191.37 51.4085 191.401 51.9368C191.139 51.9489 190.837 51.9629 190.469 51.98C190.356 51.0747 189.797 50.7218 188.954 50.869C188.686 50.9158 188.449 51.1477 188.199 51.2949C188.35 51.5156 188.456 51.8119 188.664 51.9403C189.044 52.1747 189.478 52.3318 189.903 52.482C191.293 52.9728 191.622 53.4879 191.5 55.0418C191.438 55.8278 190.55 56.7095 189.567 56.7906C188.573 56.8726 187.566 56.8087 186.498 56.8087C186.498 55.8094 186.498 55.0473 186.569 54.2517Z" fill="#ACACAC"/>
<path d="M214.823 50.8558C212.975 50.8515 212.402 51.1726 212.183 52.5072C212.015 53.5361 212.328 55.1006 213.757 55.5679C214.723 55.8839 215.306 55.4262 215.917 54.824C216.114 54.629 216.431 54.5551 216.693 54.4258C216.732 54.712 216.822 55.0018 216.802 55.2838C216.7 56.7251 215.528 56.8469 214.511 56.9678C213.017 57.1453 211.006 56.4263 210.43 54.4657C209.685 51.9303 211.374 49.5544 213.997 49.5491C214.183 49.5487 214.37 49.5372 214.555 49.5509C216.635 49.7051 216.812 49.7349 216.718 52.1196C216.482 52.1196 216.244 52.1196 216.111 52.1196C215.676 51.6656 215.289 51.2618 214.823 50.8558Z" fill="#ACACAC"/>
<path d="M250.981 50.805C251.498 50.0691 251.862 49.2048 253.055 49.64C253.055 50.8557 253.055 52.1114 253.055 53.4234C253.522 53.4486 253.909 53.4695 254.297 53.4904C254.087 54.0883 254.34 55.0591 253.123 54.719C253.099 55.0959 253.08 55.3949 253.075 55.4866C253.434 55.9259 253.691 56.2407 253.949 56.5556C253.881 56.6273 253.813 56.699 253.745 56.7707C252.74 56.7707 251.735 56.7707 250.43 56.7707C250.742 56.2914 250.947 55.9764 251.153 55.6615C251.224 55.7013 251.295 55.7412 251.366 55.781C251.366 55.4793 251.366 55.1775 251.366 54.7647C250.78 54.7647 250.199 54.8045 249.627 54.7488C249.315 54.7183 248.822 54.587 248.761 54.392C248.671 54.102 248.805 53.6543 248.996 53.3809C249.604 52.5123 250.283 51.6933 250.981 50.805Z" fill="#ACACAC"/>
<path d="M224.731 54.5237C225.035 54.5696 225.339 54.6155 225.693 54.669C225.468 55.434 225.276 56.0854 225.089 56.7206C223.249 56.7206 221.397 56.7206 219.468 56.7206C219.479 56.4178 219.087 55.9761 219.839 55.8309C219.974 55.8047 220.129 55.445 220.132 55.2368C220.158 53.7551 220.146 52.2728 219.951 50.8993C219.724 50.5894 219.497 50.2795 219.27 49.9696C219.331 49.893 219.392 49.8164 219.453 49.7399C220.805 49.7399 222.156 49.7399 223.583 49.8126C223.591 50.0907 223.524 50.2959 223.457 50.5012C223.843 50.6168 224.23 50.7325 224.616 50.8481C224.651 50.7641 224.685 50.68 224.72 50.5959C224.56 50.3194 224.399 50.0429 224.239 49.7664C224.452 49.7664 224.666 49.7664 224.924 49.7664C225.021 50.3887 225.117 51.0114 225.22 51.6747C224.682 51.8502 224.43 51.7226 224.029 51.3483C223.594 50.9416 222.836 50.881 222.077 50.621C222.077 51.3822 222.077 51.8891 222.077 52.6602C222.919 52.435 223.724 52.2194 224.609 51.9829C224.609 52.7395 224.609 53.4731 224.525 54.2983C224.229 54.3791 223.849 54.4193 223.828 54.35C223.475 53.188 222.531 53.7899 221.783 53.6025C221.694 52.6877 221.669 51.8252 221.633 50.9632C221.617 50.5856 221.764 50.1207 221.104 50.1053C220.385 50.0886 220.534 50.5907 220.52 51.0014C220.464 52.5742 220.393 54.1469 220.382 55.7201C220.38 55.9402 220.696 56.3557 220.834 56.3429C221.11 56.3175 221.418 56.104 221.609 55.8798C221.765 55.6967 221.77 55.3851 221.903 55.1644C222.788 56.091 224.133 55.7632 224.731 54.5237Z" fill="#ACACAC"/>
<path d="M195.034 54.0027C195.034 53.1374 195.013 52.3621 195.041 51.5887C195.064 50.9703 194.971 50.5048 194.149 50.6868C194.149 50.3414 194.149 50.079 194.149 49.7759C195.283 49.7759 196.388 49.7759 197.568 49.7759C197.593 50.175 197.931 50.6292 197.103 50.729C196.934 50.7494 196.744 51.3793 196.726 51.7363C196.676 52.7562 196.683 53.7811 196.72 54.8021C196.737 55.2844 196.683 55.8643 197.452 55.9353C197.551 55.9444 197.606 56.4321 197.688 56.7236C196.472 56.7236 195.365 56.7236 194.183 56.7236C194.136 56.3841 193.798 55.9247 194.629 55.8363C194.787 55.8194 194.962 55.3801 195.017 55.1125C195.085 54.7856 195.034 54.4342 195.034 54.0027Z" fill="#ACACAC"/>
<path d="M233.735 50.7898C233.728 50.4695 233.728 50.2312 233.728 50.0255C234.741 49.856 235.663 49.7018 236.702 49.528C236.702 51.3666 236.718 53.1545 236.693 54.9417C236.684 55.5609 236.769 56.0113 237.582 55.8814C237.582 56.1947 237.582 56.4578 237.582 56.7219C236.4 56.7219 235.23 56.7219 233.973 56.7219C233.953 56.5376 233.925 56.2798 233.889 55.9426C234.839 55.9362 235.09 55.4286 235.044 54.5738C234.979 53.3714 235.028 52.1629 235.028 50.8718C234.562 50.8718 234.152 50.8718 233.735 50.7898Z" fill="#ACACAC"/>
<path d="M258.651 54.3231C258.652 53.1261 258.652 52.0154 258.652 50.814C258.21 50.896 257.862 50.9605 257.452 51.0366C257.378 50.7395 257.303 50.4411 257.204 50.0434C258.238 49.8683 259.231 49.6999 260.14 49.546C260.14 51.2953 260.143 52.9793 260.138 54.6632C260.136 55.3844 260.32 55.941 261.21 55.924C261.21 56.2187 261.21 56.4812 261.21 56.7242C259.936 56.7242 258.705 56.7242 257.4 56.7242C257.386 56.5145 257.368 56.2562 257.345 55.9059C258.69 56.1534 258.409 55.0756 258.651 54.3231Z" fill="#ACACAC"/>
<path d="M242.071 55.3244C243.441 55.8099 243.704 55.661 244.122 54.2049C243.81 54.2059 243.498 54.2042 243.185 54.2062C241.894 54.2144 241.353 53.8696 241.021 52.8243C240.735 51.9262 241.171 50.5082 241.931 50.0062C242.843 49.4035 243.805 49.3637 244.769 49.8928C245.626 50.3631 245.917 51.1762 245.998 52.08C246.147 53.7369 245.815 55.2232 244.392 56.2828C243.665 56.8242 242.858 57.1109 241.974 56.7948C241.663 56.6832 241.435 56.3385 241.168 56.1003C241.444 55.8415 241.721 55.5827 242.071 55.3244ZM244.491 52.374C244.417 53.5092 244.343 54.6445 244.275 55.6837C245.262 55.2476 245.78 54.0197 245.629 52.0857C245.55 51.0763 245.037 50.4625 244.163 50.2433C244.209 50.8013 244.258 51.3893 244.186 51.9067C244.119 51.3269 244.051 50.6462 243.279 50.7734C243.02 50.8159 242.677 51.4674 242.703 51.8157C242.733 52.2138 243.049 52.7403 243.393 52.9213C243.72 53.0933 244.294 52.9723 244.491 52.374ZM242.582 50.6079C242.41 50.5718 242.19 50.4492 242.075 50.514C241.42 50.8812 241.157 52.0257 241.505 52.8278C241.901 53.7396 242.441 53.9733 243.601 53.6452C242.268 52.9844 242.02 51.9806 242.582 50.6079ZM242.112 56.4157C242.446 56.4157 242.779 56.4157 243.112 56.4157C243.12 56.3038 243.128 56.1919 243.135 56.0799C242.758 56.0214 242.381 55.9629 242.004 55.9044C241.996 56.056 241.987 56.2076 242.112 56.4157Z" fill="#ACACAC"/>
<path d="M204.15 52.3133C204.69 52.7461 205.231 53.1789 205.751 53.5955C205.751 52.7658 205.751 51.8074 205.751 50.9783C205.46 50.6205 205.204 50.3055 204.947 49.9905C205.016 49.9194 205.085 49.8483 205.153 49.7772C206.035 49.7772 206.917 49.7772 208.114 49.7772C207.805 50.1916 207.587 50.422 207.445 50.6924C207.3 50.9681 207.144 51.2818 207.139 51.5812C207.111 53.3051 207.125 55.0297 207.125 56.7239C206.123 57.0206 205.542 56.6226 205.065 55.8647C204.57 55.0784 203.993 54.3437 203.587 53.5885C204.56 54.5103 205.398 55.4298 206.395 56.5244C206.593 55.5617 206.679 55.1392 205.931 54.6289C205.167 54.1075 204.73 53.1051 204.15 52.3133Z" fill="#ACACAC"/>
<path d="M204.131 52.2607C204.73 53.1051 205.167 54.1075 205.931 54.6289C206.679 55.1392 206.593 55.5617 206.395 56.5244C205.398 55.4298 204.56 54.5102 203.649 53.5344C203.551 53.4573 203.536 53.4289 203.45 53.3466C203.311 53.2943 203.255 53.2883 203.198 53.2822C203.056 53.0999 202.913 52.9177 202.709 52.6488C202.465 52.3029 202.284 52.0436 202.093 51.7201C201.927 51.5211 201.736 51.41 201.623 51.2454C201.479 51.0352 201.397 50.7818 201.289 50.5471C201.498 50.4628 201.708 50.3784 201.979 50.2941C202.124 50.2941 202.206 50.2941 202.311 50.3438C202.443 50.4845 202.552 50.5756 202.668 50.7325C202.987 51.032 203.301 51.2656 203.614 51.4992C203.78 51.7355 203.947 51.9718 204.131 52.2607Z" fill="#ACACAC"/>
<path d="M201.917 50.2941C201.708 50.3784 201.498 50.4627 201.289 50.547C201.397 50.7818 201.479 51.0352 201.623 51.2453C201.736 51.41 201.927 51.5211 202.032 51.7289C201.965 51.9856 201.951 52.1693 201.936 52.353C201.931 53.2209 201.925 54.0888 201.875 55.0829C201.821 55.3542 201.823 55.5014 201.798 55.644C201.757 55.8853 201.757 56.1679 201.624 56.3456C201.553 56.4395 201.13 56.4266 201.056 56.3241C200.918 56.1333 200.911 55.8432 200.865 55.5916C200.826 55.3773 200.808 55.159 200.78 54.9425C200.786 53.578 200.792 52.2135 200.84 50.7267C201.041 50.3251 201.2 50.0457 201.359 49.7664C201.499 49.7576 201.639 49.7489 201.848 49.8192C201.917 50.0302 201.917 50.1622 201.917 50.2941Z" fill="#ACACAC"/>
<path d="M200.719 54.9795C200.808 55.1591 200.826 55.3773 200.865 55.5916C200.911 55.8432 200.918 56.1333 201.056 56.3242C201.13 56.4266 201.553 56.4395 201.624 56.3456C201.757 56.1679 201.757 55.8854 201.798 55.644C201.823 55.5014 201.821 55.3542 201.884 55.1687C202.181 55.3853 202.467 55.6154 202.655 55.908C202.799 56.1298 202.819 56.4313 202.913 56.7676C201.856 56.7676 200.911 56.7676 199.594 56.7676C199.943 56.3376 200.18 56.1041 200.344 55.8276C200.49 55.582 200.556 55.2887 200.719 54.9795Z" fill="#ACACAC"/>
<path d="M201.276 49.7532C201.2 50.0457 201.041 50.3251 200.832 50.6404C200.51 50.6763 200.238 50.6763 199.919 50.6763C199.919 50.3545 199.919 50.0926 199.919 49.74C200.351 49.74 200.772 49.74 201.276 49.7532Z" fill="#ACACAC"/>
<path d="M224.17 49.7533C224.399 50.0429 224.56 50.3194 224.72 50.5959C224.685 50.68 224.651 50.764 224.616 50.8481C224.23 50.7325 223.844 50.6168 223.457 50.5011C223.524 50.2959 223.591 50.0906 223.669 49.8259C223.82 49.7576 223.961 49.7489 224.17 49.7533Z" fill="#ACACAC"/>
<path d="M201.994 52.3705C201.951 52.1693 201.965 51.9856 202.041 51.7931C202.284 52.0436 202.465 52.3029 202.654 52.6234C202.458 52.5858 202.255 52.4869 201.994 52.3705Z" fill="#ACACAC"/>
<path d="M203.622 51.4533C203.301 51.2656 202.987 51.0319 202.711 50.7092C202.783 50.5665 202.819 50.5129 202.855 50.4594C203.114 50.7754 203.372 51.0914 203.622 51.4533Z" fill="#ACACAC"/>
<path d="M201.979 50.2941C201.917 50.1622 201.917 50.0302 201.917 49.8323C202.165 49.8943 202.413 50.0223 202.607 50.2206C202.464 50.292 202.376 50.2931 202.289 50.2941C202.206 50.2941 202.124 50.2941 201.979 50.2941Z" fill="#ACACAC"/>
<path d="M202.311 50.3438C202.376 50.2931 202.464 50.2921 202.617 50.2889C202.747 50.2908 202.796 50.32 202.843 50.4169C202.819 50.513 202.783 50.5666 202.704 50.6434C202.552 50.5756 202.443 50.4845 202.311 50.3438Z" fill="#ACACAC"/>
<path d="M203.224 53.3376C203.255 53.2882 203.311 53.2943 203.451 53.3265C203.439 53.3662 203.344 53.3796 203.224 53.3376Z" fill="#ACACAC"/>
<path d="M221.843 55.1304C221.771 55.3851 221.765 55.6967 221.609 55.8798C221.418 56.104 221.11 56.3175 220.835 56.3429C220.697 56.3557 220.38 55.9402 220.382 55.7201C220.393 54.1469 220.464 52.5742 220.52 51.0014C220.534 50.5907 220.385 50.0886 221.104 50.1053C221.764 50.1207 221.617 50.5856 221.633 50.9632C221.669 51.8252 221.694 52.6877 221.774 53.684C221.83 54.2555 221.836 54.6929 221.843 55.1304Z" fill="#ACACAC"/>
<path d="M244.306 51.9774C244.258 51.3893 244.209 50.8012 244.163 50.2433C245.037 50.4625 245.55 51.0763 245.629 52.0856C245.78 54.0197 245.262 55.2475 244.275 55.6837C244.343 54.6444 244.417 53.5092 244.412 52.2982C244.324 52.1408 244.315 52.0591 244.306 51.9774Z" fill="#ACACAC"/>
<path d="M242.557 50.6705C242.02 51.9805 242.268 52.9844 243.601 53.6451C242.441 53.9733 241.901 53.7395 241.505 52.8278C241.157 52.0256 241.42 50.8811 242.075 50.5139C242.19 50.4492 242.41 50.5718 242.557 50.6705Z" fill="#ACACAC"/>
<path d="M242.046 56.3874C241.987 56.2075 241.996 56.056 242.004 55.9044C242.381 55.9629 242.758 56.0214 243.135 56.0799C243.128 56.1918 243.12 56.3038 243.112 56.4157C242.779 56.4157 242.446 56.4157 242.046 56.3874Z" fill="#ACACAC"/>
</g>
<path d="M13.6765 114.945C13.6765 115.169 14.1818 115.505 14.7995 115.673C15.8663 116.008 15.9224 116.512 15.9224 123.338C15.9224 130.108 15.8663 130.612 14.7995 130.892C12.2727 131.563 13.9572 132.179 18.1684 132.179C20.639 132.179 22.6604 131.955 22.6604 131.675C22.6604 131.395 22.0989 131.06 21.4251 130.948C20.3021 130.78 20.1337 130.388 19.9652 127.535L19.7968 124.345H22.3235C24.3449 124.345 24.9064 124.569 25.1872 125.464C25.861 127.59 26.5909 126.583 26.5909 123.506C26.5909 120.429 25.861 119.421 25.1872 121.548C24.9064 122.443 24.3449 122.667 22.3235 122.667H19.8529V119.254V115.896L22.5481 116.064C24.6818 116.176 25.2995 116.456 25.7487 117.463C26.0294 118.19 26.4786 118.75 26.647 118.75C26.9839 118.75 27.7139 116.008 27.7139 114.889C27.7139 114.721 24.5695 114.554 20.6952 114.554C16.8208 114.554 13.6765 114.721 13.6765 114.945Z" fill="#ACACAC"/>
<path d="M38.3824 114.833C38.3824 115.001 38.8877 115.449 39.5053 115.84C40.5722 116.512 40.6283 117.015 40.516 123.394C40.3476 129.885 40.2914 130.276 39.1123 130.78C36.6417 131.843 37.877 132.179 44.615 132.179H51.3529L52.1952 130.22C53.7112 126.527 52.9251 125.352 51.016 128.43C50.0615 129.94 49.5 130.22 47.4225 130.388C45.8503 130.5 44.7834 130.332 44.5027 129.829C44.2219 129.437 43.9973 126.136 43.9973 122.555C43.9973 116.512 44.0535 116.008 45.1203 115.673C47.3663 114.945 46.131 114.442 42.3128 114.498C40.1791 114.498 38.3824 114.665 38.3824 114.833Z" fill="#ACACAC"/>
<path d="M68.0856 119.533C65.2219 127.59 63.8743 130.332 62.5829 130.78C60.3369 131.451 61.4037 132.179 64.7727 132.179C68.3102 132.179 68.8717 131.787 67.0187 130.668C66.0642 129.996 66.008 129.773 66.6818 127.87C67.3556 125.912 67.5802 125.744 69.7139 125.576C71.7914 125.408 72.1283 125.576 72.8583 127.087C73.9813 129.213 73.9813 131.06 72.9144 131.06C72.4652 131.06 72.0722 131.283 72.0722 131.619C72.0722 131.955 73.869 132.179 76.2834 132.179C80.2701 132.179 81.7299 131.507 79.4278 130.78C78.2487 130.444 77.0695 127.926 74.262 119.813C72.6337 115.225 72.1845 114.386 71.1738 114.386C70.1069 114.386 69.6577 115.169 68.0856 119.533ZM71.6791 123.898C71.3422 124.569 68.1417 124.457 68.1417 123.786C68.1417 123.506 68.5348 122.219 69.0963 120.932L69.9946 118.582L71.0053 121.044C71.5107 122.387 71.8476 123.674 71.6791 123.898Z" fill="#ACACAC"/>
<path d="M89.4786 116.904C89.4786 119.701 90.0962 119.981 90.9946 117.631C91.5561 116.176 91.893 115.952 93.6337 115.952H95.655V123.226V130.5L94.2513 130.836C91.4438 131.507 92.9599 132.179 97.2834 132.179C101.438 132.179 104.021 131.339 101.158 130.948C99.9224 130.78 99.8663 130.612 99.6978 123.338L99.5294 115.896L101.663 116.064C103.348 116.176 103.797 116.512 104.078 117.575C104.527 119.645 105.762 119.701 105.762 117.743C105.762 116.792 105.874 115.729 106.043 115.281C106.267 114.721 104.695 114.554 97.901 114.554H89.4786V116.904Z" fill="#ACACAC"/>
<path d="M116.43 114.889C116.43 115.113 116.936 115.505 117.553 115.673C118.62 116.008 118.676 116.512 118.676 123.338C118.676 130.108 118.62 130.612 117.553 130.892C115.083 131.563 116.655 132.179 120.642 132.179C124.628 132.179 126.201 131.563 123.73 130.892C122.663 130.612 122.607 130.108 122.607 123.282C122.607 116.176 122.663 115.896 123.898 115.393C124.572 115.113 125.021 114.833 124.853 114.777C123.842 114.442 116.43 114.498 116.43 114.889Z" fill="#ACACAC"/>
<path d="M134.96 114.833C134.96 115.057 135.465 115.393 136.083 115.561C137.15 115.84 137.206 116.344 137.206 123.226C137.206 130.108 137.15 130.612 136.083 130.892C133.612 131.563 135.184 132.179 139.171 132.179C143.158 132.179 144.73 131.563 142.259 130.892C141.305 130.668 141.136 130.108 141.136 127.479C141.136 123.17 141.922 123.282 145.011 128.15C147.032 131.339 148.436 132.179 151.58 132.179C153.658 132.179 154.163 131.339 152.422 130.78C151.356 130.444 148.099 126.807 146.92 124.681C146.414 123.786 146.583 123.282 147.93 122.051C149.952 120.205 150.008 118.246 148.211 116.176C146.92 114.665 146.695 114.61 140.912 114.498C137.655 114.442 134.96 114.61 134.96 114.833ZM143.551 116.008C145.235 116.904 145.628 117.575 145.628 119.981C145.628 122.219 144.561 123.226 142.316 123.226C141.249 123.226 141.136 122.89 141.136 119.701C141.136 115.281 141.417 114.889 143.551 116.008Z" fill="#ACACAC"/>
<path d="M167.078 115.225C162.08 117.687 160.845 125.185 164.775 129.605C167.695 132.906 173.591 133.354 177.521 130.556C182.294 127.199 182.126 118.862 177.128 115.561C174.826 113.994 169.885 113.826 167.078 115.225ZM174.096 116.232C175.949 117.519 177.241 121.604 176.96 124.961C176.398 130.332 172.861 132.626 169.38 129.717C165.898 126.807 165.449 119.757 168.481 116.4C169.604 115.169 172.468 115.113 174.096 116.232Z" fill="#ACACAC"/>
<path d="M191.671 114.777C191.671 115.001 192.289 115.505 193.075 115.84C194.422 116.456 194.479 116.624 194.479 122.667C194.479 128.989 193.973 131.06 192.513 131.06C192.064 131.06 191.671 131.283 191.671 131.619C191.671 131.955 193.243 132.179 195.321 132.179C199.027 132.179 200.15 131.507 197.567 130.836C196.163 130.5 196.163 130.388 196.163 124.905C196.163 121.827 196.275 119.31 196.388 119.31C196.5 119.31 198.802 122.219 201.497 125.744C205.316 130.724 206.719 132.179 207.73 132.179H209.078V124.625C209.078 117.743 209.19 116.96 210.201 116.12C210.818 115.561 211.324 115.001 211.324 114.777C211.324 114.61 209.808 114.442 207.955 114.442C204.305 114.442 203.799 114.833 205.989 115.84C207.337 116.456 207.393 116.68 207.393 121.548C207.393 124.289 207.337 126.583 207.225 126.583C207.112 126.583 204.866 123.898 202.227 120.54L197.398 114.554L194.535 114.442C192.963 114.386 191.671 114.498 191.671 114.777Z" fill="#ACACAC"/>
<path d="M88.2433 140.068C86.7834 140.851 87.008 142.642 88.6363 143.705C89.4224 144.208 90.0401 144.992 90.0401 145.383C90.0401 146.446 89.1978 146.39 88.0748 145.215C87.1765 144.32 87.1203 144.376 87.3449 145.383C87.5695 146.614 89.7593 147.118 90.9385 146.167C92.1176 145.104 91.893 143.593 90.3208 142.586C88.7486 141.579 88.4679 140.571 89.7593 140.571C90.2085 140.571 90.6016 140.907 90.6016 141.243C90.6016 141.746 90.77 141.69 91.1631 141.131C92.0615 139.732 90.0401 139.005 88.2433 140.068Z" fill="#ACACAC"/>
<path d="M103.797 140.348C103.291 140.851 103.011 141.635 103.179 142.082C103.348 142.474 103.179 143.313 102.842 143.929C102.337 144.712 102.337 145.16 102.898 145.831C103.741 146.838 105.537 147.006 106.043 146.167C106.267 145.775 106.773 145.831 107.503 146.223C108.963 147.006 109.58 146.446 108.682 145.048C108.176 144.208 108.176 143.817 108.906 143.089C109.693 142.362 109.636 142.25 108.626 142.25C107.896 142.25 107.447 142.586 107.447 143.145C107.447 143.929 107.278 143.929 106.604 143.369C105.93 142.81 105.874 142.474 106.38 141.914C106.885 141.299 106.829 140.907 106.324 140.292C105.425 139.229 104.92 139.229 103.797 140.348ZM105.481 141.131C105.65 141.411 105.537 141.69 105.257 141.69C104.92 141.69 104.639 141.411 104.639 141.131C104.639 140.795 104.751 140.571 104.864 140.571C105.032 140.571 105.313 140.795 105.481 141.131ZM105.594 145.383C105.088 145.943 103.46 144.488 103.853 143.817C104.078 143.481 104.583 143.593 105.088 144.152C105.594 144.6 105.818 145.215 105.594 145.383Z" fill="#ACACAC"/>
<path d="M121.372 140.068C119.856 140.907 120.136 142.474 122.102 143.873C123.337 144.768 123.674 145.327 123.225 145.775C122.832 146.167 122.27 146.055 121.428 145.271C120.249 144.208 120.249 144.208 120.417 145.327C120.698 146.614 122.832 147.118 124.067 146.167C125.246 145.104 125.021 143.593 123.449 142.586C121.877 141.579 121.596 140.571 122.888 140.571C123.337 140.571 123.73 140.907 123.73 141.243C123.73 141.746 123.898 141.69 124.291 141.131C125.19 139.732 123.168 139.005 121.372 140.068Z" fill="#ACACAC"/>
<path d="M179.206 140.068C177.746 140.907 177.971 142.586 179.767 143.817C180.89 144.656 181.115 145.16 180.666 145.607C180.217 146.055 179.767 145.999 179.094 145.271C178.588 144.768 177.971 144.544 177.802 144.712C177.016 145.495 179.206 146.894 180.722 146.502C182.968 145.943 183.08 144.6 181.059 142.698C180.104 141.802 179.43 140.795 179.599 140.515C180.048 139.844 180.217 139.844 181.227 140.907C182.013 141.635 182.126 141.635 182.126 140.963C182.126 140.515 181.733 139.956 181.227 139.788C180.16 139.396 180.385 139.34 179.206 140.068Z" fill="#ACACAC"/>
<path d="M42.8743 140.963C43.2112 141.523 43.7727 142.921 44.1658 144.04C45.0642 146.782 45.738 146.894 46.5241 144.488L47.1979 142.53L48.1524 144.712C49.1631 147.174 49.6685 147.006 50.7353 143.649C51.1283 142.418 51.6898 141.075 52.0267 140.683C52.4198 140.18 52.2513 140.012 51.4091 140.012C50.623 140.012 50.2861 140.292 50.5107 140.739C50.623 141.131 50.5668 142.082 50.2861 142.865C49.7808 144.208 49.7246 144.152 48.8262 142.082C47.8155 139.676 47.0856 139.732 46.5241 142.362C46.1872 143.873 46.0187 143.985 45.5695 143.145C45.2326 142.586 45.1203 141.69 45.2888 141.075C45.5134 140.236 45.2888 140.012 43.9412 140.012C42.5374 140.012 42.369 140.124 42.8743 140.963Z" fill="#ACACAC"/>
<path d="M56.7994 140.404C57.6978 140.739 57.6978 145.16 56.7994 146.055C56.2941 146.558 56.5187 146.726 57.9224 146.726C59.6631 146.726 60.2807 145.999 59.1577 145.327C58.3716 144.824 58.4278 141.523 59.27 140.683C59.7754 140.18 59.4946 140.012 58.0347 140.068C56.9679 140.068 56.4064 140.236 56.7994 140.404Z" fill="#ACACAC"/>
<path d="M64.6604 140.404C65.5588 140.739 65.5588 145.16 64.6604 146.055C64.1551 146.558 64.3235 146.726 65.5027 146.726C67.0187 146.726 67.5241 145.999 66.4572 145.327C65.7834 144.936 65.6711 142.25 66.3449 142.25C66.5695 142.25 67.4679 143.257 68.3102 144.488C69.2085 145.719 70.1631 146.726 70.4438 146.726C70.7246 146.726 70.9492 145.495 70.9492 144.04C70.9492 142.586 71.2299 141.075 71.623 140.683C72.1283 140.18 71.9599 140.012 70.6684 140.012C69.377 140.012 69.2085 140.18 69.7139 140.683C70.1069 141.075 70.3877 141.97 70.3877 142.754C70.3315 144.152 70.3315 144.152 68.5348 142.082C67.2995 140.683 66.2888 140.012 65.3342 140.068C64.5481 140.068 64.2674 140.236 64.6604 140.404Z" fill="#ACACAC"/>
<path d="M77.0134 142.53C77.1818 144.04 76.9572 145.439 76.508 145.943C75.8904 146.67 76.1711 146.782 78.8663 146.614C81.393 146.502 81.8984 146.279 82.0668 145.327C82.2353 144.432 82.123 144.32 81.5615 144.88C80.5508 145.887 78.8102 145.775 78.8102 144.824C78.8102 143.649 79.9893 143.089 80.5508 143.985C80.9438 144.6 81.0561 144.488 81.0561 143.537C81.0561 142.642 80.7754 142.418 79.9331 142.642C79.0909 142.865 78.8102 142.642 78.8102 141.746C78.8102 140.46 80.7754 140.068 81.2246 141.243C81.393 141.69 81.5615 141.579 81.5615 140.963C81.6176 140.18 81.1684 140.012 79.2032 140.012H76.8449L77.0134 142.53Z" fill="#ACACAC"/>
<path d="M130.187 143.369C130.187 146.502 130.299 146.726 131.479 146.726C132.545 146.726 132.658 146.502 132.377 145.383C132.096 144.264 132.265 143.985 133.332 143.817C134.005 143.705 134.848 143.257 135.128 142.698C136.027 141.299 134.623 140.012 132.209 140.012H130.187V143.369ZM133.556 141.97C133.556 142.53 133.219 143.089 132.882 143.201C132.433 143.369 132.152 142.921 132.152 141.97C132.152 141.019 132.433 140.571 132.882 140.683C133.219 140.851 133.556 141.411 133.556 141.97Z" fill="#ACACAC"/>
<path d="M140.463 140.683C141.305 141.523 141.361 144.208 140.575 145.663C140.013 146.614 140.182 146.726 141.81 146.726C143.214 146.726 143.438 146.558 142.933 146.055C142.035 145.16 142.035 140.739 142.989 140.404C143.326 140.236 142.765 140.068 141.754 140.068C140.238 140.012 139.957 140.18 140.463 140.683Z" fill="#ACACAC"/>
<path d="M148.324 140.627C149.166 141.523 149.222 144.152 148.436 145.663C147.874 146.614 148.043 146.726 149.559 146.726C151.075 146.726 151.187 146.614 150.57 145.607C149.503 143.929 150.401 143.705 151.973 145.271C152.816 146.055 153.882 146.726 154.388 146.726C155.23 146.726 155.23 146.614 154.275 145.551C153.658 144.824 153.209 143.537 153.209 142.306V140.292L150.401 140.124C148.155 139.956 147.706 140.068 148.324 140.627ZM151.693 141.802C151.58 142.53 151.299 143.089 150.963 143.089C150.682 143.089 150.345 142.53 150.233 141.802C150.12 140.963 150.345 140.571 150.963 140.571C151.58 140.571 151.805 140.963 151.693 141.802Z" fill="#ACACAC"/>
<path d="M159.048 140.515C159.61 140.851 159.722 141.802 159.553 143.873C159.273 146.502 159.385 146.726 160.452 146.726C161.519 146.726 161.631 146.39 161.631 143.369V140.012H159.947C158.767 140.012 158.487 140.18 159.048 140.515Z" fill="#ACACAC"/>
<path d="M166.685 140.627C166.46 140.963 166.46 141.355 166.685 141.579C166.909 141.802 167.246 141.635 167.358 141.243C167.527 140.907 167.976 140.571 168.425 140.571C169.436 140.571 169.548 145.048 168.537 146.055C168.032 146.558 168.257 146.726 169.66 146.726C171.401 146.726 172.019 145.999 170.896 145.327C169.941 144.768 170.222 140.571 171.176 140.571C171.626 140.571 172.019 140.795 172.019 141.131C172.019 141.411 172.299 141.69 172.58 141.69C172.917 141.69 173.142 141.299 173.142 140.851C173.142 140.236 172.412 140.012 170.11 140.012C168.425 140.012 166.853 140.292 166.685 140.627Z" fill="#ACACAC"/>
<g clip-path="url(#clip1_158_10112)">
<path d="M267.73 139.185C268.265 138.409 268.765 137.71 269.342 137.081C269.995 136.371 270.64 135.612 271.427 135.079C272.261 134.515 273.218 134.027 274.19 133.792C277.544 132.98 280.425 133.892 282.746 136.477C282.898 136.646 282.992 136.866 283.215 137.226C284.212 133.189 286.323 130.449 290.101 129.421C293.696 128.443 296.773 129.778 299.01 132.548C301.549 135.691 301.506 139.256 299.749 142.83C302.955 145.147 303.326 150.778 301.979 153.638C300.26 157.287 297.364 158.706 293.651 158.647C290.798 158.602 288.366 157.127 286.916 154.763C285.347 152.204 285.133 149.206 286.256 146.348C286.658 145.325 286.591 144.749 285.793 144.125C285.515 143.908 285.307 143.602 285.069 143.34C284.962 148.476 279.843 151.874 275.882 151.489C273.137 151.223 270.51 150.383 269.098 147.584C268.754 146.902 268.286 146.283 267.802 145.702C267.73 143.611 267.73 141.452 267.73 139.185ZM295.855 132.317C295.568 132.176 295.281 132.034 294.994 131.892C294.942 132.006 294.89 132.12 294.839 132.234C295.161 132.367 295.484 132.5 295.823 132.816C296.575 133.534 297.327 134.253 298.123 135.168C298.233 136.97 298.342 138.772 298.465 140.795C298.684 140.141 298.936 139.682 298.98 139.204C299.118 137.715 299.271 136.198 298.12 134.822C297.481 133.953 297.191 132.767 295.855 132.317ZM272.133 146.379C272.258 146.388 272.382 146.398 272.506 146.407C272.434 146.306 272.361 146.204 272.169 145.958C271.31 143.633 271.321 141.291 272.086 138.878C271.473 139.528 270.906 140.197 270.771 140.946C270.585 141.981 270.553 143.113 270.78 144.131C270.951 144.897 271.634 145.548 272.133 146.379ZM274.134 144.846C274.653 144.522 275.171 144.198 275.845 143.776C275.746 143.531 275.551 143.146 275.434 142.739C275.151 141.754 274.871 140.766 274.659 139.765C274.553 139.266 274.6 138.734 274.578 138.217C274.138 138.582 273.689 138.937 273.263 139.319C273.167 139.406 273.153 139.586 273.152 139.589C273.528 139.786 274.153 139.933 274.186 140.164C274.284 140.849 274.149 141.568 274.098 142.377C274.66 142.604 274.644 143.447 273.653 144.806C273.461 144.85 273.269 144.893 273.077 144.937C273.094 145 273.111 145.064 273.128 145.127C273.407 145.04 273.686 144.952 274.134 144.846ZM297.351 147.153C297.682 147.28 298.095 147.323 298.325 147.552C298.687 147.91 298.838 148.628 299.234 148.779C300.321 149.19 299.949 150.384 300.605 150.975C301.42 149.355 300.471 146.078 298.859 144.949C298.552 146.155 297.826 146.776 296.479 146.704C296.706 146.852 296.932 146.999 297.351 147.153ZM289.498 133.324C289.547 134.271 290.401 133.448 290.856 134.108C290.665 134.72 290.421 135.501 290.162 136.33C291.068 136.392 292.242 136.472 293.614 136.565C292.092 135.849 292.018 134.687 293.473 133.411C292.753 133.359 292.248 133.301 291.742 133.291C291.06 133.277 290.378 133.301 289.498 133.324ZM288.297 150.143C288.562 149.764 288.827 149.384 289.093 149.004C289.269 149.332 289.443 149.661 289.622 149.987C289.657 150.049 289.712 150.099 289.589 149.949C290.367 149.835 290.984 149.744 291.87 149.614C291.574 149.373 291.369 149.135 291.109 149.007C289.917 148.421 288.16 148.66 287.93 146.686C287.83 146.694 287.73 146.703 287.629 146.711C287.394 148.066 287.158 149.42 286.922 150.775C287.272 151.038 287.621 151.3 287.971 151.563C288.014 151.093 288.057 150.624 288.297 150.143ZM280.545 141.357C280.266 141.942 279.992 142.53 279.706 143.112C279.544 143.44 279.18 143.786 279.225 144.075C279.305 144.599 279.49 145.277 279.872 145.543C280.49 145.973 280.657 145.233 280.847 144.819C281.641 143.086 281.494 141.374 280.62 139.523C280.62 140.185 280.62 140.679 280.545 141.357ZM297.332 155.493C295.243 155.548 293.153 155.603 290.86 155.664C293.166 156.647 295.23 156.506 297.332 155.493ZM276.945 148.42C276.515 148.674 276.086 148.927 275.656 149.18C275.664 149.227 275.672 149.274 275.68 149.321C277.004 149.1 278.329 148.878 279.653 148.656C279.427 148.336 279.094 148.283 279.077 148.178C278.903 147.1 278.296 147.705 277.845 147.859C277.573 147.952 277.34 148.159 276.945 148.42ZM293.297 140.165C293.707 139.636 294.116 139.107 294.705 138.347C293.526 138.347 292.647 138.347 291.768 138.347C291.768 138.415 291.769 138.484 291.769 138.552C292.123 138.603 292.477 138.653 292.861 138.708C292.822 139.337 292.788 139.884 292.751 140.48C292.932 140.434 293.105 140.39 293.297 140.165ZM293.296 143.697C293.26 143.709 293.221 143.715 293.19 143.734C293.169 143.747 293.142 143.784 293.147 143.798C293.711 145.229 294.541 144.423 295.278 144.079C294.931 143.691 294.576 143.294 294.259 142.939C294.029 143.161 293.753 143.427 293.296 143.697ZM288.093 142.125C287.796 143.712 287.896 143.863 289.877 144.406C289.424 143.901 289.145 143.636 288.923 143.33C288.67 142.98 288.467 142.594 288.093 142.125ZM275.321 146.129C275.321 146.617 275.321 147.105 275.321 147.682C276.792 147.192 276.074 146.182 276.272 145.089C275.844 145.56 275.642 145.781 275.321 146.129Z" fill="#ACACAC"/>
<path d="M375.73 146.353C375.363 146.876 374.791 147.237 374.666 147.715C374.233 149.382 372.832 150.074 371.595 150.814C367.073 153.521 362.069 151.705 359.425 147.641C358.948 146.908 358.914 145.881 358.694 144.986C358.598 144.592 358.549 144.187 358.462 143.691C357.627 144.28 357.356 144.663 357.939 145.718C359.721 148.938 359.604 152.244 357.532 155.33C354.673 159.585 349.488 160.186 346.078 157.974C343.537 156.326 341.877 154.104 341.82 150.777C341.773 148.005 342.279 145.628 344.454 143.808C342.262 141.177 342.04 136.07 344.51 132.856C346.516 130.246 350.397 128.729 353.649 129.699C357.422 130.824 360.151 134.542 360.092 137.738C360.936 136.983 361.719 136.054 362.705 135.467C363.593 134.938 364.686 134.594 365.718 134.499C368.875 134.211 371.837 134.723 373.94 137.427C374.584 138.255 375.042 139.228 375.658 140.068C375.73 142.082 375.73 144.163 375.73 146.353ZM365.093 141.674C365.131 141.799 365.168 141.924 365.206 142.049C365.273 142.025 365.341 142.001 365.408 141.977C365.324 141.774 365.24 141.571 365.139 141.176C365.208 140.643 365.278 140.109 365.347 139.578C365.029 139.578 364.546 139.578 364.074 139.578C363.677 140.6 364.442 141.028 365.093 141.674ZM346.368 136.823C345.36 137.718 346.039 138.907 345.951 139.927C345.89 140.636 346.624 141.414 347.002 142.161C346.92 142.26 346.838 142.359 346.756 142.457C348.287 142.87 349.855 143.181 351.338 143.723C353.096 144.365 354.046 142.279 355.696 142.617C355.696 142.343 355.642 142.06 355.711 141.813C355.788 141.538 356.009 141.306 356.114 141.035C357.016 138.692 357.091 136.152 354.443 134.445C354.094 134.221 353.768 133.956 353.455 133.684C352.713 133.039 351.936 132.684 350.843 133.399C350.722 132.774 350.617 132.23 350.499 131.619C350.023 131.787 349.624 131.928 349.253 132.059C349.277 132.881 350.11 133.668 348.537 134.124C347.543 134.412 346.391 135.467 346.521 136.968C346.521 136.968 346.541 136.95 346.368 136.823ZM362.952 137.921C358.865 140.672 359.797 146.712 363.096 148.8C363.458 148.543 363.842 148.272 364.312 147.939C363.907 147.714 363.617 147.418 363.325 147.415C362.331 147.407 362.087 146.866 362.135 146.008C362.144 145.834 362.046 145.65 361.986 145.475C361.548 144.183 361.371 142.935 362.301 141.736C362.528 141.444 362.556 140.966 362.596 140.566C362.756 139.01 363.91 137.315 365.148 137.278C366.478 137.239 367.847 137.42 369.145 137.732C370.095 137.96 371.134 138.586 371.258 139.612C371.466 141.34 371.734 143.181 370.3 144.649C370.135 144.818 369.968 145.117 369.999 145.327C370.135 146.262 371.396 147.548 372.498 147.959C375.814 143.299 374.188 140.258 371.825 138.095C369.58 136.04 366.052 135.427 362.952 137.921ZM356.386 152.318C356.287 152.827 356.114 153.144 355.467 153.198C355.053 153.233 354.637 153.655 354.287 153.974C353.712 154.497 353.189 155.076 352.647 155.634C352.415 155.872 352.19 156.118 351.963 156.361C353.002 156.183 354.031 156.004 354.643 155.401C356.29 153.778 357.61 151.908 357.302 149.377C357.272 149.132 357.154 148.898 357.077 148.658C356.837 148.744 356.596 148.83 356.319 148.929C357.354 150.184 357.352 150.451 356.438 151.674C356.36 151.777 356.401 151.969 356.386 152.318ZM366.059 144.225C366.059 143.924 366.059 143.622 366.059 143.184C365.271 143.184 364.555 143.184 363.84 143.184C363.838 143.254 363.836 143.324 363.834 143.393C364.195 143.545 364.556 143.697 364.87 143.828C364.87 144.427 364.87 144.961 364.87 145.536C364.558 145.503 364.288 145.475 363.809 145.425C364.061 145.925 364.258 146.318 364.592 146.982C365.178 145.961 365.618 145.193 366.059 144.225ZM344.849 153.38C344.658 153.303 344.468 153.225 344.277 153.148C344.212 153.228 344.148 153.308 344.083 153.389C344.963 154.26 345.843 155.132 346.889 156.169C346.947 154.756 346.176 153.755 344.849 153.38ZM343.961 147.107C343.671 148.065 343.382 149.023 343.083 150.014C343.878 149.241 344.557 148.581 345.116 148.038C344.829 147.745 344.461 147.368 343.961 147.107Z" fill="#ACACAC"/>
<path d="M322.552 117.832C321.638 118.71 320.52 118.941 319.288 119.019C316.658 119.186 314.035 119.458 311.41 119.69C310.121 119.803 309.224 119.035 308.358 118.27C307.576 117.58 306.915 116.749 306.113 116.087C305.76 115.796 305.189 115.77 304.521 115.563C304.846 116.945 305.106 118.044 305.386 119.234C305.98 119.234 306.617 119.234 307.294 119.234C307.294 119.721 307.294 120.123 307.294 120.463C305.244 120.854 303.246 121.235 301.257 121.614C300.718 119.855 302.123 120.161 302.943 119.794C302.35 116.795 301.753 113.781 301.174 110.856C300.493 110.888 299.951 110.913 299.342 110.941C299.342 110.481 299.342 110.077 299.342 109.466C301.426 109.187 303.552 108.844 305.691 108.633C307.532 108.451 309.49 110.483 308.83 112.785C308.672 113.338 308.521 113.893 308.275 114.77C308.9 115.325 309.788 115.973 310.498 116.779C311.608 118.039 312.849 118.428 314.477 117.726C314.477 116.239 314.516 114.706 314.465 113.176C314.417 111.699 314.275 110.226 314.174 108.745C313.556 108.619 312.904 108.522 312.288 108.318C312.206 108.291 312.306 107.713 312.248 107.311C314.942 107.231 317.71 107.231 320.52 107.299C322.13 109.154 322.351 111.018 320.731 112.444C321.948 112.958 322.808 113.758 322.757 115.189C322.725 116.083 322.603 116.974 322.528 117.857C322.536 117.849 322.552 117.832 322.552 117.832ZM320.693 115.673C319.711 113.861 318.839 113.445 316.72 113.847C316.84 115.093 316.961 116.349 317.077 117.561C318.713 117.766 320.143 117.71 320.693 115.673ZM303.891 112.584C304.075 113.196 304.258 113.808 304.433 114.394C305.706 114.25 306.749 113.712 306.791 112.593C306.826 111.667 306.063 110.81 305.046 110.478C304.686 110.361 304.278 110.387 303.892 110.347C303.886 110.758 303.878 111.168 303.876 111.578C303.875 111.847 303.881 112.115 303.891 112.584ZM318.6 108.935C317.944 108.798 317.288 108.66 316.602 108.516C316.602 109.851 316.602 110.943 316.602 112.052C317.794 112.148 318.794 111.993 319.346 110.791C319.714 109.988 319.277 109.521 318.6 108.935Z" fill="#ACACAC"/>
<path d="M311.591 173.231C311.226 172.86 310.802 172.514 310.742 172.113C310.538 170.742 310.402 169.354 310.36 167.968C310.337 167.188 310.549 166.401 310.606 165.988C310.091 165.231 309.764 164.752 309.437 164.272C309.518 164.168 309.598 164.064 309.678 163.96C311.016 164.068 312.354 164.176 313.74 164.287C313.74 164.717 313.74 165.119 313.74 165.575C313.335 165.575 312.963 165.575 312.268 165.575C312.237 167.374 312.118 169.14 312.254 170.887C312.281 171.228 313.282 171.687 313.862 171.733C314.342 171.771 314.94 171.364 315.34 170.995C315.631 170.727 315.783 170.21 315.827 169.786C315.958 168.512 316.005 167.229 316.093 165.822C315.036 166 314.439 165.701 314.804 164.41C315.663 164.502 316.549 164.669 317.436 164.679C320.387 164.714 323.338 164.731 326.288 164.674C327.517 164.65 328.741 164.373 329.972 164.313C330.318 164.297 330.682 164.644 330.846 164.727C331.297 164.495 331.753 164.135 332.262 164.024C333.241 163.812 334.251 163.742 335.259 163.611C335.629 164.853 335.531 165.002 334.091 165.244C334.307 166.705 334.507 168.169 334.743 169.628C334.956 170.941 335.319 171.184 336.593 170.912C336.952 170.836 337.299 170.704 337.735 170.572C337.735 170.387 337.658 170.123 337.753 169.956C337.894 169.705 338.156 169.523 338.367 169.312C338.539 169.6 338.834 169.88 338.854 170.178C338.885 170.649 338.829 171.18 338.623 171.593C338.468 171.906 338.048 172.222 337.702 172.281C336.411 172.504 335.1 172.615 333.8 172.789C333.674 172.806 333.567 172.968 333.52 173.147C333.044 173.231 332.498 173.231 331.85 173.131C331.489 171.886 332.1 171.484 333.113 171.529C332.801 169.501 332.505 167.568 332.203 165.602C331.744 165.627 331.421 165.645 330.998 165.668C330.891 167.308 330.79 168.874 330.666 170.779C330.223 170.256 329.933 169.913 329.657 169.587C329.16 169.587 328.633 169.587 327.904 169.587C328.741 170.42 327.392 172.392 329.675 172.121C329.675 172.548 329.675 172.889 329.675 173.231C328.212 173.231 326.748 173.231 325.177 173.134C324.933 171.96 325.952 172.322 326.517 171.869C326.347 170.013 326.169 168.07 325.993 166.141C325.562 166.075 325.221 166.024 324.857 165.968C324.638 167.557 324.423 169.109 324.167 170.967C323.778 170.532 323.504 170.226 323.144 169.824C322.782 169.824 322.224 169.824 321.58 169.824C321.696 170.658 321.802 171.427 321.915 172.25C322.261 172.291 322.624 172.333 322.997 172.376C322.997 172.694 322.997 172.962 322.997 173.231C321.534 173.231 320.07 173.231 318.499 173.13C318.218 171.782 319.305 172.568 319.818 172.105C319.818 170.186 319.818 168.152 319.818 166.14C319.075 166.14 318.519 166.14 317.896 166.14C317.828 167.249 317.804 168.303 317.687 169.347C317.598 170.152 317.466 170.969 317.214 171.734C317.037 172.273 316.626 172.735 316.319 173.231C314.779 173.231 313.239 173.231 311.591 173.231ZM329.996 166.062C329.291 166.062 328.587 166.062 327.748 166.062C327.895 166.837 328.015 167.467 328.114 167.989C328.636 167.953 329.081 167.922 329.671 167.882C329.812 167.358 329.968 166.778 329.996 166.062ZM321.616 167.739C321.782 167.95 321.933 168.329 322.116 168.345C323.165 168.435 323.912 167.533 323.821 166.37C321.748 166.21 321.748 166.21 321.616 167.739Z" fill="#ACACAC"/>
<path d="M330.265 107.231C331.001 109.205 331.632 111.181 332.272 113.154C332.692 114.449 333.214 115.719 333.524 117.039C333.794 118.184 334.577 118.413 335.516 118.536C335.985 118.598 336.458 118.638 337.138 118.711C337.711 116.133 338.339 113.511 338.837 110.864C338.909 110.478 338.407 109.943 338.093 109.538C337.897 109.285 337.456 109.204 337.304 108.942C337.145 108.667 337.15 108.26 337.198 107.927C337.209 107.853 337.719 107.764 337.963 107.825C338.928 108.071 339.884 108.358 340.833 108.666C341.052 108.737 341.303 108.908 341.407 109.104C342.048 110.312 342.631 111.55 343.27 112.758C344.168 114.456 345.099 116.136 346.291 117.812C346.773 115.88 347.254 113.948 347.733 112.027C345.983 111.428 345.983 111.428 346.102 109.983C347.061 110.244 348.002 110.508 348.949 110.753C349.272 110.836 349.607 110.905 349.938 110.916C351.089 110.955 351.089 110.945 351.048 112.224C350.471 112.224 349.894 112.224 349.046 112.224C348.193 115.582 347.313 119.049 346.38 122.72C346.14 122.572 345.579 122.425 345.394 122.077C344.667 120.714 344.093 119.27 343.398 117.89C342.465 116.035 341.471 114.21 340.503 112.373C340.42 112.215 340.329 112.062 340.13 111.707C339.542 114.24 339.002 116.569 338.463 118.891C340.023 120.019 340.023 120.019 339.935 120.94C338.699 120.667 337.492 120.332 336.263 120.145C334.413 119.863 332.553 119.601 330.688 119.495C329.703 119.439 329.222 119.239 329.517 118.108C330.136 118.108 330.777 118.108 331.434 118.108C330.923 115.771 330.923 115.771 328.545 115.769C328.315 115.769 328.083 115.787 327.855 115.766C326.308 115.621 326.183 115.728 325.982 117.367C325.965 117.506 325.893 117.638 325.832 117.816C326.032 117.827 326.221 117.853 326.407 117.843C326.964 117.813 327.528 117.916 327.324 118.602C327.238 118.891 326.63 119.183 326.252 119.194C325.355 119.218 324.455 119.068 323.555 119.002C322.94 118.957 322.421 118.831 322.545 117.93C322.552 117.832 322.536 117.849 322.617 117.828C323.963 117.755 324.695 117.123 324.83 115.84C324.834 115.802 324.828 115.758 324.845 115.727C325.708 114.141 326.645 112.59 327.415 110.959C327.975 109.771 328.315 108.477 328.754 107.231C329.224 107.231 329.694 107.231 330.265 107.231ZM327.937 112.778C327.722 113.271 327.507 113.765 327.264 114.324C328.316 114.324 329.211 114.324 330.246 114.324C329.833 113.189 329.458 112.155 329.001 110.898C328.604 111.627 328.329 112.134 327.937 112.778Z" fill="#ACACAC"/>
<path d="M333.326 125.689C335.564 127.534 337.515 129.595 338.809 132.098C339.644 133.71 340.145 135.562 340.456 137.366C341.106 141.128 340.958 144.921 339.531 148.491C338.833 150.237 337.581 151.76 336.581 153.385C334.943 156.047 332.368 157.555 329.651 158.777C328.061 159.491 326.322 159.968 324.6 160.259C323.182 160.499 321.686 160.23 320.233 160.323C316.706 160.549 313.821 158.948 311.003 157.162C308.437 155.535 306.656 153.202 305.117 150.61C303.275 147.507 302.751 144.119 302.769 140.624C302.777 139.184 303.196 137.747 303.423 136.307C303.98 132.768 305.863 129.902 308.289 127.451C311.285 124.425 314.94 122.309 319.2 121.832C323.267 121.377 327.31 121.783 330.869 124.218C331.634 124.742 332.448 125.195 333.326 125.689ZM326.724 137.395C326.916 137.405 327.109 137.415 327.548 137.437C327.164 137.247 327.011 137.171 326.754 136.969C326.6 136.595 326.566 136.107 325.947 136.632C325.727 136.818 325.042 136.774 324.834 136.568C324.603 136.338 324.498 135.713 324.648 135.418C325.085 134.561 325.522 133.576 326.249 133.026C327.112 132.373 328.25 132.026 329.319 131.719C330.325 131.43 330.655 132.276 330.313 132.92C329.853 133.786 330.193 134.387 330.577 135.296C330.889 134.801 331.058 134.352 331.377 134.079C331.682 133.817 332.135 133.685 332.543 133.621C332.629 133.607 332.8 134.137 333.01 134.585C333.289 133.708 332.729 132.611 334.016 132.476C334.034 132.474 334.046 132.338 334.048 132.264C334.07 131.463 334.498 130.873 335.261 131.065C335.636 131.159 335.917 131.902 336.105 132.403C336.378 133.135 336.529 133.913 336.716 134.612C337.079 134.16 337.39 133.851 337.597 133.483C337.692 133.315 337.65 132.998 337.554 132.807C337.34 132.38 337.037 131.999 336.799 131.582C336.354 130.802 335.786 130.452 334.806 130.506C332.858 130.615 330.898 130.573 328.946 130.517C328.375 130.501 327.812 130.23 327.246 130.076C326.679 129.922 326.12 129.686 325.544 129.632C324.152 129.502 322.74 129.543 321.358 129.354C319.981 129.165 319.718 129.175 318.659 130.493C320.476 129.551 321.169 131.171 322.276 131.869C322.331 133.369 321.423 135.068 319.951 135.697C321.211 135.798 322.276 135.866 322.137 137.493C323.235 136.154 323.855 137.038 324.516 137.34C325.232 137.31 325.948 137.28 326.724 137.395ZM315.936 139.309C315.587 139.614 313.128 139.666 312.656 139.39C312.52 139.31 312.352 139.211 312.21 139.226C311.546 139.298 310.877 139.518 310.224 139.473C309.455 139.42 308.7 139.15 307.628 138.902C308.866 140.23 308.858 140.141 310.166 140.029C311.54 139.911 312.897 139.867 314.126 140.876C316.063 142.465 318.31 143.291 320.879 143.008C321.409 142.95 321.951 143 322.488 143C324.457 143 325.309 142.397 325.973 140.49C324.212 140.57 322.385 141.189 320.713 139.818C320.659 139.882 320.552 140.03 320.424 140.155C320.295 140.282 320.144 140.387 320.017 140.49C319.214 139.901 318.974 139.895 318.224 140.197C318.016 140.281 317.69 140.204 317.468 140.097C317.003 139.872 316.57 139.579 315.936 139.309ZM312.303 129.858C311.8 129.31 311.297 128.762 310.945 128.379C307.526 129.123 306.698 132.097 305.158 134.534C305.512 134.806 305.765 135.001 306.02 135.198C306.258 134.479 306.387 133.81 306.713 133.257C306.824 133.068 307.617 132.999 307.775 133.172C308.432 133.891 308.966 134.723 309.477 135.421C309.884 133.835 310.339 132.065 310.817 130.205C311.316 130.325 311.668 130.455 312.025 130.47C312.143 130.475 312.272 130.181 312.303 129.858ZM305.817 144.404C306.403 143.693 306.989 142.981 307.6 142.241C306.745 141.318 307.05 139.395 305.718 138.722C305.05 138.929 304.605 139.067 304.16 139.206C304.047 139.213 303.934 139.221 303.821 139.228C303.967 140.887 304.082 142.55 304.276 144.203C304.361 144.926 304.206 145.919 305.396 145.855C305.509 145.421 305.62 144.993 305.817 144.404ZM337.505 141.823C337.441 142.059 337.377 142.294 337.313 142.53C337.127 142.404 336.944 142.272 336.752 142.156C336.441 141.97 336.138 141.757 335.804 141.626C335.485 141.501 335.13 141.465 334.668 141.363C334.867 141.736 335.077 142.098 335.257 142.475C336.052 144.137 337.109 144.525 338.626 143.701C339.742 143.094 339.742 143.094 339.469 142.135C338.713 141.943 338.111 141.79 337.505 141.823ZM331.677 142.087C332.681 142.055 332.202 141.278 332.16 140.901C332.079 140.164 331.786 139.449 331.57 138.691C332.087 138.628 332.329 138.598 332.839 138.536C332.173 137.931 331.67 137.475 331.181 137.031C330.894 137.532 330.625 138.003 330.356 138.474C330.493 138.478 330.63 138.482 330.767 138.486C331.504 140.621 330.898 142.805 330.527 144.982C331.789 144.334 331.697 143.292 331.677 142.087ZM319.375 154.537C318.912 154.476 318.448 154.415 317.795 154.329C318.029 155.268 318.232 156.082 318.435 156.896C318.543 156.869 318.651 156.842 318.759 156.815C319.02 154.802 319.02 154.802 320.743 155.164C320.743 155.701 320.743 156.256 320.743 156.782C321.228 156.782 321.626 156.782 322.016 156.782C322.016 156.009 322.016 155.302 322.016 154.538C321.163 154.538 320.368 154.538 319.375 154.537ZM314.109 138.154C315.007 138.234 315.017 137.608 314.914 137.028C314.855 136.691 314.594 136.145 314.379 136.123C313.423 136.024 312.452 136.08 311.51 136.08C311.51 136.694 311.51 137.143 311.51 137.741C311.623 137.529 311.647 137.419 311.715 137.368C312.091 137.086 312.457 136.632 312.864 136.589C313.418 136.531 313.624 137.02 313.576 137.597C313.561 137.772 313.789 137.967 314.109 138.154ZM316.839 137.643C318.027 138.257 318.428 137.253 319.082 136.624C318.283 136.4 317.581 136.203 316.783 135.979C316.783 136.621 316.783 137.037 316.839 137.643ZM309.41 151.912C309.449 152.386 309.487 152.861 309.525 153.336C309.619 153.331 309.713 153.326 309.808 153.321C309.845 153.07 309.8 152.663 309.934 152.591C311.58 151.709 310.467 151.227 309.57 150.58C309.508 151.02 309.459 151.368 309.41 151.912ZM333.371 153.669C333.52 153.553 333.789 153.446 333.797 153.321C333.84 152.664 333.817 152.003 333.817 151.132C333.264 151.565 332.896 151.852 332.672 152.027C332.922 152.555 333.141 153.02 333.371 153.669Z" fill="#ACACAC"/>
<path d="M298.756 167.148C298.588 167.736 298.433 168.237 298.378 168.749C298.359 168.933 298.569 169.152 298.696 169.34C298.943 169.705 299.205 170.059 299.461 170.418C299.361 170.554 299.261 170.691 299.161 170.827C297.757 170.46 296.352 170.092 294.932 169.721C294.932 169.286 294.932 168.908 294.932 168.534C294.989 168.486 295.044 168.4 295.094 168.403C296.283 168.466 296.722 168.029 296.982 166.667C297.218 165.436 297.534 164.22 297.805 163.036C296.674 161.607 295.922 162.777 295.126 163.696C295.008 163.611 294.891 163.525 294.774 163.44C295.003 162.557 295.203 161.664 295.492 160.8C295.534 160.674 296.028 160.584 296.259 160.655C298.055 161.206 299.814 161.89 301.63 162.355C303.314 162.787 305.093 162.868 306.75 163.369C307.505 163.597 308.405 164.349 308.649 165.065C309.185 166.635 308.721 167.576 307.533 168.319C308.286 169.738 309.043 171.162 309.847 172.675C307.636 172.858 307.11 172.423 306.172 170.066C305.929 169.456 305.527 168.909 305.043 168.062C304.803 168.84 304.627 169.2 304.599 169.572C304.577 169.861 304.665 170.367 304.831 170.428C305.682 170.739 305.525 171.355 305.438 172.123C303.997 171.849 302.594 171.583 301.163 171.311C301.163 170.882 301.163 170.474 301.163 169.991C301.6 170.014 301.99 170.034 302.566 170.064C302.834 168.751 303.129 167.307 303.423 165.863C303.475 165.607 303.505 165.346 303.578 165.096C303.776 164.423 303.766 163.883 302.94 163.897C302.706 164.345 302.462 164.812 302.218 165.278C302.099 165.231 301.981 165.183 301.862 165.136C301.835 164.73 301.809 164.323 301.781 163.888C301.293 163.782 300.795 163.591 300.301 163.6C300.042 163.605 299.64 163.912 299.558 164.165C299.252 165.114 299.05 166.096 298.756 167.148ZM305.377 166.982C305.606 166.987 305.844 167.034 306.064 166.99C306.76 166.853 307.062 166.318 306.837 165.734C306.675 165.315 306.154 165.036 305.794 164.694C305.618 165.09 305.396 165.474 305.281 165.888C305.202 166.172 305.271 166.497 305.377 166.982Z" fill="#ACACAC"/>
<path d="M289.539 116.755C290.217 118.406 290.723 120.045 291.513 121.534C291.809 122.092 292.794 122.639 293.412 122.585C294.301 122.507 295.152 121.898 295.998 121.473C296.94 120.998 296.898 120.21 296.556 119.381C295.657 117.203 294.745 115.031 293.842 112.866C293.092 113.028 292.465 113.164 291.785 113.31C291.59 112.482 291.581 112.006 292.543 111.733C294.16 111.274 295.715 110.595 297.3 110.008C297.549 111.341 297.549 111.341 296.341 111.953C297.094 114.105 297.869 116.246 298.593 118.405C299.308 120.537 298.641 122.225 296.637 123.146C295.41 123.709 294.127 124.226 292.814 124.504C290.937 124.901 289.818 123.856 289.127 122.163C288.375 120.319 287.521 118.517 286.73 116.688C286.616 116.425 286.602 116.118 286.523 115.741C285.968 115.838 285.434 115.932 284.829 116.038C284.829 115.558 284.829 115.15 284.829 114.839C286.694 114.119 288.535 113.408 290.466 112.662C290.466 113.193 290.466 113.602 290.466 114.048C289.989 114.306 289.475 114.585 288.904 114.893C289.104 115.514 289.292 116.099 289.539 116.755Z" fill="#ACACAC"/>
<path d="M348.135 123.248C348.102 122.782 348.102 122.407 348.102 121.916C348.738 122.118 349.255 122.282 350.093 122.547C351.293 119.802 352.511 117.018 353.765 114.15C353.226 113.861 352.785 113.624 352.284 113.355C352.284 113.009 352.284 112.6 352.284 111.924C352.819 112.138 353.269 112.297 353.701 112.494C354.977 113.073 356.245 113.671 357.519 114.254C358.218 114.575 358.221 114.569 358.154 115.533C357.466 115.444 356.779 115.354 355.939 115.245C354.754 118.075 353.581 120.876 352.401 123.694C353.254 124.113 354.168 124.401 353.707 125.871C351.847 125.021 350.008 124.18 348.135 123.248Z" fill="#ACACAC"/>
<path d="M339.416 170.53C339.64 170.319 339.932 170.135 339.907 170.021C339.498 168.176 339.048 166.34 338.592 164.432C337.822 164.689 337.079 164.836 337.293 163.648C337.331 163.439 337.568 163.136 337.753 163.103C339.541 162.784 341.337 162.514 343.232 162.214C343.425 162.967 343.631 163.771 343.837 164.575C343.762 164.665 343.687 164.755 343.612 164.845C342.73 164.016 341.815 163.4 340.59 164.242C340.72 164.879 340.862 165.575 341.02 166.348C341.767 166.082 342.786 166.308 342.573 165.032C343.572 164.945 344.006 165.874 343.906 167.886C343.058 168.154 342.385 166.283 341.434 167.869C341.474 168.077 341.49 168.58 341.677 169.008C341.81 169.313 342.193 169.745 342.427 169.723C342.948 169.674 343.464 169.41 343.942 169.158C344.087 169.082 344.077 168.744 344.188 168.556C344.28 168.4 344.446 168.289 344.579 168.158C344.677 168.285 344.836 168.401 344.862 168.542C344.986 169.2 345.073 169.865 345.177 170.553C343.054 171.094 341.03 171.61 339.007 172.126C338.916 172.058 338.824 171.989 338.733 171.921C338.934 171.477 339.135 171.033 339.416 170.53Z" fill="#ACACAC"/>
<path d="M347.665 168.476C348.004 168.133 348.28 167.857 348.556 167.581C348.235 167.312 347.951 166.968 347.586 166.787C346.775 166.387 345.907 166.103 345.094 165.707C343.87 165.111 343.985 163.879 344.259 162.963C344.483 162.213 345.292 161.558 345.984 161.058C346.448 160.722 347.159 160.729 347.931 160.541C348.253 161.477 348.58 162.429 348.906 163.381C348.817 163.462 348.728 163.543 348.638 163.624C348.367 163.479 348.004 163.402 347.841 163.178C347.078 162.132 346.517 162.149 345.429 163.494C346.332 163.834 347.161 164.169 348.005 164.459C349.856 165.094 350.56 166.231 350.148 168.101C350.066 168.476 349.822 168.963 349.514 169.114C348.31 169.705 347.051 170.182 345.682 170.756C345.409 169.515 345.204 168.583 344.999 167.651C345.082 167.56 345.166 167.468 345.25 167.377C345.549 167.562 345.93 167.683 346.128 167.945C346.521 168.466 346.907 168.839 347.665 168.476Z" fill="#ACACAC"/>
<path d="M354.758 139.293C355.112 140.097 355.316 140.915 354.477 141.532C354.014 141.872 352.127 141.278 352.016 141.037C351.462 141.162 350.974 141.306 350.475 141.374C350.089 141.427 349.66 141.475 349.307 141.356C349.021 141.259 348.819 140.91 348.687 140.779C348.506 140.96 348.219 141.248 347.932 141.536C347.828 141.474 347.725 141.411 347.622 141.348C347.657 140.575 347.691 139.802 347.724 139.084C347.405 139.007 346.736 139.022 346.626 138.781C346.409 138.306 346.504 137.689 346.505 137.04C346.541 136.95 346.521 136.968 346.513 136.977C347.706 137.419 348.874 136.423 349.724 136.97C350.049 136.152 350.197 135.444 350.582 134.907C351.011 134.31 351.735 134.991 351.78 136.086C351.791 136.349 351.781 136.613 351.781 137.054C352.714 137.054 353.597 137.054 354.505 137.054C354.538 137.81 354.57 138.529 354.688 139.279C354.774 139.308 354.758 139.293 354.758 139.293Z" fill="#ACACAC"/>
<path d="M354.782 139.317C354.785 138.791 354.716 138.245 354.8 137.725C354.849 137.421 355.145 137.156 355.541 136.973C355.188 137.74 356.615 138.921 354.861 139.3C354.758 139.293 354.774 139.308 354.782 139.317Z" fill="#ACACAC"/>
</g>
<g clip-path="url(#clip2_158_10112)">
<path d="M27.426 226.004L26.2837 226.447L27.5253 228.023C29.4127 230.485 30.0583 233.833 29.363 237.083C29.0153 238.561 28.6677 239.742 28.5683 239.742C28.4193 239.742 27.3267 239.102 26.085 238.314C19.529 234.178 11.036 235.36 5.92033 241.121C0.109325 247.67 0.357659 260.129 6.56599 272.39C8.20499 275.689 8.70166 276.034 7.70833 273.227C5.22499 266.235 4.67866 256.583 6.46666 250.871C7.36066 248.114 8.05599 246.981 10.3407 244.667C12.675 242.303 13.718 241.663 16.102 240.974C21.4163 239.447 26.383 240.678 30.9523 244.667L33.1873 246.636L36.1177 245.11C44.6107 240.777 54.5937 244.814 57.226 253.727C57.822 255.697 57.822 255.697 58.0207 254.318C58.3187 252.053 57.1763 246.735 55.885 244.174C54.246 240.974 50.223 237.477 47.0443 236.542C42.5247 235.212 36.6143 235.951 33.6343 238.265C32.939 238.807 32.2933 239.25 32.1443 239.25C32.045 239.25 32.1443 238.216 32.3927 236.886C32.641 235.606 32.6907 232.947 32.5417 230.977C32.2437 227.826 32.045 227.333 31.0517 226.939C30.406 226.693 29.7603 226.25 29.5617 226.004C29.214 225.364 28.9657 225.364 27.426 226.004Z" fill="#ACACAC"/>
<path d="M12.9233 254.515C12.9233 255.992 12.973 255.992 15.655 255.992H18.337L18.486 263.231L18.635 270.519L20.274 270.667L21.8633 270.814V263.428V255.992H24.595C27.277 255.992 27.3267 255.992 27.3267 254.515V253.038H20.125H12.9233V254.515Z" fill="#ACACAC"/>
<path d="M50.521 253.333C50.3223 253.53 50.1733 254.958 50.1733 256.534V259.341L48.6336 258.602C46.647 257.617 43.518 258.011 41.9286 259.489C39.2466 262 39.2466 266.727 41.9286 269.239C43.5676 270.765 47.1933 271.208 48.882 270.076C50.4216 269.091 50.67 269.091 50.67 270.076C50.67 270.617 51.0673 270.765 52.0606 270.667L53.4016 270.519V261.902V253.284L52.16 253.136C51.4646 253.038 50.7196 253.136 50.521 253.333ZM49.18 262C51.8123 264.856 48.7826 269.288 45.157 267.811C43.667 267.17 42.5743 264.905 43.071 263.477C44.0146 260.769 47.2926 259.981 49.18 262Z" fill="#ACACAC"/>
<path d="M66.0667 256.239V259.489L64.5767 258.701C62.6893 257.765 60.951 257.765 58.7657 258.799C54.7427 260.67 54.5937 267.958 58.567 269.977C60.4543 270.962 63.5337 271.011 64.9243 270.027C65.868 269.386 66.017 269.386 66.2653 270.027C66.4143 270.42 67.1097 270.765 67.805 270.765H69.0467V261.902V253.038H67.5567H66.0667V256.239ZM64.7257 261.754C67.0103 264.265 65.421 267.958 62.0933 267.958C59.014 267.958 57.4743 264.265 59.61 262C60.9013 260.67 63.5833 260.572 64.7257 261.754Z" fill="#ACACAC"/>
<path d="M77.49 261.902V270.814L83.599 270.667L89.6583 270.519L89.8073 269.189L89.9563 267.86L85.3373 267.712L80.7183 267.564L80.5693 260.277L80.4203 253.038H78.98H77.49V261.902Z" fill="#ACACAC"/>
<path d="M28.469 258.947C25.5387 260.67 24.5453 264.314 26.085 267.515C28.171 271.898 35.4223 271.898 37.5083 267.515C40.3393 261.606 34.0317 255.598 28.469 258.947ZM33.5847 261.311C34.3793 261.803 35.2733 263.674 35.2733 264.758C35.2733 266.087 33.7833 267.712 32.194 268.106C29.214 268.795 27.0783 264.117 29.3133 261.902C30.3067 260.917 32.5417 260.621 33.5847 261.311Z" fill="#ACACAC"/>
<path d="M95.0224 258.701C92.7874 259.636 91.7444 261.902 91.9927 265.25C92.1914 267.564 92.4894 268.205 93.8304 269.386C95.072 270.47 95.8667 270.765 97.754 270.765C99.095 270.765 100.585 270.42 101.231 269.977C102.224 269.288 102.323 269.288 102.323 269.977C102.323 270.519 102.82 270.765 103.813 270.765H105.303V264.61V258.455H103.813C103.019 258.455 102.323 258.701 102.323 258.947C102.323 259.242 101.678 259.144 100.833 258.701C99.0454 257.814 97.1084 257.765 95.0224 258.701ZM100.039 260.966C102.522 262.099 102.87 266.038 100.684 267.564C99.1944 268.599 97.7044 268.5 96.1647 267.269C94.0787 265.644 94.5754 261.902 97.009 260.917C98.499 260.326 98.5984 260.326 100.039 260.966Z" fill="#ACACAC"/>
<path d="M126.163 258.75C125.071 259.242 124.375 259.292 124.276 258.947C124.177 258.701 123.531 258.455 122.885 258.455H121.693V264.61V270.765H123.183H124.673V266.924C124.673 262.492 125.418 260.917 127.604 260.917C130.286 260.917 130.882 261.902 131.08 266.58L131.229 270.814L132.57 270.667C133.862 270.519 133.862 270.519 133.862 266.284C133.862 261.557 133.216 259.784 131.031 258.652C129.342 257.765 128.349 257.814 126.163 258.75Z" fill="#ACACAC"/>
<path d="M139.573 258.602C138.928 258.947 137.835 259.981 137.189 260.917C136.246 262.345 136.047 263.083 136.246 265.053C136.444 267.121 136.792 267.761 138.332 269.189C140.12 270.814 140.318 270.864 143.348 270.667C147.073 270.42 148.811 269.337 147.47 268.057C146.825 267.367 146.378 267.367 144.441 267.86C142.454 268.402 142.007 268.352 140.865 267.663C140.169 267.17 139.573 266.481 139.573 266.087C139.573 265.496 140.467 265.349 144.292 265.349H149.01V263.724C149.01 261.705 147.371 259.045 145.732 258.455C143.994 257.765 141.063 257.864 139.573 258.602ZM144.937 261.212C146.725 262.443 146.179 262.886 142.802 262.886C141.014 262.886 139.573 262.689 139.573 262.443C139.573 261.705 141.659 260.424 142.802 260.424C143.348 260.424 144.341 260.769 144.937 261.212Z" fill="#ACACAC"/>
<path d="M108.879 264.413L111.313 270.371L110.518 272.439C110.022 273.523 109.525 274.754 109.426 275.098C109.227 275.591 109.575 275.739 110.816 275.591C112.505 275.443 112.555 275.394 116.081 267.318C118.018 262.837 119.657 259.045 119.657 258.799C119.707 258.602 118.962 258.455 118.068 258.455C116.528 258.455 116.429 258.602 114.79 262.64C113.846 264.955 113.002 266.826 112.952 266.826C112.853 266.826 112.207 264.955 111.462 262.64L110.071 258.455H108.234H106.446L108.879 264.413Z" fill="#ACACAC"/>
<path d="M94.0787 276.28C91.9927 277.265 91.2973 280.515 92.688 282.485C93.8303 284.11 95.668 284.701 97.7043 284.011C99.7903 283.322 99.3433 282.436 97.0587 282.879C94.923 283.273 93.3833 282.091 93.3833 280.072C93.3833 278.004 94.6747 277.019 96.9593 277.314C99.095 277.61 99.8897 276.97 98.3997 276.231C97.2077 275.591 95.4693 275.591 94.0787 276.28Z" fill="#ACACAC"/>
<path d="M101.33 279.875C101.33 282.337 101.529 284.061 101.827 284.061C102.125 284.061 102.323 282.337 102.323 279.875C102.323 277.413 102.125 275.689 101.827 275.689C101.529 275.689 101.33 277.413 101.33 279.875Z" fill="#ACACAC"/>
<path d="M105.8 279.136C104.807 280.121 104.509 281.845 105.204 282.928C105.75 283.814 107.886 284.455 108.929 284.11C110.369 283.617 109.922 282.879 108.184 282.879C105.552 282.83 105.85 281.598 108.482 281.598C110.419 281.598 110.767 281.451 110.767 280.663C110.767 279.58 109.028 278.152 107.687 278.152C107.191 278.152 106.346 278.595 105.8 279.136ZM109.277 279.875C109.823 280.515 109.624 280.614 108.085 280.614C106.346 280.614 105.651 279.973 106.942 279.481C108.035 279.038 108.631 279.136 109.277 279.875Z" fill="#ACACAC"/>
<path d="M113.796 279.087C112.704 280.17 112.604 280.663 113.051 282.386C113.449 283.765 115.485 284.701 116.727 284.061C117.223 283.814 118.018 283.716 118.415 283.864C119.061 284.11 119.21 283.716 119.21 281.402C119.21 279.383 119.011 278.644 118.515 278.644C118.167 278.644 117.174 278.496 116.329 278.349C115.237 278.102 114.591 278.299 113.796 279.087ZM117.223 279.826C117.521 280.22 117.72 281.057 117.621 281.697C117.521 282.583 117.174 282.83 115.982 282.83C114.79 282.83 114.442 282.583 114.343 281.697C114.045 279.629 115.982 278.349 117.223 279.826Z" fill="#ACACAC"/>
<path d="M123.73 278.595C123.332 278.841 122.736 278.939 122.339 278.792C121.842 278.595 121.693 279.186 121.693 281.303C121.693 282.83 121.942 284.061 122.19 284.061C122.488 284.061 122.687 283.322 122.687 282.386C122.687 280.22 123.879 278.939 125.22 279.629C125.915 280.023 126.163 280.663 126.163 282.091C126.163 283.174 126.412 284.061 126.66 284.061C126.958 284.061 127.157 283.076 127.157 281.894C127.157 278.89 125.617 277.413 123.73 278.595Z" fill="#ACACAC"/>
<path d="M130.733 278.939C129.491 279.777 129.292 281.894 130.286 283.273C131.031 284.258 133.862 284.504 134.706 283.667C135.302 283.076 135.302 283.027 132.918 282.928C130.385 282.78 130.782 281.598 133.315 281.598C135.898 281.598 136.295 280.811 134.607 279.136C133.415 277.955 132.223 277.905 130.733 278.939ZM134.011 279.973C134.11 280.417 133.663 280.614 132.67 280.614C131.13 280.614 130.584 279.924 131.776 279.481C132.719 279.087 133.762 279.333 134.011 279.973Z" fill="#ACACAC"/>
<path d="M139.226 278.496C138.183 278.693 138.083 278.989 138.083 281.402C138.083 284.553 138.928 284.996 139.176 281.943C139.325 280.072 139.474 279.875 140.716 279.727C141.51 279.629 142.057 279.333 141.908 278.989C141.709 278.348 140.865 278.152 139.226 278.496Z" fill="#ACACAC"/>
<path d="M144.739 278.841C143.994 279.432 143.894 279.727 144.341 280.466C144.639 280.958 145.384 281.451 146.03 281.598C146.676 281.746 147.321 282.189 147.421 282.534C147.619 283.076 147.222 283.174 145.831 282.928C143.894 282.633 143.447 283.223 145.037 284.061C146.328 284.75 148.414 284.208 148.762 283.027C149.159 281.746 148.712 281.205 146.974 280.761C145.384 280.318 145.235 279.432 146.775 279.284C148.662 279.186 148.762 279.136 148.017 278.644C146.974 277.955 145.881 278.053 144.739 278.841Z" fill="#ACACAC"/>
</g>
<g clip-path="url(#clip3_158_10112)">
<path d="M206.622 223.777C205.247 225.423 205.247 225.88 206.622 224.874C207.421 224.326 208.042 223.64 208.042 223.411C208.042 222.726 207.332 222.909 206.622 223.777Z" fill="#ACACAC"/>
<path d="M236.301 227.663C236.123 228.211 236.212 228.806 236.434 228.943C236.833 229.171 236.966 229.491 238.918 234.794L239.939 237.674L238.963 238.086C238.208 238.406 238.563 238.497 240.426 238.451C241.757 238.451 242.556 238.36 242.112 238.223C241.624 238.086 240.693 236.074 239.406 232.463C238.341 229.446 237.232 226.84 237.011 226.794C236.744 226.703 236.434 227.069 236.301 227.663Z" fill="#ACACAC"/>
<path d="M309.765 226.977C310.165 227.069 310.786 227.069 311.096 226.977C311.363 226.84 311.052 226.749 310.298 226.749C309.588 226.749 309.322 226.84 309.765 226.977Z" fill="#ACACAC"/>
<path d="M378.262 227.343C379.016 227.663 379.726 228.349 379.859 228.806C379.992 229.354 380.08 229.263 380.125 228.44C380.169 227.526 379.903 227.16 379.193 226.931C377.374 226.429 376.798 226.657 378.262 227.343Z" fill="#ACACAC"/>
<path d="M202.496 232.463C202.496 237.766 202.496 237.811 201.387 238.131C200.766 238.314 202.718 238.451 205.646 238.497L211.058 238.543L211.236 236.897C211.413 235.434 211.369 235.343 210.837 236.074C209.55 238.04 209.328 238.131 206.578 237.994L203.827 237.857L203.738 233.057C203.694 230.223 203.827 228.074 204.138 227.709C204.493 227.251 204.36 227.114 203.561 227.114C202.496 227.114 202.496 227.16 202.496 232.463Z" fill="#ACACAC"/>
<path d="M208.751 227.48C209.018 227.663 209.461 228.211 209.727 228.714C210.215 229.583 210.215 229.537 210.26 228.349C210.26 227.389 210.038 227.114 209.284 227.114C208.707 227.114 208.485 227.251 208.751 227.48Z" fill="#ACACAC"/>
<path d="M217.935 227.434C218.644 227.617 218.689 228.166 218.6 232.737C218.467 237.72 218.467 237.811 217.358 238.131C216.737 238.314 218.378 238.451 221.04 238.497C223.657 238.543 225.787 238.406 225.787 238.177C225.787 237.994 225.92 237.354 226.097 236.714L226.363 235.571L225.387 236.806C224.545 237.903 224.057 238.086 222.193 238.086H219.975L220.108 232.6L220.241 227.114L218.689 227.16C217.846 227.206 217.491 227.297 217.935 227.434Z" fill="#ACACAC"/>
<path d="M248.323 227.434C248.855 227.526 249.299 227.8 249.299 228.029C249.299 228.394 251.34 230.726 257.018 236.943L259.103 239.229L258.97 233.743C258.926 230.726 259.014 227.983 259.192 227.663C259.458 227.297 259.281 227.114 258.704 227.114C257.905 227.114 257.861 227.297 258.26 229.126C258.482 230.223 258.615 232.326 258.526 233.743L258.393 236.394L254.445 231.777C250.763 227.434 250.364 227.114 248.9 227.16C247.879 227.206 247.658 227.297 248.323 227.434Z" fill="#ACACAC"/>
<path d="M275.606 227.434C276.272 227.617 276.36 228.257 276.36 232.829C276.36 237.4 276.272 238.04 275.606 238.223C275.163 238.36 275.917 238.451 277.248 238.451C279.333 238.497 279.554 238.406 278.712 237.994C277.824 237.583 277.691 237.126 277.691 235.023V232.6H279.688C281.063 232.6 281.773 232.829 282.083 233.377C282.438 234.017 282.527 233.743 282.527 232.143C282.527 230.451 282.438 230.269 282.127 231.091C281.773 231.96 281.373 232.143 279.643 232.143H277.602L277.78 229.629L277.913 227.114L276.36 227.16C275.517 227.206 275.163 227.297 275.606 227.434Z" fill="#ACACAC"/>
<path d="M282.837 227.48C283.148 227.663 283.458 228.211 283.591 228.714C283.769 229.4 283.813 229.354 283.858 228.349C283.902 227.434 283.68 227.114 283.148 227.114C282.615 227.114 282.527 227.251 282.837 227.48Z" fill="#ACACAC"/>
<path d="M290.468 227.48C290.867 227.754 291 229.171 290.911 232.829C290.778 237.72 290.734 237.811 289.669 238.131C289.048 238.314 290.689 238.451 293.307 238.497L298.009 238.543L298.497 237.126C299.163 235.114 299.118 235.069 297.832 236.669C296.856 237.903 296.412 238.086 294.505 238.086H292.287L292.42 232.6L292.553 227.114H291.222C290.379 227.114 290.113 227.251 290.468 227.48Z" fill="#ACACAC"/>
<path d="M306.882 227.846C305.285 228.714 304.309 230.726 304.309 233.103C304.309 234.703 304.575 235.297 306.039 236.76C307.104 237.857 308.168 238.543 308.789 238.497C309.81 238.497 309.81 238.451 308.923 238.086C305.418 236.623 304.708 230.497 307.725 228.029C309.056 226.977 308.612 226.84 306.882 227.846Z" fill="#ACACAC"/>
<path d="M313.181 228.394C315.799 231.091 315.311 236.166 312.294 237.766C310.741 238.634 310.741 238.634 312.072 238.36C312.826 238.177 314.069 237.354 314.867 236.486C316.065 235.114 316.287 234.566 316.287 232.554C316.287 230.497 316.109 230.04 314.778 228.669C313.936 227.8 312.96 227.114 312.605 227.114C312.117 227.114 312.294 227.526 313.181 228.394Z" fill="#ACACAC"/>
<path d="M322.098 227.663C322.453 227.983 323.607 230.497 324.671 233.286C325.736 236.029 326.756 238.497 326.978 238.726C327.156 238.909 327.599 238.497 327.999 237.72C328.841 236.029 328.93 235.343 328.132 236.44C327.644 237.171 327.377 236.714 325.825 232.783C324.893 230.314 324.139 228.029 324.139 227.709C324.139 227.343 323.607 227.114 322.764 227.114C321.655 227.114 321.566 227.206 322.098 227.663Z" fill="#ACACAC"/>
<path d="M326.801 227.48C327.688 228.029 329.596 232.966 329.285 233.789C329.108 234.337 329.152 234.474 329.551 234.246C329.862 234.017 330.394 234.703 331.015 236.211C331.503 237.491 332.08 238.543 332.257 238.543C332.39 238.543 333.322 236.44 334.254 233.88C335.185 231.274 336.206 228.714 336.561 228.12C337.137 227.16 337.093 227.114 335.939 227.114C335.008 227.114 334.875 227.251 335.318 227.526C335.984 227.937 335.407 229.949 333.278 235.251L332.612 236.943L331.548 234.52L330.527 232.143L331.459 229.903C331.947 228.623 332.701 227.526 333.1 227.434C333.5 227.297 333.1 227.206 332.257 227.16C331.326 227.16 330.927 227.251 331.281 227.48C331.725 227.8 331.681 228.211 331.104 229.674L330.394 231.457L329.507 229.674C328.797 228.257 328.753 227.846 329.241 227.526C329.596 227.251 329.196 227.114 328.043 227.114C327.067 227.114 326.49 227.297 326.801 227.48Z" fill="#ACACAC"/>
<path d="M344.013 232.463C344.013 237.766 344.013 237.811 342.904 238.131C342.283 238.314 344.235 238.451 347.163 238.497L352.575 238.543L352.753 236.897C352.93 235.434 352.886 235.343 352.354 236.074C351.067 238.04 350.845 238.131 348.095 237.994L345.344 237.857L345.256 233.057C345.211 230.223 345.344 228.074 345.655 227.709C346.01 227.251 345.877 227.114 345.078 227.114C344.013 227.114 344.013 227.16 344.013 232.463Z" fill="#ACACAC"/>
<path d="M350.269 227.48C350.535 227.663 350.978 228.211 351.245 228.714C351.733 229.583 351.733 229.537 351.777 228.349C351.777 227.389 351.555 227.114 350.801 227.114C350.224 227.114 350.002 227.251 350.269 227.48Z" fill="#ACACAC"/>
<path d="M359.23 227.571C360.162 227.983 360.206 228.257 360.206 232.829C360.206 237.4 360.162 237.674 359.23 238.086C358.431 238.406 358.786 238.497 360.65 238.451C361.98 238.451 362.735 238.36 362.335 238.223C361.625 238.04 361.537 237.354 361.492 233.149C361.448 230.451 361.448 227.983 361.492 227.663C361.537 227.297 361.004 227.114 359.895 227.16C358.431 227.16 358.343 227.206 359.23 227.571Z" fill="#ACACAC"/>
<path d="M363.089 227.434C364.509 227.8 365.086 228.486 365.086 229.903C365.086 230.771 364.731 231.457 364.021 231.914L362.956 232.646L364.553 235.571C366.062 238.314 366.284 238.543 367.748 238.543H369.3L367.969 237.674C367.26 237.217 366.151 235.937 365.574 234.794L364.509 232.783L365.707 231.549C366.328 230.909 366.86 230.04 366.86 229.629C366.86 228.394 365.175 227.114 363.666 227.16C362.69 227.206 362.513 227.297 363.089 227.434Z" fill="#ACACAC"/>
<path d="M375.156 227.937C373.559 229.766 374.446 231.549 377.862 233.514C380.48 235.023 380.835 237.171 378.661 238.086C377.907 238.406 377.862 238.497 378.528 238.497C379.681 238.543 381.056 236.897 381.056 235.434C381.056 233.926 379.903 232.691 377.197 231.274C375.201 230.269 374.668 228.851 375.822 227.663C376.132 227.343 376.265 227.114 376.132 227.114C375.999 227.114 375.555 227.48 375.156 227.937Z" fill="#ACACAC"/>
<path d="M208.263 232.143C208.13 232.646 208.175 233.423 208.441 233.834C208.796 234.52 208.885 234.337 208.929 232.92C208.929 231.046 208.707 230.771 208.263 232.143Z" fill="#ACACAC"/>
<path d="M349.781 232.143C349.648 232.646 349.692 233.423 349.958 233.834C350.313 234.52 350.402 234.337 350.446 232.92C350.446 231.046 350.224 230.771 349.781 232.143Z" fill="#ACACAC"/>
<path d="M234.704 232.006C234.659 232.28 234.526 232.92 234.393 233.377C234.171 234.154 234.171 234.154 234.659 233.377C234.926 232.92 235.059 232.326 234.926 232.006C234.792 231.594 234.704 231.594 234.704 232.006Z" fill="#ACACAC"/>
<path d="M249.831 234.566C249.743 237.309 249.61 237.72 248.767 238.086C247.968 238.406 248.234 238.497 249.964 238.451C251.207 238.451 251.739 238.314 251.207 238.223C250.319 238.04 250.231 237.72 250.053 234.749L249.92 231.457L249.831 234.566Z" fill="#ACACAC"/>
<path d="M233.107 236.76C232.929 237.263 232.397 237.857 231.864 238.086C231.11 238.406 231.421 238.497 233.107 238.451C234.349 238.451 234.837 238.314 234.304 238.223C233.462 238.04 233.284 237.811 233.506 236.897C233.861 235.571 233.506 235.434 233.107 236.76Z" fill="#ACACAC"/>
<path d="M374.18 236.714C373.825 237.903 374.491 238.543 376.176 238.543H377.241L376.31 237.857C375.733 237.446 375.112 236.806 374.89 236.394C374.579 235.754 374.446 235.8 374.18 236.714Z" fill="#ACACAC"/>
</g>
<defs>
<clipPath id="clip0_158_10112">
<rect width="141" height="57" fill="white" transform="translate(121)"/>
</clipPath>
<clipPath id="clip1_158_10112">
<rect width="108" height="66" fill="white" transform="translate(267.5 107)"/>
</clipPath>
<clipPath id="clip2_158_10112">
<rect width="149" height="65" fill="white" transform="translate(1.5 223)"/>
</clipPath>
<clipPath id="clip3_158_10112">
<rect width="181" height="16" fill="white" transform="translate(200.5 223)"/>
</clipPath>
</defs>
</svg>
