<svg width="33" height="34" viewBox="0 0 33 34" fill="none" xmlns="http://www.w3.org/2000/svg">
<rect y="0.348145" width="33" height="33" rx="16.5" fill="#ACACAC"/>
<path d="M22.1602 15.7231C22.0508 15.7231 21.9414 15.7231 21.832 15.7231C21.1211 15.7231 20.4922 15.4224 20.0547 14.9302C19.6172 15.4224 18.9883 15.7231 18.2773 15.7231C17.5664 15.7231 16.9102 15.4224 16.4727 14.9302C16.0625 15.4224 15.4062 15.7231 14.6953 15.7231C13.9844 15.7231 13.3555 15.4224 12.918 14.9302C12.4805 15.4224 11.8516 15.7231 11.1406 15.7231C11.0312 15.7231 10.9219 15.7231 10.8125 15.7231C9.28125 15.5044 8.57031 13.7271 9.39062 12.4419L10.9492 9.98096C11.0859 9.73486 11.332 9.59814 11.6055 9.59814H21.3672C21.6406 9.59814 21.8867 9.73486 22.0234 9.98096L23.582 12.4419C24.4023 13.7271 23.6914 15.5044 22.1602 15.7231ZM22.2695 16.5708C22.3789 16.5708 22.5156 16.5435 22.625 16.5161V21.8481C22.625 22.8325 21.832 23.5981 20.875 23.5981H12.125C11.1406 23.5981 10.375 22.8325 10.375 21.8481V16.5161C10.457 16.5435 10.5664 16.5708 10.6758 16.5708H10.7031C10.8398 16.5981 10.9766 16.5981 11.1406 16.5981C11.4688 16.5981 11.7969 16.5708 12.125 16.4614V20.0981H20.875V16.4614C21.1758 16.5708 21.5039 16.5981 21.832 16.5981C21.9961 16.5981 22.1328 16.5981 22.2695 16.5708Z" fill="white"/>
</svg>
