<?xml version="1.0" encoding="utf-8"?>
<!-- Generator: Adobe Illustrator 26.3.1, SVG Export Plug-In . SVG Version: 6.00 Build 0)  -->
<svg version="1.1" id="Layer_1" xmlns="http://www.w3.org/2000/svg" xmlns:xlink="http://www.w3.org/1999/xlink" x="0px" y="0px"
	 viewBox="0 0 260.59 71.41" style="enable-background:new 0 0 260.59 71.41;" xml:space="preserve">
<style type="text/css">
	.st0{fill:none;}
	.st1{fill:#EF832B;}
	.st2{fill:#F16EA7;}
	.st3{fill:#FDB716;}
	.st4{fill:#916330;}
	.st5{fill:#72483B;}
	.st6{fill:#2768BE;}
	.st7{fill:#81D1E0;}
	.st8{fill:#E6A3C6;}
	.st9{fill:#0995CC;}
	.st10{fill:#11A3EB;}
	.st11{fill:#74C6D1;}
</style>
<rect x="53.62" y="-20.13" class="st0" width="259" height="113"/>
<path class="st0" d="M312.19,92.37H54.03l0.16-112.5h258.15L312.19,92.37z M312.19,92.37"/>
<path class="st1" d="M157.98,39c-0.51-0.93-1.88-0.57-2.3-1.25c-0.3-0.51,0.05-1.84-0.13-2.46c-0.75-2.4-2.8-0.88-4.59-0.9
	c-1.03,0-1-0.19-1.5-0.08c-1.86,0.44-3.26,3.45-2.45,4.73c0.46,0.75,1.41,0.46,2.65,1.61c0.41,0.38,0.76,0.83,1.04,1.33
	c0.58,0,7.03,0.16,7.5-1.7C158.28,39.84,158.2,39.39,157.98,39L157.98,39z M157.98,39"/>
<path class="st2" d="M148.8,29.9c-0.22-0.95-0.93-1.64-0.75-2.67c0.17-1.21,0.96-1.46,0.54-2.93c-1.04-3.63-3.86-0.46-6.32-0.81
	c-1.69-0.24-2.35-0.95-3.64,0.48c-0.37,0.41-0.65,0.89-0.83,1.41c-0.24,0.66-0.33,1.35-0.28,2.04c-0.09,1.21,0.22,2.41,0.9,3.41
	c1.4,1.96,4.31,2.76,7.22,1.85C145.7,32.73,149.6,33.43,148.8,29.9L148.8,29.9z M148.8,29.9"/>
<path class="st3" d="M153.73,34.77c-0.2-1.09-0.85-1.05-1.41-1.8c-0.56-0.74-0.46-1.57-0.84-2.3c-1.54-3-6.98-2.74-8.08,0.64
	c0.21,1.37,0.67,2.69,1.37,3.89c1.18,2.05,3.11,3.57,5.39,4.21c2.09-0.98,3.34-2.35,3.54-3.22
	C153.81,35.73,153.82,35.24,153.73,34.77L153.73,34.77z M153.73,34.77"/>
<path class="st4" d="M134.18,17.26c-0.27-1.96-1.15-3.8-2.5-5.25c-3-2.94-7.22-2.51-8.11-2.42c-0.45,0.05-5.79,0.67-8.65,5.38
	c-2.55,4.19-2.48,10.56,1.87,14.4c4.35,3.73,10.81,3.59,15-0.32C135.81,25.04,134.53,18.87,134.18,17.26L134.18,17.26z
	 M134.18,17.26"/>
<path class="st5" d="M137.39,6.29c-3.47,1.86-3.25,5.05-6.58,7.5c-1.59,1.12-3.46,1.8-5.4,1.96l-15,2.63
	c-0.67,2.93-0.13,6.01,1.5,8.54c3.14,4.71,8.73,4.79,9.19,4.79c-2.28-0.75-4.2-2.33-5.36-4.43c-0.42-0.79-1.92-3.59-0.93-5.76
	c1.38-3,6.39-2.25,18.13-4.9c6.67-1.5,9-2.61,10.02-4.77c0.93-1.96,0.89-5-0.68-6.1C140.57,4.62,137.77,6.12,137.39,6.29
	L137.39,6.29z M137.39,6.29"/>
<path class="st6" d="M134.17,9.68c-0.05-3.15-6.12-5.16-6.41-5.25c-6.26-2.01-13.43,1.42-16.59,6.94c-1.66,3.04-2.24,6.55-1.63,9.95
	C130.16,16.2,134.22,12.29,134.17,9.68L134.17,9.68z M134.17,9.68"/>
<path class="st4" d="M123.86,31.39c0.02-0.31-0.03-0.62-0.14-0.91c-0.26-0.43-0.72-0.7-1.23-0.7c-0.49,0.01-0.98,0.1-1.45,0.29
	l-0.14,0.39l-0.18,5.04l3.2,0.06L123.86,31.39z M123.86,31.39"/>
<path class="st7" d="M127.49,40.17c-0.36-1.61-0.82-3.29-2.01-4.42c-1.66-1.51-4.16-1.6-5.92-0.23c-0.6,0.69-1.13,1.45-1.56,2.25
	c-0.66,1.26-1.13,2.61-1.4,4.01c-1.08,4.79-1.58,9.7-1.5,14.61c-0.04,0.36,0.07,0.71,0.28,1c0.29,0.21,0.64,0.32,0.99,0.29l9,0.34
	c0.92,0.14,1.87-0.05,2.66-0.54c0.87-0.7,0.97-1.96,0.98-3.07C129.03,49.63,128.52,44.85,127.49,40.17L127.49,40.17z M127.49,40.17"
	/>
<path class="st4" d="M152.14,47.2l1.95-3.55c0.08-0.16,0.18-0.29,0.3-0.41c0.29-0.22,0.69-0.26,1.02-0.08
	c0.31,0.18,0.57,0.44,0.75,0.75c0.75,1.11,0.86,2.54,0.3,3.75c-0.6,1.19-1.95,1.82-3.25,1.5"/>
<path class="st8" d="M137.48,27.12c0,6.91-0.14,13.79-0.14,20.71v16.7c0,3.59,0,7.66,1.5,11.03c0.55,1.31,1.5,2.83,2.94,2.96
	c1.88,0.17,3.53-1.64,4.42-3.09c2.25-3.65,2.82-8.43,3.35-12.55c0.57-4.8,1.51-9.55,2.8-14.21c0.5-1.75,1.25-3.45,1.65-5.21
	c0.4-1.77,0.14-1.95-1.09-3.06c-1.24-1.12-2.25-2.58-3.46-3.75c-1.21-1.17-2.66-2.36-3.98-3.57c-2.41-2.26-5.08-4.21-7.96-5.81"/>
<path class="st6" d="M122.59,28.37c-0.84-0.84-1.54-1.8-2.06-2.87c-0.57-1.28-1.01-2.62-1.32-3.99c-0.23-0.95-0.19-2-0.47-2.93
	l-3.94,0.54c-0.17,2.05,1.02,4.66,1.82,6.55c0.53,1.24,1.32,2.36,2.3,3.29c0.79,0.79,1.72,1.44,2.73,1.91
	c2.14,0.91,4.53,1.04,6.75,0.37C126.21,30.89,124.18,29.89,122.59,28.37L122.59,28.37z M122.59,28.37"/>
<path class="st4" d="M114.98,22.56c-1.32-0.33-2.5-0.65-3.6,0.29c-1.06,0.93-1.41,2.44-0.86,3.75c1.04,2.25,5.59,2.69,6.07-0.23
	L114.98,22.56z M114.98,22.56"/>
<path class="st9" d="M115.04,57.3l0.22,0.23c-1.66,3.05-3.05,6.24-4.16,9.54c0,0-1.81,4.78-3.17,9.96
	c-7.94,30-10.82,83.31-10.82,83.31c-0.34,6.26-1.92,22.91-2.29,33.87l4.55,0.39c4.73-14.71,10.33-38.54,14.06-56.16
	c5.63-26.64,9.03-53.71,10.16-80.91L115.04,57.3z M115.04,57.3"/>
<path class="st10" d="M127.79,64.34c-0.35-2.25-0.71-4.55-1.05-6.83h-7.5c-0.82,3.38-1.3,6.82-1.44,10.3
	c-0.81,20.54,11.33,27.17,14.87,46.93c1.62,9.09-0.98,7.71-2.85,37.81c-0.82,13.28-3.2,34.6-3.22,41.78l4.6,0.27
	c3.07-7.68,9.35-29.2,13.14-42.91c5.9-21.34,7.87-26.84,6.94-34.17c-0.46-3.7-1.38-7.19-8.63-22.89
	C138.32,85.24,133.38,75.12,127.79,64.34L127.79,64.34z M127.79,64.34"/>
<path class="st11" d="M121.53,36.72l6.52,20.79h-2.04c0,0-9.71-13.84-4.5-20.59"/>
<path class="st7" d="M152.51,46.7L138.26,58.8c-1.7-4.25-9.67-23.43-14.09-23.43c-0.82-0.02-1.63,0.23-2.31,0.7
	c-0.5,0.41-1.62,1.59-1.23,5.36c0.58,5.59,3.75,10.77,6.62,14.91c7.3,10.63,8.11,12.68,10.28,12.6c1.71-0.07,2.9-1.4,7.34-7.59
	c3.46-4.84,6.32-9,8.51-12.32C153.11,48.24,152.81,47.47,152.51,46.7L152.51,46.7z M152.51,46.7"/>
<rect x="53.62" y="-20.13" class="st0" width="259" height="113"/>
<g>
	<g>
		<g>
			<path class="st6" d="M244.48,10.36c-3.8-3.8-8.85-5.89-14.22-5.89c-5.37,0-10.42,2.09-14.22,5.89c-3.8,3.8-5.89,8.85-5.89,14.22
				c0,5.37,2.09,10.42,5.89,14.22c3.8,3.8,8.85,5.89,14.22,5.89c5.37,0,10.42-2.09,14.22-5.89c3.8-3.8,5.89-8.85,5.89-14.22
				C250.37,19.2,248.28,14.15,244.48,10.36z M230.26,43.01c-10.16,0-18.43-8.27-18.43-18.43s8.27-18.43,18.43-18.43
				c10.16,0,18.43,8.27,18.43,18.43S240.43,43.01,230.26,43.01z"/>
			<path class="st6" d="M215.7,21.28c0.08,0.02,0.16,0.03,0.23,0.03c0.36,0,0.7-0.24,0.8-0.61l0.02-0.08
				c0.13-0.44-0.12-0.91-0.57-1.04c-0.44-0.13-0.91,0.12-1.04,0.57l-0.02,0.08C215,20.69,215.26,21.15,215.7,21.28z"/>
			<path class="st6" d="M215.38,24.69c0.44,0,0.81-0.35,0.84-0.8l0-0.08c0.03-0.46-0.33-0.86-0.79-0.88
				c-0.46-0.02-0.86,0.33-0.88,0.79l0,0.09c-0.02,0.46,0.33,0.86,0.8,0.88C215.35,24.69,215.36,24.69,215.38,24.69z"/>
			<path class="st6" d="M216.52,27.64l0-0.08c0.03-0.46-0.33-0.86-0.79-0.88c-0.46-0.02-0.86,0.33-0.88,0.79l0,0.09
				c-0.02,0.46,0.33,0.86,0.8,0.88c0.01,0,0.03,0,0.04,0C216.13,28.43,216.5,28.08,216.52,27.64z"/>
			<path class="st6" d="M217.71,30.93c-0.21-0.41-0.71-0.58-1.13-0.37c-0.41,0.21-0.58,0.71-0.37,1.13l0.04,0.08
				c0.15,0.29,0.44,0.46,0.75,0.46c0.13,0,0.26-0.03,0.38-0.09c0.41-0.21,0.58-0.72,0.36-1.13L217.71,30.93z"/>
			<path class="st6" d="M219.49,33.63c-0.3-0.35-0.83-0.4-1.18-0.1c-0.35,0.3-0.4,0.83-0.1,1.18l0.06,0.07
				c0.17,0.19,0.4,0.29,0.64,0.29c0.19,0,0.39-0.07,0.54-0.2c0.35-0.3,0.39-0.83,0.09-1.18L219.49,33.63z"/>
			<path class="st6" d="M217.71,16.51c-0.4-0.23-0.91-0.09-1.14,0.32l-0.04,0.08c-0.23,0.4-0.08,0.91,0.32,1.14
				c0.13,0.07,0.27,0.11,0.41,0.11c0.29,0,0.58-0.15,0.73-0.43l0.04-0.07C218.25,17.25,218.11,16.74,217.71,16.51z"/>
			<path class="st6" d="M218.7,13.9l-0.06,0.06c-0.31,0.34-0.29,0.87,0.06,1.18c0.16,0.15,0.36,0.22,0.56,0.22
				c0.23,0,0.45-0.09,0.62-0.27l0.05-0.06c0.31-0.34,0.29-0.87-0.05-1.18C219.54,13.54,219.01,13.56,218.7,13.9z"/>
			<path class="st6" d="M242.24,17.19c0.16,0.26,0.43,0.4,0.71,0.4c0.15,0,0.3-0.04,0.44-0.12c0.39-0.24,0.52-0.76,0.27-1.15
				l-0.05-0.08c-0.25-0.39-0.76-0.51-1.15-0.27c-0.39,0.25-0.51,0.76-0.27,1.15L242.24,17.19z"/>
			<path class="st6" d="M221.84,13.12c0.16,0,0.33-0.05,0.47-0.15l0.07-0.05c0.38-0.26,0.48-0.78,0.22-1.16
				c-0.26-0.38-0.78-0.48-1.16-0.22l-0.07,0.05c-0.38,0.26-0.48,0.78-0.22,1.16C221.31,12.99,221.58,13.12,221.84,13.12z"/>
			<path class="st6" d="M245.01,22.3c-0.46,0.05-0.8,0.46-0.75,0.92l0.01,0.08c0.04,0.43,0.41,0.76,0.83,0.76c0.03,0,0.05,0,0.08,0
				c0.46-0.04,0.8-0.45,0.76-0.91l-0.01-0.09C245.88,22.59,245.47,22.25,245.01,22.3z"/>
			<path class="st6" d="M243.58,20.05l0.03,0.07c0.12,0.35,0.44,0.57,0.79,0.57c0.09,0,0.18-0.01,0.26-0.04
				c0.44-0.15,0.68-0.62,0.53-1.06l-0.03-0.08c-0.15-0.44-0.62-0.67-1.06-0.52C243.67,19.13,243.43,19.61,243.58,20.05z"/>
			<path class="st6" d="M224.87,11.52c0.1,0,0.2-0.02,0.3-0.06l0.07-0.03c0.43-0.16,0.65-0.65,0.49-1.08
				c-0.16-0.43-0.65-0.65-1.08-0.49l-0.08,0.03c-0.43,0.17-0.65,0.65-0.48,1.08C224.22,11.32,224.54,11.52,224.87,11.52z"/>
			<path class="st6" d="M231.54,10.57l0.08,0.01c0.03,0,0.05,0,0.08,0c0.43,0,0.79-0.32,0.83-0.76c0.04-0.46-0.29-0.87-0.75-0.91
				l-0.09-0.01c-0.46-0.04-0.87,0.3-0.91,0.76C230.74,10.12,231.08,10.53,231.54,10.57z"/>
			<path class="st6" d="M228.19,10.66c0.04,0,0.08,0,0.12-0.01l0.08-0.01c0.46-0.06,0.78-0.48,0.72-0.94
				c-0.06-0.46-0.48-0.78-0.94-0.72l-0.09,0.01c-0.46,0.06-0.78,0.49-0.71,0.95C227.42,10.36,227.78,10.66,228.19,10.66z"/>
			<path class="st6" d="M241.36,13.41c-0.33-0.33-0.86-0.32-1.18,0c-0.33,0.33-0.32,0.86,0,1.18l0.06,0.06
				c0.16,0.16,0.38,0.25,0.59,0.25c0.21,0,0.43-0.08,0.59-0.24c0.33-0.33,0.33-0.86,0-1.18L241.36,13.41z"/>
			<path class="st6" d="M243.08,32.23c-0.38-0.26-0.9-0.16-1.16,0.23l-0.04,0.06c-0.26,0.38-0.16,0.9,0.22,1.16
				c0.14,0.1,0.31,0.15,0.47,0.15c0.27,0,0.53-0.13,0.69-0.36l0.05-0.07C243.57,33.01,243.46,32.48,243.08,32.23z"/>
			<path class="st6" d="M239.81,34.91l-0.06,0.05c-0.34,0.31-0.36,0.84-0.05,1.18c0.17,0.18,0.39,0.27,0.62,0.27
				c0.2,0,0.4-0.07,0.57-0.22l0.06-0.06c0.34-0.31,0.36-0.84,0.05-1.18C240.68,34.61,240.15,34.59,239.81,34.91z"/>
			<path class="st6" d="M238.59,11.22l-0.07-0.05c-0.39-0.24-0.91-0.12-1.15,0.27c-0.24,0.39-0.12,0.91,0.27,1.15l0.07,0.04
				c0.14,0.09,0.29,0.13,0.44,0.13c0.28,0,0.55-0.14,0.71-0.4C239.1,11.98,238.98,11.46,238.59,11.22z"/>
			<path class="st6" d="M221.91,35.89l-0.06-0.05c-0.37-0.28-0.9-0.2-1.17,0.17c-0.28,0.37-0.2,0.9,0.17,1.17l0.07,0.05
				c0.15,0.11,0.32,0.16,0.5,0.16c0.26,0,0.51-0.12,0.67-0.34C222.36,36.69,222.28,36.17,221.91,35.89z"/>
			<path class="st6" d="M245.15,25.73c-0.46-0.06-0.88,0.26-0.94,0.72l-0.01,0.08c-0.06,0.46,0.25,0.88,0.71,0.95
				c0.04,0.01,0.08,0.01,0.12,0.01c0.41,0,0.77-0.3,0.83-0.72l0.01-0.09C245.93,26.21,245.61,25.79,245.15,25.73z"/>
			<path class="st6" d="M244.49,29.1c-0.43-0.17-0.92,0.05-1.08,0.48l-0.03,0.08c-0.17,0.43,0.05,0.92,0.48,1.08
				c0.1,0.04,0.2,0.06,0.3,0.06c0.34,0,0.65-0.2,0.78-0.54l0.03-0.08C245.14,29.75,244.93,29.26,244.49,29.1z"/>
			<path class="st6" d="M237.21,36.82l-0.07,0.04c-0.4,0.23-0.55,0.74-0.32,1.14c0.15,0.27,0.44,0.43,0.73,0.43
				c0.14,0,0.28-0.03,0.41-0.11l0.08-0.04c0.4-0.23,0.54-0.74,0.32-1.14C238.12,36.73,237.61,36.59,237.21,36.82z"/>
			<path class="st6" d="M231.04,38.63l-0.08,0c-0.46,0.02-0.82,0.42-0.79,0.88c0.02,0.45,0.39,0.79,0.84,0.79c0.01,0,0.03,0,0.04,0
				l0.09,0c0.46-0.03,0.82-0.42,0.79-0.88C231.9,38.95,231.5,38.6,231.04,38.63z"/>
			<path class="st6" d="M227.81,38.43l-0.08-0.01c-0.46-0.08-0.89,0.22-0.97,0.68c-0.08,0.46,0.22,0.89,0.67,0.97l0.09,0.02
				c0.05,0.01,0.1,0.01,0.15,0.01c0.4,0,0.75-0.29,0.82-0.69C228.57,38.95,228.27,38.51,227.81,38.43z"/>
			<path class="st6" d="M235.32,9.67l-0.09-0.03c-0.44-0.15-0.91,0.09-1.06,0.53c-0.15,0.44,0.09,0.91,0.53,1.06l0.07,0.02
				c0.09,0.03,0.18,0.05,0.27,0.05c0.35,0,0.67-0.22,0.79-0.57C235.99,10.3,235.76,9.82,235.32,9.67z"/>
			<path class="st6" d="M224.71,37.5l-0.07-0.03c-0.42-0.19-0.92,0.01-1.1,0.43c-0.19,0.42,0.01,0.92,0.43,1.1
				c0.03,0.01,0.06,0.02,0.08,0.04c0.11,0.05,0.22,0.07,0.33,0.07c0.32,0,0.63-0.19,0.77-0.51
				C225.33,38.18,225.14,37.69,224.71,37.5z"/>
			<path class="st6" d="M234.23,38.08l-0.07,0.02c-0.45,0.13-0.7,0.59-0.58,1.03c0.1,0.37,0.44,0.61,0.81,0.61
				c0.08,0,0.15-0.01,0.23-0.03l0.09-0.03c0.44-0.13,0.7-0.6,0.57-1.04C235.14,38.2,234.67,37.95,234.23,38.08z"/>
			<path class="st6" d="M231.73,23.12v-9.83c0-0.46-0.38-0.84-0.84-0.84c-0.46,0-0.84,0.38-0.84,0.84v9.84
				c-0.76,0.31-1.31,1.02-1.4,1.87h-7.17c-0.46,0-0.84,0.38-0.84,0.84s0.38,0.84,0.84,0.84h7.69c0.41,0.49,1.03,0.8,1.73,0.8
				c1.25,0,2.26-1.01,2.26-2.25C233.16,24.27,232.57,23.45,231.73,23.12z"/>
		</g>
	</g>
</g>
</svg>
