<svg width="36" height="36" viewBox="0 0 36 36" fill="none" xmlns="http://www.w3.org/2000/svg">
<rect x="0.5" y="0.698151" width="35" height="35" rx="17.5" fill="#ACACAC"/>
<path d="M16.25 11.8232V12.6982H19.75V11.8232C19.75 11.3583 20.1328 10.9482 20.625 10.9482C21.0898 10.9482 21.5 11.3583 21.5 11.8232V12.6982H22.8125C23.5234 12.6982 24.125 13.2997 24.125 14.0107V15.3232H11.875V14.0107C11.875 13.2997 12.4492 12.6982 13.1875 12.6982H14.5V11.8232C14.5 11.3583 14.8828 10.9482 15.375 10.9482C15.8398 10.9482 16.25 11.3583 16.25 11.8232ZM11.875 16.1982H24.125V23.6357C24.125 24.3739 23.5234 24.9482 22.8125 24.9482H13.1875C12.4492 24.9482 11.875 24.3739 11.875 23.6357V16.1982ZM13.625 19.2607C13.625 19.5067 13.8164 19.6982 14.0625 19.6982H14.9375C15.1562 19.6982 15.375 19.5067 15.375 19.2607V18.3857C15.375 18.1669 15.1562 17.9482 14.9375 17.9482H14.0625C13.8164 17.9482 13.625 18.1669 13.625 18.3857V19.2607ZM17.125 19.2607C17.125 19.5067 17.3164 19.6982 17.5625 19.6982H18.4375C18.6562 19.6982 18.875 19.5067 18.875 19.2607V18.3857C18.875 18.1669 18.6562 17.9482 18.4375 17.9482H17.5625C17.3164 17.9482 17.125 18.1669 17.125 18.3857V19.2607ZM21.0625 17.9482C20.8164 17.9482 20.625 18.1669 20.625 18.3857V19.2607C20.625 19.5067 20.8164 19.6982 21.0625 19.6982H21.9375C22.1562 19.6982 22.375 19.5067 22.375 19.2607V18.3857C22.375 18.1669 22.1562 17.9482 21.9375 17.9482H21.0625ZM13.625 22.7607C13.625 23.0067 13.8164 23.1982 14.0625 23.1982H14.9375C15.1562 23.1982 15.375 23.0067 15.375 22.7607V21.8857C15.375 21.6669 15.1562 21.4482 14.9375 21.4482H14.0625C13.8164 21.4482 13.625 21.6669 13.625 21.8857V22.7607ZM17.5625 21.4482C17.3164 21.4482 17.125 21.6669 17.125 21.8857V22.7607C17.125 23.0067 17.3164 23.1982 17.5625 23.1982H18.4375C18.6562 23.1982 18.875 23.0067 18.875 22.7607V21.8857C18.875 21.6669 18.6562 21.4482 18.4375 21.4482H17.5625ZM20.625 22.7607C20.625 23.0067 20.8164 23.1982 21.0625 23.1982H21.9375C22.1562 23.1982 22.375 23.0067 22.375 22.7607V21.8857C22.375 21.6669 22.1562 21.4482 21.9375 21.4482H21.0625C20.8164 21.4482 20.625 21.6669 20.625 21.8857V22.7607Z" fill="white"/>
</svg>
