<svg width="36" height="36" viewBox="0 0 36 36" fill="none" xmlns="http://www.w3.org/2000/svg">
<rect x="0.5" y="0.300049" width="35" height="35" rx="17.5" fill="#B2D235"/>
<path d="M16.25 11.425V12.3H19.75V11.425C19.75 10.9602 20.1328 10.55 20.625 10.55C21.0898 10.55 21.5 10.9602 21.5 11.425V12.3H22.8125C23.5234 12.3 24.125 12.9016 24.125 13.6125V14.925H11.875V13.6125C11.875 12.9016 12.4492 12.3 13.1875 12.3H14.5V11.425C14.5 10.9602 14.8828 10.55 15.375 10.55C15.8398 10.55 16.25 10.9602 16.25 11.425ZM11.875 15.8H24.125V23.2375C24.125 23.9758 23.5234 24.55 22.8125 24.55H13.1875C12.4492 24.55 11.875 23.9758 11.875 23.2375V15.8ZM13.625 18.8625C13.625 19.1086 13.8164 19.3 14.0625 19.3H14.9375C15.1562 19.3 15.375 19.1086 15.375 18.8625V17.9875C15.375 17.7688 15.1562 17.55 14.9375 17.55H14.0625C13.8164 17.55 13.625 17.7688 13.625 17.9875V18.8625ZM17.125 18.8625C17.125 19.1086 17.3164 19.3 17.5625 19.3H18.4375C18.6562 19.3 18.875 19.1086 18.875 18.8625V17.9875C18.875 17.7688 18.6562 17.55 18.4375 17.55H17.5625C17.3164 17.55 17.125 17.7688 17.125 17.9875V18.8625ZM21.0625 17.55C20.8164 17.55 20.625 17.7688 20.625 17.9875V18.8625C20.625 19.1086 20.8164 19.3 21.0625 19.3H21.9375C22.1562 19.3 22.375 19.1086 22.375 18.8625V17.9875C22.375 17.7688 22.1562 17.55 21.9375 17.55H21.0625ZM13.625 22.3625C13.625 22.6086 13.8164 22.8 14.0625 22.8H14.9375C15.1562 22.8 15.375 22.6086 15.375 22.3625V21.4875C15.375 21.2688 15.1562 21.05 14.9375 21.05H14.0625C13.8164 21.05 13.625 21.2688 13.625 21.4875V22.3625ZM17.5625 21.05C17.3164 21.05 17.125 21.2688 17.125 21.4875V22.3625C17.125 22.6086 17.3164 22.8 17.5625 22.8H18.4375C18.6562 22.8 18.875 22.6086 18.875 22.3625V21.4875C18.875 21.2688 18.6562 21.05 18.4375 21.05H17.5625ZM20.625 22.3625C20.625 22.6086 20.8164 22.8 21.0625 22.8H21.9375C22.1562 22.8 22.375 22.6086 22.375 22.3625V21.4875C22.375 21.2688 22.1562 21.05 21.9375 21.05H21.0625C20.8164 21.05 20.625 21.2688 20.625 21.4875V22.3625Z" fill="white"/>
</svg>
