<svg width="28" height="21" viewBox="0 0 28 21" fill="none" xmlns="http://www.w3.org/2000/svg">
<path d="M24.1 5.073H20.294V0H2.537C1.86471 0.00184731 1.22049 0.269731 0.745111 0.745111C0.269731 1.22049 0.00184731 1.86471 0 2.537V16.489H2.537C2.537 17.4981 2.93788 18.466 3.65146 19.1795C4.36503 19.8931 5.33285 20.294 6.342 20.294C7.35115 20.294 8.31896 19.8931 9.03254 19.1795C9.74612 18.466 10.147 17.4981 10.147 16.489H17.757C17.757 17.4981 18.1579 18.466 18.8715 19.1795C19.585 19.8931 20.5529 20.294 21.562 20.294C22.5711 20.294 23.539 19.8931 24.2525 19.1795C24.9661 18.466 25.367 17.4981 25.367 16.489H27.9V10.147L24.1 5.073ZM6.342 18.391C5.96622 18.391 5.59887 18.2796 5.28642 18.0708C4.97396 17.862 4.73044 17.5653 4.58663 17.2181C4.44282 16.8709 4.4052 16.4889 4.47851 16.1203C4.55182 15.7518 4.73278 15.4132 4.9985 15.1475C5.26422 14.8818 5.60276 14.7008 5.97133 14.6275C6.33989 14.5542 6.72192 14.5918 7.0691 14.7356C7.41628 14.8794 7.71302 15.123 7.92179 15.4354C8.13057 15.7479 8.242 16.1152 8.242 16.491C8.242 16.9949 8.04182 17.4782 7.6855 17.8345C7.32918 18.1908 6.84591 18.391 6.342 18.391ZM23.465 6.976L25.951 10.147H20.294V6.976H23.465ZM21.565 18.391C21.1892 18.391 20.8219 18.2796 20.5094 18.0708C20.197 17.862 19.9534 17.5653 19.8096 17.2181C19.6658 16.8709 19.6282 16.4889 19.7015 16.1203C19.7748 15.7518 19.9558 15.4132 20.2215 15.1475C20.4872 14.8818 20.8258 14.7008 21.1943 14.6275C21.5629 14.5542 21.9449 14.5918 22.2921 14.7356C22.6393 14.8794 22.936 15.123 23.1448 15.4354C23.3536 15.7479 23.465 16.1152 23.465 16.491C23.465 16.7408 23.4158 16.9881 23.3201 17.2188C23.2244 17.4495 23.0842 17.6591 22.9074 17.8356C22.7307 18.012 22.5209 18.1519 22.29 18.2472C22.0592 18.3425 21.8118 18.3914 21.562 18.391H21.565Z" fill="black"/>
</svg>
