<svg width="16" height="16" viewBox="0 0 16 16" fill="none" xmlns="http://www.w3.org/2000/svg">
<path d="M3.87109 5.75391C3.51562 5.42578 3.51562 4.85156 3.87109 4.52344L7.37109 1.02344C7.53516 0.859375 7.75391 0.75 8 0.75C8.21875 0.75 8.4375 0.859375 8.60156 1.02344L12.1016 4.52344C12.457 4.85156 12.457 5.42578 12.1016 5.75391C11.7734 6.10938 11.1992 6.10938 10.8711 5.75391L8.875 3.75781V10.375C8.875 10.8672 8.46484 11.25 8 11.25C7.50781 11.25 7.125 10.8672 7.125 10.375V3.75781L5.10156 5.75391C4.77344 6.10938 4.19922 6.10938 3.87109 5.75391ZM14.125 10.375C14.5898 10.375 15 10.7852 15 11.25V13.875C15 14.3672 14.5898 14.75 14.125 14.75H1.875C1.38281 14.75 1 14.3672 1 13.875V11.25C1 10.7852 1.38281 10.375 1.875 10.375H6.25C6.25 11.3594 7.01562 12.125 8 12.125C8.95703 12.125 9.75 11.3594 9.75 10.375H14.125ZM12.8125 13.2188C13.168 13.2188 13.4688 12.9453 13.4688 12.5625C13.4688 12.207 13.168 11.9062 12.8125 11.9062C12.4297 11.9062 12.1562 12.207 12.1562 12.5625C12.1562 12.9453 12.4297 13.2188 12.8125 13.2188Z" fill="black"/>
</svg>
