<svg width="17" height="15" viewBox="0 0 17 15" fill="none" xmlns="http://www.w3.org/2000/svg">
<path d="M8.49912 0.354996C8.72172 0.354968 8.94044 0.413313 9.13346 0.524208C9.32647 0.635103 9.48703 0.794672 9.59912 0.986996L16.4891 12.725C16.6027 12.9187 16.6631 13.139 16.6643 13.3635C16.6654 13.5881 16.6072 13.809 16.4956 14.0038C16.384 14.1987 16.2229 14.3606 16.0286 14.4732C15.8343 14.5857 15.6137 14.645 15.3891 14.645H1.61112C1.38656 14.645 1.16597 14.5857 0.971678 14.4732C0.777382 14.3606 0.616269 14.1987 0.504637 14.0038C0.393006 13.809 0.334816 13.5881 0.335954 13.3635C0.337092 13.139 0.397518 12.9187 0.511119 12.725L7.39912 0.986996C7.51121 0.794672 7.67177 0.635103 7.86478 0.524208C8.0578 0.413313 8.27652 0.354968 8.49912 0.354996ZM8.49912 4.438C8.39845 4.43773 8.29873 4.45736 8.20567 4.49577C8.11262 4.53417 8.02807 4.59058 7.95689 4.66176C7.8857 4.73294 7.82929 4.81749 7.79089 4.91055C7.75249 5.0036 7.73286 5.10333 7.73312 5.20399V8.776C7.7294 8.87885 7.74645 8.9814 7.78324 9.07752C7.82004 9.17364 7.87583 9.26136 7.94728 9.33544C8.01873 9.40952 8.10438 9.46844 8.1991 9.50868C8.29383 9.54893 8.3957 9.56967 8.49862 9.56967C8.60154 9.56967 8.70341 9.54893 8.79814 9.50868C8.89286 9.46844 8.97851 9.40952 9.04996 9.33544C9.12141 9.26136 9.1772 9.17364 9.21399 9.07752C9.25079 8.9814 9.26784 8.87885 9.26412 8.776V5.203C9.26425 5.1025 9.24455 5.00296 9.20615 4.91009C9.16776 4.81721 9.11141 4.73283 9.04035 4.66177C8.96929 4.5907 8.8849 4.53436 8.79203 4.49596C8.69915 4.45756 8.59962 4.43786 8.49912 4.438ZM9.52012 11.583C9.52032 11.381 9.4606 11.1835 9.34854 11.0155C9.23647 10.8475 9.07708 10.7164 8.89053 10.639C8.70399 10.5616 8.49867 10.5412 8.30055 10.5805C8.10243 10.6198 7.92041 10.7169 7.77752 10.8597C7.63463 11.0024 7.53729 11.1844 7.49781 11.3824C7.45833 11.5805 7.4785 11.7859 7.55574 11.9725C7.63299 12.1591 7.76385 12.3186 7.93178 12.4309C8.0997 12.5431 8.29714 12.603 8.49912 12.603C8.6332 12.6031 8.76599 12.5768 8.88991 12.5257C9.01384 12.4745 9.12647 12.3994 9.22137 12.3047C9.31627 12.2099 9.39159 12.0975 9.44302 11.9736C9.49445 11.8498 9.52099 11.7171 9.52112 11.583H9.52012Z" fill="#F03F3F"/>
</svg>
